STARTFONT 2.1
COMMENT
COMMENT Converted from OpenType font "Sarabun-Regular.ttf" by "otf2bdf 3.0".
COMMENT
FONT -FreeType-Sarabun-Medium-R-Normal--30-300-72-72-P-528-ISO10646-1
SIZE 30 72 72
FONTBOUNDINGBOX 253 111 -13 -13
STARTPROPERTIES 19
FOUNDRY "FreeType"
FAMILY_NAME "Sarabun"
WEIGHT_NAME "Medium"
SLANT "R"
SETWIDTH_NAME "Normal"
ADD_STYLE_NAME ""
PIXEL_SIZE 30
POINT_SIZE 300
RESOLUTION_X 72
RESOLUTION_Y 72
SPACING "P"
AVERAGE_WIDTH 528
CHARSET_REGISTRY "ISO10646"
CHARSET_ENCODING "1"
FONT_ASCENT 25
FONT_DESCENT 13
COPYRIGHT "Copyright (c) 2010-2013 by Software Industry Promotion Agency (Public Organization) (SIPA). All rights reserved. Created by Suppakit CHALERMLARP."
_OTF_FONTFILE "Sarabun-Regular.ttf"
_OTF_PSNAME "Sarabun"
ENDPROPERTIES
CHARS 504
STARTCHAR 0020
ENCODING 32
SWIDTH 200 0
DWIDTH 6 0
BBX 0 0 0 0
BITMAP
ENDCHAR
STARTCHAR 0021
ENCODING 33
SWIDTH 133 0
DWIDTH 4 0
BBX 2 14 1 0
BITMAP
C0
C0
40
40
40
40
40
40
40
40
00
00
C0
C0
ENDCHAR
STARTCHAR 0022
ENCODING 34
SWIDTH 200 0
DWIDTH 6 0
BBX 4 5 1 10
BITMAP
D0
90
90
90
90
ENDCHAR
STARTCHAR 0023
ENCODING 35
SWIDTH 400 0
DWIDTH 12 0
BBX 10 14 1 0
BITMAP
1880
1080
1080
1080
FFC0
2100
2100
2100
2100
FFC0
4200
4200
4200
4400
ENDCHAR
STARTCHAR 0024
ENCODING 36
SWIDTH 366 0
DWIDTH 11 0
BBX 7 18 2 -2
BITMAP
10
10
3C
C2
80
80
80
40
30
0C
06
02
02
02
84
78
10
10
ENDCHAR
STARTCHAR 0025
ENCODING 37
SWIDTH 600 0
DWIDTH 18 0
BBX 16 14 1 0
BITMAP
7818
C410
8420
8440
8440
8480
C4BC
7922
0242
0242
0443
0842
0822
103C
ENDCHAR
STARTCHAR 0026
ENCODING 38
SWIDTH 433 0
DWIDTH 13 0
BBX 12 15 1 0
BITMAP
1E00
2200
6100
4100
6200
2600
1800
6820
8820
8420
8260
8140
8080
C3C0
3E30
ENDCHAR
STARTCHAR 0027
ENCODING 39
SWIDTH 133 0
DWIDTH 4 0
BBX 1 5 1 10
BITMAP
80
80
80
80
80
ENDCHAR
STARTCHAR 0028
ENCODING 40
SWIDTH 200 0
DWIDTH 6 0
BBX 4 18 1 -2
BITMAP
10
20
40
40
80
80
80
80
80
80
80
80
80
80
40
40
20
30
ENDCHAR
STARTCHAR 0029
ENCODING 41
SWIDTH 200 0
DWIDTH 6 0
BBX 4 18 1 -2
BITMAP
80
40
40
20
20
30
10
10
10
10
10
10
30
20
20
40
40
80
ENDCHAR
STARTCHAR 002A
ENCODING 42
SWIDTH 300 0
DWIDTH 9 0
BBX 7 7 1 8
BITMAP
4C
68
30
FE
30
48
44
ENDCHAR
STARTCHAR 002B
ENCODING 43
SWIDTH 400 0
DWIDTH 12 0
BBX 10 11 1 0
BITMAP
0400
0400
0400
0400
0400
FFC0
0400
0400
0400
0400
0400
ENDCHAR
STARTCHAR 002C
ENCODING 44
SWIDTH 166 0
DWIDTH 5 0
BBX 3 5 1 -3
BITMAP
40
E0
40
40
80
ENDCHAR
STARTCHAR 002D
ENCODING 45
SWIDTH 200 0
DWIDTH 6 0
BBX 5 1 1 5
BITMAP
F8
ENDCHAR
STARTCHAR 002E
ENCODING 46
SWIDTH 166 0
DWIDTH 5 0
BBX 2 2 1 0
BITMAP
40
C0
ENDCHAR
STARTCHAR 002F
ENCODING 47
SWIDTH 266 0
DWIDTH 8 0
BBX 9 16 -1 -1
BITMAP
0080
0180
0100
0300
0200
0600
0400
0400
0800
0800
1000
1000
2000
2000
4000
C000
ENDCHAR
STARTCHAR 0030
ENCODING 48
SWIDTH 366 0
DWIDTH 11 0
BBX 9 14 1 0
BITMAP
1C00
6200
4100
C100
8180
8080
8080
8080
8080
8180
C100
4100
6200
1C00
ENDCHAR
STARTCHAR 0031
ENCODING 49
SWIDTH 366 0
DWIDTH 11 0
BBX 7 14 2 0
BITMAP
10
30
50
90
10
10
10
10
10
10
10
10
10
7E
ENDCHAR
STARTCHAR 0032
ENCODING 50
SWIDTH 366 0
DWIDTH 11 0
BBX 9 14 1 0
BITMAP
3E00
6100
4180
4180
0180
0100
0300
0600
0C00
1800
3000
6000
C000
FF80
ENDCHAR
STARTCHAR 0033
ENCODING 51
SWIDTH 366 0
DWIDTH 11 0
BBX 9 14 1 0
BITMAP
3C00
6200
C300
0600
0C00
1E00
1100
0180
0080
0080
0180
0100
8600
7C00
ENDCHAR
STARTCHAR 0034
ENCODING 52
SWIDTH 366 0
DWIDTH 11 0
BBX 9 14 1 0
BITMAP
0200
0E00
1200
2200
6200
4200
4200
C200
8200
8200
FF80
0200
0200
0200
ENDCHAR
STARTCHAR 0035
ENCODING 53
SWIDTH 366 0
DWIDTH 11 0
BBX 9 14 1 0
BITMAP
3F00
2000
2000
6000
6000
7C00
4300
0100
0180
0180
0100
0100
8600
FC00
ENDCHAR
STARTCHAR 0036
ENCODING 54
SWIDTH 366 0
DWIDTH 11 0
BBX 9 14 1 0
BITMAP
0300
0C00
1800
2000
6000
5E00
E300
C100
8180
8180
8180
4100
6300
3E00
ENDCHAR
STARTCHAR 0037
ENCODING 55
SWIDTH 366 0
DWIDTH 11 0
BBX 9 14 1 0
BITMAP
FF80
0100
0300
0200
0400
0400
0C00
0800
0800
1800
1000
1000
1000
1000
ENDCHAR
STARTCHAR 0038
ENCODING 56
SWIDTH 366 0
DWIDTH 11 0
BBX 9 14 1 0
BITMAP
3E00
6300
4100
C100
4100
2200
3C00
6300
C180
8080
8080
8180
4300
3E00
ENDCHAR
STARTCHAR 0039
ENCODING 57
SWIDTH 366 0
DWIDTH 11 0
BBX 9 14 1 0
BITMAP
3C00
6300
C100
8100
8180
8180
4180
6300
3D00
0200
0600
0C00
1800
6000
ENDCHAR
STARTCHAR 003A
ENCODING 58
SWIDTH 166 0
DWIDTH 5 0
BBX 2 10 1 0
BITMAP
40
C0
00
00
00
00
00
00
40
C0
ENDCHAR
STARTCHAR 003B
ENCODING 59
SWIDTH 166 0
DWIDTH 5 0
BBX 3 13 1 -3
BITMAP
40
C0
00
00
00
00
00
00
40
E0
40
40
80
ENDCHAR
STARTCHAR 003C
ENCODING 60
SWIDTH 400 0
DWIDTH 12 0
BBX 10 11 1 0
BITMAP
0040
0180
0600
1800
6000
C000
6000
1800
0600
0180
0040
ENDCHAR
STARTCHAR 003D
ENCODING 61
SWIDTH 400 0
DWIDTH 12 0
BBX 9 5 2 3
BITMAP
FF80
0000
0000
0000
FF80
ENDCHAR
STARTCHAR 003E
ENCODING 62
SWIDTH 400 0
DWIDTH 12 0
BBX 10 11 1 0
BITMAP
8000
6000
1800
0600
0180
0040
0180
0600
1800
6000
8000
ENDCHAR
STARTCHAR 003F
ENCODING 63
SWIDTH 266 0
DWIDTH 8 0
BBX 6 14 1 0
BITMAP
78
84
04
04
04
08
18
10
20
20
20
00
20
30
ENDCHAR
STARTCHAR 0040
ENCODING 64
SWIDTH 533 0
DWIDTH 16 0
BBX 14 15 1 -3
BITMAP
07C0
1830
2788
48CC
C044
8044
87C4
8C44
9044
904C
90D8
CF70
6000
3040
0F80
ENDCHAR
STARTCHAR 0041
ENCODING 65
SWIDTH 400 0
DWIDTH 12 0
BBX 12 14 0 0
BITMAP
0600
0600
0900
0900
0900
1080
1080
2080
3FC0
2040
4020
4020
4020
8010
ENDCHAR
STARTCHAR 0042
ENCODING 66
SWIDTH 366 0
DWIDTH 11 0
BBX 8 14 2 0
BITMAP
FC
82
83
81
83
86
FC
86
81
81
81
81
82
FC
ENDCHAR
STARTCHAR 0043
ENCODING 67
SWIDTH 400 0
DWIDTH 12 0
BBX 10 14 1 0
BITMAP
0FC0
3040
6000
C000
8000
8000
8000
8000
8000
8000
C000
6000
3040
0FC0
ENDCHAR
STARTCHAR 0044
ENCODING 68
SWIDTH 433 0
DWIDTH 13 0
BBX 10 14 2 0
BITMAP
FC00
8300
8080
8080
8040
8040
8040
8040
8040
8040
8080
8180
8300
FC00
ENDCHAR
STARTCHAR 0045
ENCODING 69
SWIDTH 366 0
DWIDTH 11 0
BBX 7 14 2 0
BITMAP
FE
80
80
80
80
80
FE
80
80
80
80
80
80
FE
ENDCHAR
STARTCHAR 0046
ENCODING 70
SWIDTH 366 0
DWIDTH 11 0
BBX 8 14 2 0
BITMAP
FF
80
80
80
80
80
FE
80
80
80
80
80
80
80
ENDCHAR
STARTCHAR 0047
ENCODING 71
SWIDTH 433 0
DWIDTH 13 0
BBX 10 14 1 0
BITMAP
0F80
3040
6000
C000
8000
8000
8000
83C0
8040
8040
C040
4040
3040
1FC0
ENDCHAR
STARTCHAR 0048
ENCODING 72
SWIDTH 433 0
DWIDTH 13 0
BBX 10 14 2 0
BITMAP
80C0
80C0
80C0
80C0
80C0
80C0
FFC0
80C0
80C0
80C0
80C0
80C0
80C0
80C0
ENDCHAR
STARTCHAR 0049
ENCODING 73
SWIDTH 133 0
DWIDTH 4 0
BBX 1 14 2 0
BITMAP
80
80
80
80
80
80
80
80
80
80
80
80
80
80
ENDCHAR
STARTCHAR 004A
ENCODING 74
SWIDTH 266 0
DWIDTH 8 0
BBX 6 14 0 0
BITMAP
04
04
04
04
04
04
04
04
04
04
04
04
08
F0
ENDCHAR
STARTCHAR 004B
ENCODING 75
SWIDTH 366 0
DWIDTH 11 0
BBX 10 14 2 0
BITMAP
8180
8300
8600
8C00
9800
B000
F000
9000
8800
8400
8200
8100
8180
80C0
ENDCHAR
STARTCHAR 004C
ENCODING 76
SWIDTH 366 0
DWIDTH 11 0
BBX 8 14 2 0
BITMAP
80
80
80
80
80
80
80
80
80
80
80
80
80
FF
ENDCHAR
STARTCHAR 004D
ENCODING 77
SWIDTH 533 0
DWIDTH 16 0
BBX 14 14 1 0
BITMAP
6008
6018
6018
5028
502C
4824
4844
4844
4444
4484
C484
C284
8304
8104
ENDCHAR
STARTCHAR 004E
ENCODING 78
SWIDTH 433 0
DWIDTH 13 0
BBX 10 14 2 0
BITMAP
80C0
C0C0
C0C0
A0C0
90C0
90C0
88C0
88C0
84C0
82C0
82C0
81C0
81C0
80C0
ENDCHAR
STARTCHAR 004F
ENCODING 79
SWIDTH 500 0
DWIDTH 15 0
BBX 13 14 1 0
BITMAP
0F80
3060
6030
C010
8018
8008
8008
8008
8008
8018
C010
6030
3060
0F80
ENDCHAR
STARTCHAR 0050
ENCODING 80
SWIDTH 366 0
DWIDTH 11 0
BBX 8 14 2 0
BITMAP
FC
82
81
81
81
81
86
FC
80
80
80
80
80
80
ENDCHAR
STARTCHAR 0051
ENCODING 81
SWIDTH 500 0
DWIDTH 15 0
BBX 13 16 1 -2
BITMAP
0F80
3060
6030
C010
8018
8008
8008
8008
8008
8018
C010
6020
3060
0F80
01C0
0030
ENDCHAR
STARTCHAR 0052
ENCODING 82
SWIDTH 366 0
DWIDTH 11 0
BBX 9 14 2 0
BITMAP
FC00
8300
8100
8100
8100
8100
8200
FC00
8600
8300
8100
8100
8100
8080
ENDCHAR
STARTCHAR 0053
ENCODING 83
SWIDTH 366 0
DWIDTH 11 0
BBX 9 14 1 0
BITMAP
3E00
6100
C000
8000
4000
6000
1C00
0300
0100
0180
0180
0100
8300
7C00
ENDCHAR
STARTCHAR 0054
ENCODING 84
SWIDTH 366 0
DWIDTH 11 0
BBX 12 14 0 0
BITMAP
FFF0
0400
0400
0400
0400
0400
0400
0400
0400
0400
0400
0400
0400
0400
ENDCHAR
STARTCHAR 0055
ENCODING 85
SWIDTH 466 0
DWIDTH 14 0
BBX 10 14 2 0
BITMAP
8040
8040
8040
8040
8040
8040
8040
8040
8040
8040
8040
C0C0
6180
3F00
ENDCHAR
STARTCHAR 0056
ENCODING 86
SWIDTH 400 0
DWIDTH 12 0
BBX 12 14 0 0
BITMAP
8030
4020
4060
6040
2040
20C0
3080
1080
1180
0900
0900
0A00
0600
0600
ENDCHAR
STARTCHAR 0057
ENCODING 87
SWIDTH 600 0
DWIDTH 18 0
BBX 18 14 0 0
BITMAP
80C0C0
C0C080
414080
414180
612100
212100
222300
222200
121200
121200
141400
0C1400
0C0C00
0C0800
ENDCHAR
STARTCHAR 0058
ENCODING 88
SWIDTH 433 0
DWIDTH 13 0
BBX 11 14 1 0
BITMAP
8060
40C0
6080
3100
1300
0A00
0C00
0C00
1200
1100
2180
4080
4040
8060
ENDCHAR
STARTCHAR 0059
ENCODING 89
SWIDTH 366 0
DWIDTH 11 0
BBX 11 14 0 0
BITMAP
C060
4040
2080
2180
1100
1B00
0A00
0400
0400
0400
0400
0400
0400
0400
ENDCHAR
STARTCHAR 005A
ENCODING 90
SWIDTH 433 0
DWIDTH 13 0
BBX 11 14 1 0
BITMAP
FFE0
0040
0080
0100
0100
0200
0400
0800
1800
3000
2000
4000
C000
FFE0
ENDCHAR
STARTCHAR 005B
ENCODING 91
SWIDTH 200 0
DWIDTH 6 0
BBX 4 17 2 -2
BITMAP
F0
80
80
80
80
80
80
80
80
80
80
80
80
80
80
80
F0
ENDCHAR
STARTCHAR 005C
ENCODING 92
SWIDTH 266 0
DWIDTH 8 0
BBX 8 15 0 -1
BITMAP
80
C0
40
60
20
30
10
18
08
0C
04
06
02
03
01
ENDCHAR
STARTCHAR 005D
ENCODING 93
SWIDTH 200 0
DWIDTH 6 0
BBX 4 17 0 -2
BITMAP
F0
10
10
10
10
10
10
10
10
10
10
10
10
10
10
10
F0
ENDCHAR
STARTCHAR 005E
ENCODING 94
SWIDTH 400 0
DWIDTH 12 0
BBX 10 9 1 5
BITMAP
0C00
0C00
1200
1200
3100
2100
6080
4080
C040
ENDCHAR
STARTCHAR 005F
ENCODING 95
SWIDTH 366 0
DWIDTH 11 0
BBX 11 1 0 -6
BITMAP
FFE0
ENDCHAR
STARTCHAR 0060
ENCODING 96
SWIDTH 200 0
DWIDTH 6 0
BBX 2 2 2 12
BITMAP
80
40
ENDCHAR
STARTCHAR 0061
ENCODING 97
SWIDTH 333 0
DWIDTH 10 0
BBX 8 10 1 0
BITMAP
FC
82
03
01
3F
61
81
83
87
79
ENDCHAR
STARTCHAR 0062
ENCODING 98
SWIDTH 400 0
DWIDTH 12 0
BBX 10 15 1 0
BITMAP
4000
4000
4000
4000
4000
5F00
6180
40C0
4040
4040
4040
4040
40C0
6080
DF00
ENDCHAR
STARTCHAR 0063
ENCODING 99
SWIDTH 333 0
DWIDTH 10 0
BBX 8 10 1 0
BITMAP
1F
61
C0
80
80
80
80
C0
61
1F
ENDCHAR
STARTCHAR 0064
ENCODING 100
SWIDTH 400 0
DWIDTH 12 0
BBX 10 15 1 0
BITMAP
0080
0080
0080
0080
0080
3E80
4180
C080
8080
8080
8080
8080
C080
4180
3EC0
ENDCHAR
STARTCHAR 0065
ENCODING 101
SWIDTH 366 0
DWIDTH 11 0
BBX 9 10 1 0
BITMAP
1E00
6100
C080
8080
FF80
8000
8000
C000
6080
1F00
ENDCHAR
STARTCHAR 0066
ENCODING 102
SWIDTH 200 0
DWIDTH 6 0
BBX 7 15 0 0
BITMAP
0E
10
20
20
20
FC
20
20
20
20
20
20
20
20
20
ENDCHAR
STARTCHAR 0067
ENCODING 103
SWIDTH 300 0
DWIDTH 9 0
BBX 7 15 1 -5
BITMAP
3E
46
82
82
82
46
7C
40
60
1C
06
02
02
46
7C
ENDCHAR
STARTCHAR 0068
ENCODING 104
SWIDTH 400 0
DWIDTH 12 0
BBX 8 15 2 0
BITMAP
80
80
80
80
80
BC
C2
81
81
81
81
81
81
81
81
ENDCHAR
STARTCHAR 0069
ENCODING 105
SWIDTH 133 0
DWIDTH 4 0
BBX 2 15 1 0
BITMAP
80
C0
00
00
00
40
40
40
40
40
40
40
40
40
40
ENDCHAR
STARTCHAR 006A
ENCODING 106
SWIDTH 166 0
DWIDTH 5 0
BBX 4 19 -1 -4
BITMAP
10
10
00
00
00
10
10
10
10
10
10
10
10
10
10
10
10
20
C0
ENDCHAR
STARTCHAR 006B
ENCODING 107
SWIDTH 300 0
DWIDTH 9 0
BBX 8 15 2 0
BITMAP
80
80
80
80
80
86
88
90
A0
E0
90
98
8C
86
83
ENDCHAR
STARTCHAR 006C
ENCODING 108
SWIDTH 200 0
DWIDTH 6 0
BBX 3 15 2 0
BITMAP
80
80
80
80
80
80
80
80
80
80
80
80
80
C0
60
ENDCHAR
STARTCHAR 006D
ENCODING 109
SWIDTH 600 0
DWIDTH 18 0
BBX 15 10 1 0
BITMAP
DE3C
6146
4182
4182
4182
4182
4182
4182
4182
4182
ENDCHAR
STARTCHAR 006E
ENCODING 110
SWIDTH 400 0
DWIDTH 12 0
BBX 9 10 1 0
BITMAP
DE00
6100
4080
4080
4080
4080
4080
4080
4080
4080
ENDCHAR
STARTCHAR 006F
ENCODING 111
SWIDTH 400 0
DWIDTH 12 0
BBX 10 10 1 0
BITMAP
1E00
6180
C080
8040
8040
8040
8040
C080
6180
1E00
ENDCHAR
STARTCHAR 0070
ENCODING 112
SWIDTH 400 0
DWIDTH 12 0
BBX 10 15 1 -5
BITMAP
DF00
6080
40C0
4040
4040
4040
4040
40C0
6080
5F00
4000
4000
4000
4000
4000
ENDCHAR
STARTCHAR 0071
ENCODING 113
SWIDTH 400 0
DWIDTH 12 0
BBX 10 15 1 -5
BITMAP
1E40
21C0
40C0
4040
C040
C040
4040
40C0
2140
1E40
0040
0040
0040
0040
0040
ENDCHAR
STARTCHAR 0072
ENCODING 114
SWIDTH 233 0
DWIDTH 7 0
BBX 5 10 1 0
BITMAP
98
E0
40
40
40
40
40
40
40
40
ENDCHAR
STARTCHAR 0073
ENCODING 115
SWIDTH 266 0
DWIDTH 8 0
BBX 6 10 1 0
BITMAP
7C
44
80
40
38
0C
04
04
84
F8
ENDCHAR
STARTCHAR 0074
ENCODING 116
SWIDTH 233 0
DWIDTH 7 0
BBX 7 14 0 0
BITMAP
20
20
20
20
FE
20
20
20
20
20
20
20
10
1C
ENDCHAR
STARTCHAR 0075
ENCODING 117
SWIDTH 400 0
DWIDTH 12 0
BBX 9 10 2 0
BITMAP
8100
8100
8100
8100
8100
8100
8100
8300
C700
7980
ENDCHAR
STARTCHAR 0076
ENCODING 118
SWIDTH 333 0
DWIDTH 10 0
BBX 10 10 0 0
BITMAP
C040
4080
4080
2180
2100
1300
1200
1A00
0C00
0C00
ENDCHAR
STARTCHAR 0077
ENCODING 119
SWIDTH 500 0
DWIDTH 15 0
BBX 15 10 0 0
BITMAP
8102
4282
4284
4284
244C
2448
2448
1830
1830
1830
ENDCHAR
STARTCHAR 0078
ENCODING 120
SWIDTH 333 0
DWIDTH 10 0
BBX 10 10 0 0
BITMAP
C080
6100
3200
1600
0C00
0C00
1600
2300
6100
C0C0
ENDCHAR
STARTCHAR 0079
ENCODING 121
SWIDTH 333 0
DWIDTH 10 0
BBX 10 15 0 -5
BITMAP
C040
4080
4080
2100
2100
1300
1200
1A00
0C00
0C00
0800
0800
1000
2000
4000
ENDCHAR
STARTCHAR 007A
ENCODING 122
SWIDTH 333 0
DWIDTH 10 0
BBX 9 10 0 0
BITMAP
7F80
0100
0300
0600
0400
0800
1000
2000
4000
FF80
ENDCHAR
STARTCHAR 007B
ENCODING 123
SWIDTH 200 0
DWIDTH 6 0
BBX 5 16 0 -2
BITMAP
18
20
20
20
20
20
20
60
E0
20
20
20
20
20
20
18
ENDCHAR
STARTCHAR 007C
ENCODING 124
SWIDTH 166 0
DWIDTH 5 0
BBX 1 21 2 -5
BITMAP
80
80
80
80
80
80
80
80
80
80
80
80
80
80
80
80
80
80
80
80
80
ENDCHAR
STARTCHAR 007D
ENCODING 125
SWIDTH 200 0
DWIDTH 6 0
BBX 5 16 1 -2
BITMAP
C0
20
20
20
20
20
20
38
38
20
20
20
20
20
20
C0
ENDCHAR
STARTCHAR 007E
ENCODING 126
SWIDTH 400 0
DWIDTH 12 0
BBX 11 2 1 5
BITMAP
F820
87C0
ENDCHAR
STARTCHAR 00A0
ENCODING 160
SWIDTH 200 0
DWIDTH 6 0
BBX 0 0 0 0
BITMAP
ENDCHAR
STARTCHAR 00A1
ENCODING 161
SWIDTH 166 0
DWIDTH 5 0
BBX 2 14 1 -4
BITMAP
C0
C0
00
00
40
40
40
40
40
40
C0
C0
C0
C0
ENDCHAR
STARTCHAR 00A2
ENCODING 162
SWIDTH 400 0
DWIDTH 12 0
BBX 10 18 1 -2
BITMAP
0400
0400
0FC0
3040
6000
4000
8000
8000
8000
8000
8000
C000
4000
3040
0FC0
0400
0400
0400
ENDCHAR
STARTCHAR 00A3
ENCODING 163
SWIDTH 400 0
DWIDTH 12 0
BBX 9 14 2 0
BITMAP
1F00
3000
2000
2000
2000
2000
2000
FC00
2000
2000
2000
2000
4000
FF80
ENDCHAR
STARTCHAR 00A4
ENCODING 164
SWIDTH 400 0
DWIDTH 12 0
BBX 11 11 1 1
BITMAP
9E40
E1E0
40C0
8040
8060
8060
8060
8040
40C0
E1C0
9E60
ENDCHAR
STARTCHAR 00A5
ENCODING 165
SWIDTH 400 0
DWIDTH 12 0
BBX 10 13 1 1
BITMAP
C040
4080
6180
3100
1300
1A00
0E00
0C00
7F80
0400
7F80
0400
0400
ENDCHAR
STARTCHAR 00A6
ENCODING 166
SWIDTH 166 0
DWIDTH 5 0
BBX 1 18 2 -4
BITMAP
80
80
80
80
80
80
80
00
00
00
00
80
80
80
80
80
80
80
ENDCHAR
STARTCHAR 00A7
ENCODING 167
SWIDTH 366 0
DWIDTH 11 0
BBX 8 15 2 -1
BITMAP
3C
46
80
C0
60
9C
82
83
62
1A
04
02
02
86
78
ENDCHAR
STARTCHAR 00A8
ENCODING 168
SWIDTH 200 0
DWIDTH 6 0
BBX 6 1 0 12
BITMAP
CC
ENDCHAR
STARTCHAR 00A9
ENCODING 169
SWIDTH 533 0
DWIDTH 16 0
BBX 14 14 1 0
BITMAP
0FC0
1030
67D8
4848
9004
9004
9004
9004
9004
8844
4788
6018
1020
0FC0
ENDCHAR
STARTCHAR 00AA
ENCODING 170
SWIDTH 233 0
DWIDTH 7 0
BBX 5 7 1 7
BITMAP
70
88
78
C8
88
88
F8
ENDCHAR
STARTCHAR 00AB
ENCODING 171
SWIDTH 300 0
DWIDTH 9 0
BBX 8 8 0 1
BITMAP
19
32
24
48
C8
24
32
19
ENDCHAR
STARTCHAR 00AC
ENCODING 172
SWIDTH 433 0
DWIDTH 13 0
BBX 11 5 1 3
BITMAP
FFE0
0060
0060
0060
0060
ENDCHAR
STARTCHAR 00AD
ENCODING 173
SWIDTH 200 0
DWIDTH 6 0
BBX 5 1 1 5
BITMAP
F8
ENDCHAR
STARTCHAR 00AE
ENCODING 174
SWIDTH 533 0
DWIDTH 16 0
BBX 14 14 1 0
BITMAP
0FC0
1030
6F98
4848
8844
8844
8F84
88C4
8844
8844
4848
6018
1020
0FC0
ENDCHAR
STARTCHAR 00AF
ENCODING 175
SWIDTH 366 0
DWIDTH 11 0
BBX 11 1 0 16
BITMAP
FFE0
ENDCHAR
STARTCHAR 00B0
ENCODING 176
SWIDTH 200 0
DWIDTH 6 0
BBX 5 5 1 9
BITMAP
70
98
88
90
70
ENDCHAR
STARTCHAR 00B1
ENCODING 177
SWIDTH 400 0
DWIDTH 12 0
BBX 10 11 1 0
BITMAP
0400
0400
0400
0400
FFC0
0400
0400
0400
0400
0000
FFC0
ENDCHAR
STARTCHAR 00B2
ENCODING 178
SWIDTH 266 0
DWIDTH 8 0
BBX 5 8 1 6
BITMAP
70
C8
88
18
30
60
C0
F8
ENDCHAR
STARTCHAR 00B3
ENCODING 179
SWIDTH 266 0
DWIDTH 8 0
BBX 5 8 1 6
BITMAP
70
C8
10
38
48
08
88
F0
ENDCHAR
STARTCHAR 00B4
ENCODING 180
SWIDTH 200 0
DWIDTH 6 0
BBX 3 3 2 16
BITMAP
60
C0
80
ENDCHAR
STARTCHAR 00B5
ENCODING 181
SWIDTH 400 0
DWIDTH 12 0
BBX 9 14 2 -4
BITMAP
8180
8180
8180
8180
8180
8180
8180
8180
C380
BC80
8000
8000
8000
8000
ENDCHAR
STARTCHAR 00B6
ENCODING 182
SWIDTH 366 0
DWIDTH 11 0
BBX 9 16 1 -2
BITMAP
1F80
7C80
7C80
FC80
FC80
FC80
7C80
3C80
1C80
0480
0480
0480
0480
0480
0480
0480
ENDCHAR
STARTCHAR 00B7
ENCODING 183
SWIDTH 166 0
DWIDTH 5 0
BBX 2 2 1 4
BITMAP
40
C0
ENDCHAR
STARTCHAR 00B8
ENCODING 184
SWIDTH 200 0
DWIDTH 6 0
BBX 4 4 1 -4
BITMAP
20
60
10
E0
ENDCHAR
STARTCHAR 00B9
ENCODING 185
SWIDTH 266 0
DWIDTH 8 0
BBX 4 8 2 6
BITMAP
40
E0
E0
60
60
60
60
F0
ENDCHAR
STARTCHAR 00BA
ENCODING 186
SWIDTH 300 0
DWIDTH 9 0
BBX 7 7 1 7
BITMAP
78
C4
82
82
82
C4
78
ENDCHAR
STARTCHAR 00BB
ENCODING 187
SWIDTH 300 0
DWIDTH 9 0
BBX 7 8 1 1
BITMAP
98
48
24
32
12
24
48
98
ENDCHAR
STARTCHAR 00BC
ENCODING 188
SWIDTH 533 0
DWIDTH 16 0
BBX 14 14 1 0
BITMAP
6010
E020
A040
2040
2080
2088
2138
2228
D248
0448
04C8
08FC
1008
3008
ENDCHAR
STARTCHAR 00BD
ENCODING 189
SWIDTH 533 0
DWIDTH 16 0
BBX 14 14 1 0
BITMAP
6010
E020
A040
2040
2080
20B8
2164
2244
D204
0408
0410
0830
1060
307C
ENDCHAR
STARTCHAR 00BE
ENCODING 190
SWIDTH 533 0
DWIDTH 16 0
BBX 14 14 1 0
BITMAP
7010
C820
1040
3040
4880
0888
8938
F228
0248
0448
0CC8
08FC
1008
3008
ENDCHAR
STARTCHAR 00BF
ENCODING 191
SWIDTH 300 0
DWIDTH 9 0
BBX 7 15 1 -5
BITMAP
18
18
00
00
10
10
10
10
20
40
C0
80
80
C4
7E
ENDCHAR
STARTCHAR 00C0
ENCODING 192
SWIDTH 400 0
DWIDTH 12 0
BBX 164 18 0 0
BITMAP
000000000000000000000000000000000000000010
000000000000000000000000000000000000000010
000000000000000000000000000000000000000000
000000000000000000000000000000000000000000
060000000000000000000000000000000000000000
060000000000000000000000000000000000000000
090000000000000000000000000000000000000000
090000000000000000000000000000000000000000
090000000000000000000000000000000000000000
108000000000000000000000000000000000000000
108000000000000000000000000000000000000000
208000000000000000000000000000000000000000
3FC000000000000000000000000000000000000000
204000000000000000000000000000000000000000
402000000000000000000000000000000000000000
402000000000000000000000000000000000000000
402000000000000000000000000000000000000000
801000000000000000000000000000000000000000
ENDCHAR
STARTCHAR 00C1
ENCODING 193
SWIDTH 400 0
DWIDTH 12 0
BBX 178 18 0 0
BITMAP
0000000000000000000000000000000000000000000040
0000000000000000000000000000000000000000000080
0000000000000000000000000000000000000000000000
0000000000000000000000000000000000000000000000
0600000000000000000000000000000000000000000000
0600000000000000000000000000000000000000000000
0900000000000000000000000000000000000000000000
0900000000000000000000000000000000000000000000
0900000000000000000000000000000000000000000000
1080000000000000000000000000000000000000000000
1080000000000000000000000000000000000000000000
2080000000000000000000000000000000000000000000
3FC0000000000000000000000000000000000000000000
2040000000000000000000000000000000000000000000
4020000000000000000000000000000000000000000000
4020000000000000000000000000000000000000000000
4020000000000000000000000000000000000000000000
8010000000000000000000000000000000000000000000
ENDCHAR
STARTCHAR 00C2
ENCODING 194
SWIDTH 400 0
DWIDTH 12 0
BBX 30 39 0 0
BITMAP
00000010
00000010
00000010
00000010
00000010
00000010
00000018
00000038
00000038
00000038
00000038
00000038
00000038
00000038
00000038
00000038
00000038
0000003C
0000007C
0000007C
0000007C
0000006C
0000006C
00000000
00000000
06000000
06000000
09000000
09000000
09000000
10800000
10800000
20800000
3FC00000
20400000
40200000
40200000
40200000
80100000
ENDCHAR
STARTCHAR 00C3
ENCODING 195
SWIDTH 400 0
DWIDTH 12 0
BBX 239 95 0 0
BITMAP
000000000000000000000000000000000000000000000000000000000012
00000000000000000000000000000000000000000000000000000000003E
00000000000000000000000000000000000000000000000000000000003E
00000000000000000000000000000000000000000000000000000000003E
00000000000000000000000000000000000000000000000000000000003E
00000000000000000000000000000000000000000000000000000000003E
00000000000000000000000000000000000000000000000000000000003E
00000000000000000000000000000000000000000000000000000000003E
00000000000000000000000000000000000000000000000000000000003E
00000000000000000000000000000000000000000000000000000000003E
00000000000000000000000000000000000000000000000000000000003E
00000000000000000000000000000000000000000000000000000000003E
00000000000000000000000000000000000000000000000000000000003E
00000000000000000000000000000000000000000000000000000000003E
00000000000000000000000000000000000000000000000000000000003E
00000000000000000000000000000000000000000000000000000000003E
00000000000000000000000000000000000000000000000000000000003E
00000000000000000000000000000000000000000000000000000000003E
00000000000000000000000000000000000000000000000000000000003E
00000000000000000000000000000000000000000000000000000000003E
00000000000000000000000000000000000000000000000000000000003E
00000000000000000000000000000000000000000000000000000000003E
00000000000000000000000000000000000000000000000000000000003E
00000000000000000000000000000000000000000000000000000000003E
00000000000000000000000000000000000000000000000000000000003E
00000000000000000000000000000000000000000000000000000000003E
00000000000000000000000000000000000000000000000000000000003E
00000000000000000000000000000000000000000000000000000000003E
00000000000000000000000000000000000000000000000000000000003E
00000000000000000000000000000000000000000000000000000000003E
00000000000000000000000000000000000000000000000000000000003E
00000000000000000000000000000000000000000000000000000000003E
00000000000000000000000000000000000000000000000000000000003E
00000000000000000000000000000000000000000000000000000000003E
00000000000000000000000000000000000000000000000000000000007E
00000000000000000000000000000000000000000000000000000000007C
00000000000000000000000000000000000000000000000000000000007C
00000000000000000000000000000000000000000000000000000000007C
00000000000000000000000000000000000000000000000000000000007C
00000000000000000000000000000000000000000000000000000000007C
00000000000000000000000000000000000000000000000000000000007C
00000000000000000000000000000000000000000000000000000000007C
00000000000000000000000000000000000000000000000000000000007C
00000000000000000000000000000000000000000000000000000000007C
00000000000000000000000000000000000000000000000000000000007C
00000000000000000000000000000000000000000000000000000000007C
00000000000000000000000000000000000000000000000000000000007C
00000000000000000000000000000000000000000000000000000000007C
00000000000000000000000000000000000000000000000000000000007C
00000000000000000000000000000000000000000000000000000000007C
00000000000000000000000000000000000000000000000000000000007C
00000000000000000000000000000000000000000000000000000000007C
00000000000000000000000000000000000000000000000000000000007C
00000000000000000000000000000000000000000000000000000000007C
00000000000000000000000000000000000000000000000000000000007C
00000000000000000000000000000000000000000000000000000000007C
00000000000000000000000000000000000000000000000000000000007C
00000000000000000000000000000000000000000000000000000000007C
00000000000000000000000000000000000000000000000000000000007C
00000000000000000000000000000000000000000000000000000000007C
00000000000000000000000000000000000000000000000000000000007C
00000000000000000000000000000000000000000000000000000000007C
00000000000000000000000000000000000000000000000000000000007C
00000000000000000000000000000000000000000000000000000000007C
00000000000000000000000000000000000000000000000000000000007C
00000000000000000000000000000000000000000000000000000000007C
00000000000000000000000000000000000000000000000000000000007C
00000000000000000000000000000000000000000000000000000000007C
00000000000000000000000000000000000000000000000000000000007C
00000000000000000000000000000000000000000000000000000000007C
00000000000000000000000000000000000000000000000000000000007C
00000000000000000000000000000000000000000000000000000000007C
00000000000000000000000000000000000000000000000000000000007C
00000000000000000000000000000000000000000000000000000000007C
00000000000000000000000000000000000000000000000000000000007C
00000000000000000000000000000000000000000000000000000000007C
00000000000000000000000000000000000000000000000000000000007C
000000000000000000000000000000000000000000000000000000000078
000000000000000000000000000000000000000000000000000000000048
000000000000000000000000000000000000000000000000000000000000
000000000000000000000000000000000000000000000000000000000000
060000000000000000000000000000000000000000000000000000000000
060000000000000000000000000000000000000000000000000000000000
090000000000000000000000000000000000000000000000000000000000
090000000000000000000000000000000000000000000000000000000000
090000000000000000000000000000000000000000000000000000000000
108000000000000000000000000000000000000000000000000000000000
108000000000000000000000000000000000000000000000000000000000
208000000000000000000000000000000000000000000000000000000000
3FC000000000000000000000000000000000000000000000000000000000
204000000000000000000000000000000000000000000000000000000000
402000000000000000000000000000000000000000000000000000000000
402000000000000000000000000000000000000000000000000000000000
402000000000000000000000000000000000000000000000000000000000
801000000000000000000000000000000000000000000000000000000000
ENDCHAR
STARTCHAR 00C4
ENCODING 196
SWIDTH 400 0
DWIDTH 12 0
BBX 12 17 0 0
BITMAP
1980
0000
0000
0600
0600
0900
0900
0900
1080
1080
2080
3FC0
2040
4020
4020
4020
8010
ENDCHAR
STARTCHAR 00C5
ENCODING 197
SWIDTH 400 0
DWIDTH 12 0
BBX 12 24 0 0
BITMAP
0180
0140
0240
0240
0240
0240
0240
0240
0180
0000
0600
0600
0900
0900
0900
1080
1080
2080
3FC0
2040
4020
4020
4020
8010
ENDCHAR
STARTCHAR 00C6
ENCODING 198
SWIDTH 566 0
DWIDTH 17 0
BBX 16 14 0 0
BITMAP
01FF
0180
0280
0280
0440
0840
087F
1FC0
1040
2040
2060
4020
4020
803F
ENDCHAR
STARTCHAR 00C7
ENCODING 199
SWIDTH 400 0
DWIDTH 12 0
BBX 10 18 1 -4
BITMAP
0FC0
3040
6000
C000
8000
8000
8000
8000
8000
8000
C000
6000
3040
0FC0
0400
0C00
0200
1C00
ENDCHAR
STARTCHAR 00C8
ENCODING 200
SWIDTH 366 0
DWIDTH 11 0
BBX 162 18 2 0
BITMAP
000000000000000000000000000000000000000080
000000000000000000000000000000000000000040
000000000000000000000000000000000000000000
000000000000000000000000000000000000000000
FE0000000000000000000000000000000000000000
800000000000000000000000000000000000000000
800000000000000000000000000000000000000000
800000000000000000000000000000000000000000
800000000000000000000000000000000000000000
800000000000000000000000000000000000000000
FE0000000000000000000000000000000000000000
800000000000000000000000000000000000000000
800000000000000000000000000000000000000000
800000000000000000000000000000000000000000
800000000000000000000000000000000000000000
800000000000000000000000000000000000000000
800000000000000000000000000000000000000000
FE0000000000000000000000000000000000000000
ENDCHAR
STARTCHAR 00C9
ENCODING 201
SWIDTH 366 0
DWIDTH 11 0
BBX 175 18 2 0
BITMAP
00000000000000000000000000000000000000000002
00000000000000000000000000000000000000000002
00000000000000000000000000000000000000000000
00000000000000000000000000000000000000000000
FE000000000000000000000000000000000000000000
80000000000000000000000000000000000000000000
80000000000000000000000000000000000000000000
80000000000000000000000000000000000000000000
80000000000000000000000000000000000000000000
80000000000000000000000000000000000000000000
FE000000000000000000000000000000000000000000
80000000000000000000000000000000000000000000
80000000000000000000000000000000000000000000
80000000000000000000000000000000000000000000
80000000000000000000000000000000000000000000
80000000000000000000000000000000000000000000
80000000000000000000000000000000000000000000
FE000000000000000000000000000000000000000000
ENDCHAR
STARTCHAR 00CA
ENCODING 202
SWIDTH 366 0
DWIDTH 11 0
BBX 27 39 2 0
BITMAP
00000080
00000080
00000080
000000C0
000000C0
000000C0
000000C0
000000C0
000000C0
000001C0
000001C0
000001C0
000001C0
000001C0
000001E0
000001E0
000001E0
000001E0
000001E0
000001E0
000001E0
000003E0
00000320
00000000
00000000
FE000000
80000000
80000000
80000000
80000000
80000000
FE000000
80000000
80000000
80000000
80000000
80000000
80000000
FE000000
ENDCHAR
STARTCHAR 00CB
ENCODING 203
SWIDTH 366 0
DWIDTH 11 0
BBX 7 17 2 0
BITMAP
CC
00
00
FE
80
80
80
80
80
FE
80
80
80
80
80
80
FE
ENDCHAR
STARTCHAR 00CC
ENCODING 204
SWIDTH 133 0
DWIDTH 4 0
BBX 159 18 2 0
BITMAP
0000000000000000000000000000000000000004
0000000000000000000000000000000000000004
0000000000000000000000000000000000000002
0000000000000000000000000000000000000000
8000000000000000000000000000000000000000
8000000000000000000000000000000000000000
8000000000000000000000000000000000000000
8000000000000000000000000000000000000000
8000000000000000000000000000000000000000
8000000000000000000000000000000000000000
8000000000000000000000000000000000000000
8000000000000000000000000000000000000000
8000000000000000000000000000000000000000
8000000000000000000000000000000000000000
8000000000000000000000000000000000000000
8000000000000000000000000000000000000000
8000000000000000000000000000000000000000
8000000000000000000000000000000000000000
ENDCHAR
STARTCHAR 00CD
ENCODING 205
SWIDTH 133 0
DWIDTH 4 0
BBX 172 18 2 0
BITMAP
00000000000000000000000000000000000000000010
00000000000000000000000000000000000000000010
00000000000000000000000000000000000000000000
00000000000000000000000000000000000000000000
80000000000000000000000000000000000000000000
80000000000000000000000000000000000000000000
80000000000000000000000000000000000000000000
80000000000000000000000000000000000000000000
80000000000000000000000000000000000000000000
80000000000000000000000000000000000000000000
80000000000000000000000000000000000000000000
80000000000000000000000000000000000000000000
80000000000000000000000000000000000000000000
80000000000000000000000000000000000000000000
80000000000000000000000000000000000000000000
80000000000000000000000000000000000000000000
80000000000000000000000000000000000000000000
80000000000000000000000000000000000000000000
ENDCHAR
STARTCHAR 00CE
ENCODING 206
SWIDTH 133 0
DWIDTH 4 0
BBX 25 39 2 0
BITMAP
00000200
00000200
00000200
00000600
00000600
00000600
00000600
00000600
00000600
00000600
00000700
00000700
00000700
00000700
00000F00
00000F00
00000F00
00000F00
00000F00
00000F00
00000F00
00000F80
00000980
00000000
00000000
80000000
80000000
80000000
80000000
80000000
80000000
80000000
80000000
80000000
80000000
80000000
80000000
80000000
80000000
ENDCHAR
STARTCHAR 00CF
ENCODING 207
SWIDTH 133 0
DWIDTH 4 0
BBX 5 17 0 0
BITMAP
C8
00
00
20
20
20
20
20
20
20
20
20
20
20
20
20
20
ENDCHAR
STARTCHAR 00D0
ENCODING 208
SWIDTH 433 0
DWIDTH 13 0
BBX 12 14 0 0
BITMAP
3F80
20C0
2020
2020
2010
2010
2010
FF10
2010
2010
2020
2060
20C0
3F00
ENDCHAR
STARTCHAR 00D1
ENCODING 209
SWIDTH 433 0
DWIDTH 13 0
BBX 237 95 2 0
BITMAP
000000000000000000000000000000000000000000000000000000000068
000000000000000000000000000000000000000000000000000000000078
000000000000000000000000000000000000000000000000000000000078
000000000000000000000000000000000000000000000000000000000078
000000000000000000000000000000000000000000000000000000000078
000000000000000000000000000000000000000000000000000000000078
000000000000000000000000000000000000000000000000000000000078
000000000000000000000000000000000000000000000000000000000078
000000000000000000000000000000000000000000000000000000000078
000000000000000000000000000000000000000000000000000000000078
000000000000000000000000000000000000000000000000000000000078
000000000000000000000000000000000000000000000000000000000078
000000000000000000000000000000000000000000000000000000000078
0000000000000000000000000000000000000000000000000000000000F8
0000000000000000000000000000000000000000000000000000000000F8
0000000000000000000000000000000000000000000000000000000000F8
0000000000000000000000000000000000000000000000000000000000F8
0000000000000000000000000000000000000000000000000000000000F8
0000000000000000000000000000000000000000000000000000000000F8
0000000000000000000000000000000000000000000000000000000000F8
0000000000000000000000000000000000000000000000000000000000F8
0000000000000000000000000000000000000000000000000000000000F8
0000000000000000000000000000000000000000000000000000000000F8
0000000000000000000000000000000000000000000000000000000000F8
0000000000000000000000000000000000000000000000000000000000F8
0000000000000000000000000000000000000000000000000000000000F8
0000000000000000000000000000000000000000000000000000000000F8
0000000000000000000000000000000000000000000000000000000000F8
0000000000000000000000000000000000000000000000000000000000F8
0000000000000000000000000000000000000000000000000000000000F8
0000000000000000000000000000000000000000000000000000000000F8
0000000000000000000000000000000000000000000000000000000000F8
0000000000000000000000000000000000000000000000000000000000F8
0000000000000000000000000000000000000000000000000000000000F8
0000000000000000000000000000000000000000000000000000000000F8
0000000000000000000000000000000000000000000000000000000000F8
0000000000000000000000000000000000000000000000000000000000F8
0000000000000000000000000000000000000000000000000000000000F8
0000000000000000000000000000000000000000000000000000000000F8
0000000000000000000000000000000000000000000000000000000000F8
0000000000000000000000000000000000000000000000000000000000F8
0000000000000000000000000000000000000000000000000000000000F8
0000000000000000000000000000000000000000000000000000000000F8
0000000000000000000000000000000000000000000000000000000000F8
0000000000000000000000000000000000000000000000000000000000F8
0000000000000000000000000000000000000000000000000000000000F8
0000000000000000000000000000000000000000000000000000000000F8
0000000000000000000000000000000000000000000000000000000000F8
0000000000000000000000000000000000000000000000000000000000F8
0000000000000000000000000000000000000000000000000000000000F8
0000000000000000000000000000000000000000000000000000000000F8
0000000000000000000000000000000000000000000000000000000000F8
0000000000000000000000000000000000000000000000000000000000F8
0000000000000000000000000000000000000000000000000000000000F8
0000000000000000000000000000000000000000000000000000000000F8
0000000000000000000000000000000000000000000000000000000000F8
0000000000000000000000000000000000000000000000000000000000F8
0000000000000000000000000000000000000000000000000000000000F8
0000000000000000000000000000000000000000000000000000000000F8
0000000000000000000000000000000000000000000000000000000000F8
0000000000000000000000000000000000000000000000000000000000F8
0000000000000000000000000000000000000000000000000000000000F8
0000000000000000000000000000000000000000000000000000000000F8
0000000000000000000000000000000000000000000000000000000000F8
0000000000000000000000000000000000000000000000000000000000F8
0000000000000000000000000000000000000000000000000000000000F8
0000000000000000000000000000000000000000000000000000000000F8
0000000000000000000000000000000000000000000000000000000000F8
0000000000000000000000000000000000000000000000000000000000F8
0000000000000000000000000000000000000000000000000000000000F8
0000000000000000000000000000000000000000000000000000000000F8
0000000000000000000000000000000000000000000000000000000000F8
0000000000000000000000000000000000000000000000000000000000F0
0000000000000000000000000000000000000000000000000000000000F0
0000000000000000000000000000000000000000000000000000000000F0
0000000000000000000000000000000000000000000000000000000000F0
0000000000000000000000000000000000000000000000000000000000F0
0000000000000000000000000000000000000000000000000000000000F0
0000000000000000000000000000000000000000000000000000000000B0
000000000000000000000000000000000000000000000000000000000000
000000000000000000000000000000000000000000000000000000000000
80C000000000000000000000000000000000000000000000000000000000
C0C000000000000000000000000000000000000000000000000000000000
C0C000000000000000000000000000000000000000000000000000000000
A0C000000000000000000000000000000000000000000000000000000000
90C000000000000000000000000000000000000000000000000000000000
90C000000000000000000000000000000000000000000000000000000000
88C000000000000000000000000000000000000000000000000000000000
88C000000000000000000000000000000000000000000000000000000000
84C000000000000000000000000000000000000000000000000000000000
82C000000000000000000000000000000000000000000000000000000000
82C000000000000000000000000000000000000000000000000000000000
81C000000000000000000000000000000000000000000000000000000000
81C000000000000000000000000000000000000000000000000000000000
80C000000000000000000000000000000000000000000000000000000000
ENDCHAR
STARTCHAR 00D2
ENCODING 210
SWIDTH 500 0
DWIDTH 15 0
BBX 165 18 1 0
BITMAP
000000000000000000000000000000000000000010
000000000000000000000000000000000000000008
000000000000000000000000000000000000000000
000000000000000000000000000000000000000000
0F8000000000000000000000000000000000000000
306000000000000000000000000000000000000000
603000000000000000000000000000000000000000
C01000000000000000000000000000000000000000
801800000000000000000000000000000000000000
800800000000000000000000000000000000000000
800800000000000000000000000000000000000000
800800000000000000000000000000000000000000
800800000000000000000000000000000000000000
801800000000000000000000000000000000000000
C01000000000000000000000000000000000000000
603000000000000000000000000000000000000000
306000000000000000000000000000000000000000
0F8000000000000000000000000000000000000000
ENDCHAR
STARTCHAR 00D3
ENCODING 211
SWIDTH 500 0
DWIDTH 15 0
BBX 178 18 1 0
BITMAP
0000000000000000000000000000000000000000000040
0000000000000000000000000000000000000000000040
0000000000000000000000000000000000000000000000
0000000000000000000000000000000000000000000000
0F80000000000000000000000000000000000000000000
3060000000000000000000000000000000000000000000
6030000000000000000000000000000000000000000000
C010000000000000000000000000000000000000000000
8018000000000000000000000000000000000000000000
8008000000000000000000000000000000000000000000
8008000000000000000000000000000000000000000000
8008000000000000000000000000000000000000000000
8008000000000000000000000000000000000000000000
8018000000000000000000000000000000000000000000
C010000000000000000000000000000000000000000000
6030000000000000000000000000000000000000000000
3060000000000000000000000000000000000000000000
0F80000000000000000000000000000000000000000000
ENDCHAR
STARTCHAR 00D4
ENCODING 212
SWIDTH 500 0
DWIDTH 15 0
BBX 30 39 1 0
BITMAP
00000010
00000010
00000010
00000018
00000018
00000018
00000018
00000018
00000018
00000018
00000038
00000038
00000038
00000038
0000003C
0000003C
0000003C
0000003C
0000003C
0000003C
0000003C
0000007C
00000064
00000000
00000000
0F800000
30600000
60300000
C0100000
80180000
80080000
80080000
80080000
80080000
80180000
C0100000
60300000
30600000
0F800000
ENDCHAR
STARTCHAR 00D5
ENCODING 213
SWIDTH 500 0
DWIDTH 15 0
BBX 239 95 1 0
BITMAP
000000000000000000000000000000000000000000000000000000000012
00000000000000000000000000000000000000000000000000000000001E
00000000000000000000000000000000000000000000000000000000001E
00000000000000000000000000000000000000000000000000000000001E
00000000000000000000000000000000000000000000000000000000003E
00000000000000000000000000000000000000000000000000000000003E
00000000000000000000000000000000000000000000000000000000003E
00000000000000000000000000000000000000000000000000000000003E
00000000000000000000000000000000000000000000000000000000003E
00000000000000000000000000000000000000000000000000000000003E
00000000000000000000000000000000000000000000000000000000003E
00000000000000000000000000000000000000000000000000000000003E
00000000000000000000000000000000000000000000000000000000003E
00000000000000000000000000000000000000000000000000000000003E
00000000000000000000000000000000000000000000000000000000003E
00000000000000000000000000000000000000000000000000000000003E
00000000000000000000000000000000000000000000000000000000003E
00000000000000000000000000000000000000000000000000000000003E
00000000000000000000000000000000000000000000000000000000003E
00000000000000000000000000000000000000000000000000000000003E
00000000000000000000000000000000000000000000000000000000003E
00000000000000000000000000000000000000000000000000000000003E
00000000000000000000000000000000000000000000000000000000003E
00000000000000000000000000000000000000000000000000000000003E
00000000000000000000000000000000000000000000000000000000003E
00000000000000000000000000000000000000000000000000000000003E
00000000000000000000000000000000000000000000000000000000003E
00000000000000000000000000000000000000000000000000000000003E
00000000000000000000000000000000000000000000000000000000003E
00000000000000000000000000000000000000000000000000000000003E
00000000000000000000000000000000000000000000000000000000003E
00000000000000000000000000000000000000000000000000000000003E
00000000000000000000000000000000000000000000000000000000003E
00000000000000000000000000000000000000000000000000000000003E
00000000000000000000000000000000000000000000000000000000003E
00000000000000000000000000000000000000000000000000000000003E
00000000000000000000000000000000000000000000000000000000003E
00000000000000000000000000000000000000000000000000000000003E
00000000000000000000000000000000000000000000000000000000003E
00000000000000000000000000000000000000000000000000000000003E
00000000000000000000000000000000000000000000000000000000003E
00000000000000000000000000000000000000000000000000000000003E
00000000000000000000000000000000000000000000000000000000003E
00000000000000000000000000000000000000000000000000000000003E
00000000000000000000000000000000000000000000000000000000003E
00000000000000000000000000000000000000000000000000000000003E
00000000000000000000000000000000000000000000000000000000003E
00000000000000000000000000000000000000000000000000000000003E
00000000000000000000000000000000000000000000000000000000003E
00000000000000000000000000000000000000000000000000000000003E
00000000000000000000000000000000000000000000000000000000003E
00000000000000000000000000000000000000000000000000000000003E
00000000000000000000000000000000000000000000000000000000003E
00000000000000000000000000000000000000000000000000000000003E
00000000000000000000000000000000000000000000000000000000003E
00000000000000000000000000000000000000000000000000000000003E
00000000000000000000000000000000000000000000000000000000003E
00000000000000000000000000000000000000000000000000000000003E
00000000000000000000000000000000000000000000000000000000003E
00000000000000000000000000000000000000000000000000000000003E
00000000000000000000000000000000000000000000000000000000003C
00000000000000000000000000000000000000000000000000000000003C
00000000000000000000000000000000000000000000000000000000003C
00000000000000000000000000000000000000000000000000000000003C
00000000000000000000000000000000000000000000000000000000003C
00000000000000000000000000000000000000000000000000000000003C
00000000000000000000000000000000000000000000000000000000003C
00000000000000000000000000000000000000000000000000000000003C
00000000000000000000000000000000000000000000000000000000003C
00000000000000000000000000000000000000000000000000000000003C
00000000000000000000000000000000000000000000000000000000003C
00000000000000000000000000000000000000000000000000000000003C
00000000000000000000000000000000000000000000000000000000003C
00000000000000000000000000000000000000000000000000000000003C
00000000000000000000000000000000000000000000000000000000003C
00000000000000000000000000000000000000000000000000000000003C
00000000000000000000000000000000000000000000000000000000003C
00000000000000000000000000000000000000000000000000000000003C
00000000000000000000000000000000000000000000000000000000004C
000000000000000000000000000000000000000000000000000000000000
000000000000000000000000000000000000000000000000000000000000
0F8000000000000000000000000000000000000000000000000000000000
306000000000000000000000000000000000000000000000000000000000
603000000000000000000000000000000000000000000000000000000000
C01000000000000000000000000000000000000000000000000000000000
801800000000000000000000000000000000000000000000000000000000
800800000000000000000000000000000000000000000000000000000000
800800000000000000000000000000000000000000000000000000000000
800800000000000000000000000000000000000000000000000000000000
800800000000000000000000000000000000000000000000000000000000
801800000000000000000000000000000000000000000000000000000000
C01000000000000000000000000000000000000000000000000000000000
603000000000000000000000000000000000000000000000000000000000
306000000000000000000000000000000000000000000000000000000000
0F8000000000000000000000000000000000000000000000000000000000
ENDCHAR
STARTCHAR 00D6
ENCODING 214
SWIDTH 500 0
DWIDTH 15 0
BBX 13 17 1 0
BITMAP
1980
0000
0000
0F80
3060
6030
C010
8018
8008
8008
8008
8008
8018
C010
6030
3060
0F80
ENDCHAR
STARTCHAR 00D7
ENCODING 215
SWIDTH 400 0
DWIDTH 12 0
BBX 10 10 1 0
BITMAP
4040
E080
3100
1A00
0C00
0C00
1A00
3100
6080
C040
ENDCHAR
STARTCHAR 00D8
ENCODING 216
SWIDTH 500 0
DWIDTH 15 0
BBX 13 16 1 -1
BITMAP
0060
0FC0
3060
60B0
C090
8118
8108
8208
8208
8408
8410
C810
4820
3040
1F80
2000
ENDCHAR
STARTCHAR 00D9
ENCODING 217
SWIDTH 466 0
DWIDTH 14 0
BBX 163 18 2 0
BITMAP
000000000000000000000000000000000000000040
000000000000000000000000000000000000000020
000000000000000000000000000000000000000000
000000000000000000000000000000000000000000
804000000000000000000000000000000000000000
804000000000000000000000000000000000000000
804000000000000000000000000000000000000000
804000000000000000000000000000000000000000
804000000000000000000000000000000000000000
804000000000000000000000000000000000000000
804000000000000000000000000000000000000000
804000000000000000000000000000000000000000
804000000000000000000000000000000000000000
804000000000000000000000000000000000000000
804000000000000000000000000000000000000000
C0C000000000000000000000000000000000000000
618000000000000000000000000000000000000000
3F0000000000000000000000000000000000000000
ENDCHAR
STARTCHAR 00DA
ENCODING 218
SWIDTH 466 0
DWIDTH 14 0
BBX 177 18 2 0
BITMAP
0000000000000000000000000000000000000000000080
0000000000000000000000000000000000000000000080
0000000000000000000000000000000000000000000000
0000000000000000000000000000000000000000000000
8040000000000000000000000000000000000000000000
8040000000000000000000000000000000000000000000
8040000000000000000000000000000000000000000000
8040000000000000000000000000000000000000000000
8040000000000000000000000000000000000000000000
8040000000000000000000000000000000000000000000
8040000000000000000000000000000000000000000000
8040000000000000000000000000000000000000000000
8040000000000000000000000000000000000000000000
8040000000000000000000000000000000000000000000
8040000000000000000000000000000000000000000000
C0C0000000000000000000000000000000000000000000
6180000000000000000000000000000000000000000000
3F00000000000000000000000000000000000000000000
ENDCHAR
STARTCHAR 00DB
ENCODING 219
SWIDTH 466 0
DWIDTH 14 0
BBX 29 39 2 0
BITMAP
00000020
00000020
00000020
00000020
00000020
00000020
00000030
00000070
00000070
00000070
00000070
00000070
00000070
00000070
00000070
00000070
00000070
00000078
000000F8
000000F8
000000F8
000000D8
000000D8
00000000
00000000
80400000
80400000
80400000
80400000
80400000
80400000
80400000
80400000
80400000
80400000
80400000
C0C00000
61800000
3F000000
ENDCHAR
STARTCHAR 00DC
ENCODING 220
SWIDTH 466 0
DWIDTH 14 0
BBX 10 17 2 0
BITMAP
3300
0000
0000
8040
8040
8040
8040
8040
8040
8040
8040
8040
8040
8040
C0C0
6180
3F00
ENDCHAR
STARTCHAR 00DD
ENCODING 221
SWIDTH 366 0
DWIDTH 11 0
BBX 178 18 0 0
BITMAP
0000000000000000000000000000000000000000000040
0000000000000000000000000000000000000000000080
0000000000000000000000000000000000000000000000
0000000000000000000000000000000000000000000000
C060000000000000000000000000000000000000000000
4040000000000000000000000000000000000000000000
2080000000000000000000000000000000000000000000
2180000000000000000000000000000000000000000000
1100000000000000000000000000000000000000000000
1B00000000000000000000000000000000000000000000
0A00000000000000000000000000000000000000000000
0400000000000000000000000000000000000000000000
0400000000000000000000000000000000000000000000
0400000000000000000000000000000000000000000000
0400000000000000000000000000000000000000000000
0400000000000000000000000000000000000000000000
0400000000000000000000000000000000000000000000
0400000000000000000000000000000000000000000000
ENDCHAR
STARTCHAR 00DE
ENCODING 222
SWIDTH 366 0
DWIDTH 11 0
BBX 9 14 2 0
BITMAP
8000
8000
FC00
8200
8100
8100
8180
8100
8100
8600
FC00
8000
8000
8000
ENDCHAR
STARTCHAR 00DF
ENCODING 223
SWIDTH 400 0
DWIDTH 12 0
BBX 10 19 1 -4
BITMAP
1E00
2100
6180
4080
4100
4300
4200
4200
4300
4180
4080
4040
40C0
4080
5F00
4000
4000
4000
C000
ENDCHAR
STARTCHAR 00E0
ENCODING 224
SWIDTH 333 0
DWIDTH 10 0
BBX 163 14 1 0
BITMAP
000000000000000000000000000000000000000040
000000000000000000000000000000000000000040
000000000000000000000000000000000000000020
000000000000000000000000000000000000000000
FC0000000000000000000000000000000000000000
820000000000000000000000000000000000000000
030000000000000000000000000000000000000000
010000000000000000000000000000000000000000
3F0000000000000000000000000000000000000000
610000000000000000000000000000000000000000
810000000000000000000000000000000000000000
830000000000000000000000000000000000000000
870000000000000000000000000000000000000000
790000000000000000000000000000000000000000
ENDCHAR
STARTCHAR 00E1
ENCODING 225
SWIDTH 333 0
DWIDTH 10 0
BBX 176 14 1 0
BITMAP
00000000000000000000000000000000000000000001
00000000000000000000000000000000000000000001
00000000000000000000000000000000000000000000
00000000000000000000000000000000000000000000
FC000000000000000000000000000000000000000000
82000000000000000000000000000000000000000000
03000000000000000000000000000000000000000000
01000000000000000000000000000000000000000000
3F000000000000000000000000000000000000000000
61000000000000000000000000000000000000000000
81000000000000000000000000000000000000000000
83000000000000000000000000000000000000000000
87000000000000000000000000000000000000000000
79000000000000000000000000000000000000000000
ENDCHAR
STARTCHAR 00E2
ENCODING 226
SWIDTH 333 0
DWIDTH 10 0
BBX 28 35 1 0
BITMAP
00000040
00000040
00000040
00000040
00000060
00000060
00000060
00000060
00000060
000000E0
000000E0
000000E0
000000E0
000000E0
000000E0
000000F0
000000F0
000000F0
000000F0
000000F0
000001F0
000001F0
00000190
00000000
00000000
FC000000
82000000
03000000
01000000
3F000000
61000000
81000000
83000000
87000000
79000000
ENDCHAR
STARTCHAR 00E3
ENCODING 227
SWIDTH 333 0
DWIDTH 10 0
BBX 237 91 1 0
BITMAP
000000000000000000000000000000000000000000000000000000000048
000000000000000000000000000000000000000000000000000000000078
0000000000000000000000000000000000000000000000000000000000F8
0000000000000000000000000000000000000000000000000000000000F8
0000000000000000000000000000000000000000000000000000000000F8
0000000000000000000000000000000000000000000000000000000000F8
0000000000000000000000000000000000000000000000000000000000F8
0000000000000000000000000000000000000000000000000000000000F8
0000000000000000000000000000000000000000000000000000000000F8
0000000000000000000000000000000000000000000000000000000000F8
0000000000000000000000000000000000000000000000000000000000F8
0000000000000000000000000000000000000000000000000000000000F8
0000000000000000000000000000000000000000000000000000000000F8
0000000000000000000000000000000000000000000000000000000000F8
0000000000000000000000000000000000000000000000000000000000F8
0000000000000000000000000000000000000000000000000000000000F8
0000000000000000000000000000000000000000000000000000000000F8
0000000000000000000000000000000000000000000000000000000000F8
0000000000000000000000000000000000000000000000000000000000F8
0000000000000000000000000000000000000000000000000000000000F8
0000000000000000000000000000000000000000000000000000000000F8
0000000000000000000000000000000000000000000000000000000000F8
0000000000000000000000000000000000000000000000000000000000F8
0000000000000000000000000000000000000000000000000000000000F8
0000000000000000000000000000000000000000000000000000000000F8
0000000000000000000000000000000000000000000000000000000000F8
0000000000000000000000000000000000000000000000000000000000F8
0000000000000000000000000000000000000000000000000000000000F8
0000000000000000000000000000000000000000000000000000000000F8
0000000000000000000000000000000000000000000000000000000000F8
0000000000000000000000000000000000000000000000000000000000F8
0000000000000000000000000000000000000000000000000000000000F8
0000000000000000000000000000000000000000000000000000000000F8
0000000000000000000000000000000000000000000000000000000000F8
0000000000000000000000000000000000000000000000000000000000F8
0000000000000000000000000000000000000000000000000000000000F8
0000000000000000000000000000000000000000000000000000000000F8
0000000000000000000000000000000000000000000000000000000000F8
0000000000000000000000000000000000000000000000000000000000F8
0000000000000000000000000000000000000000000000000000000000F8
0000000000000000000000000000000000000000000000000000000000F8
0000000000000000000000000000000000000000000000000000000000F8
0000000000000000000000000000000000000000000000000000000000F8
0000000000000000000000000000000000000000000000000000000000F8
0000000000000000000000000000000000000000000000000000000000F8
0000000000000000000000000000000000000000000000000000000000F8
0000000000000000000000000000000000000000000000000000000000F8
0000000000000000000000000000000000000000000000000000000000F8
0000000000000000000000000000000000000000000000000000000000F8
0000000000000000000000000000000000000000000000000000000000F8
0000000000000000000000000000000000000000000000000000000000F0
0000000000000000000000000000000000000000000000000000000000F0
0000000000000000000000000000000000000000000000000000000000F0
0000000000000000000000000000000000000000000000000000000000F0
0000000000000000000000000000000000000000000000000000000000F0
0000000000000000000000000000000000000000000000000000000000F0
0000000000000000000000000000000000000000000000000000000001F0
0000000000000000000000000000000000000000000000000000000001F0
0000000000000000000000000000000000000000000000000000000001F0
0000000000000000000000000000000000000000000000000000000001F0
0000000000000000000000000000000000000000000000000000000001F0
0000000000000000000000000000000000000000000000000000000001F0
0000000000000000000000000000000000000000000000000000000001F0
0000000000000000000000000000000000000000000000000000000001F0
0000000000000000000000000000000000000000000000000000000001F0
0000000000000000000000000000000000000000000000000000000001F0
0000000000000000000000000000000000000000000000000000000001F0
0000000000000000000000000000000000000000000000000000000001F0
0000000000000000000000000000000000000000000000000000000001F0
0000000000000000000000000000000000000000000000000000000001F0
0000000000000000000000000000000000000000000000000000000001F0
0000000000000000000000000000000000000000000000000000000001F0
0000000000000000000000000000000000000000000000000000000001F0
0000000000000000000000000000000000000000000000000000000001F0
0000000000000000000000000000000000000000000000000000000001F0
0000000000000000000000000000000000000000000000000000000001F0
0000000000000000000000000000000000000000000000000000000001F0
0000000000000000000000000000000000000000000000000000000001F0
000000000000000000000000000000000000000000000000000000000120
000000000000000000000000000000000000000000000000000000000000
000000000000000000000000000000000000000000000000000000000000
FC0000000000000000000000000000000000000000000000000000000000
820000000000000000000000000000000000000000000000000000000000
030000000000000000000000000000000000000000000000000000000000
010000000000000000000000000000000000000000000000000000000000
3F0000000000000000000000000000000000000000000000000000000000
610000000000000000000000000000000000000000000000000000000000
810000000000000000000000000000000000000000000000000000000000
830000000000000000000000000000000000000000000000000000000000
870000000000000000000000000000000000000000000000000000000000
790000000000000000000000000000000000000000000000000000000000
ENDCHAR
STARTCHAR 00E4
ENCODING 228
SWIDTH 333 0
DWIDTH 10 0
BBX 8 13 1 0
BITMAP
66
00
00
FC
82
03
01
3F
61
81
83
87
79
ENDCHAR
STARTCHAR 00E5
ENCODING 229
SWIDTH 333 0
DWIDTH 10 0
BBX 9 20 1 0
BITMAP
0600
0500
0900
0900
0900
0980
0900
0500
0600
0000
FC00
8200
0300
0100
3F00
6100
8100
8300
8700
7900
ENDCHAR
STARTCHAR 00E6
ENCODING 230
SWIDTH 600 0
DWIDTH 18 0
BBX 16 10 1 0
BITMAP
FC7C
8282
0383
0101
3FFF
6100
8100
8300
86C1
787E
ENDCHAR
STARTCHAR 00E7
ENCODING 231
SWIDTH 333 0
DWIDTH 10 0
BBX 8 14 1 -4
BITMAP
1F
61
C0
80
80
80
80
C0
61
1F
08
18
2C
18
ENDCHAR
STARTCHAR 00E8
ENCODING 232
SWIDTH 366 0
DWIDTH 11 0
BBX 163 14 1 0
BITMAP
000000000000000000000000000000000000000040
000000000000000000000000000000000000000020
000000000000000000000000000000000000000000
000000000000000000000000000000000000000000
1E0000000000000000000000000000000000000000
610000000000000000000000000000000000000000
C08000000000000000000000000000000000000000
808000000000000000000000000000000000000000
FF8000000000000000000000000000000000000000
800000000000000000000000000000000000000000
800000000000000000000000000000000000000000
C00000000000000000000000000000000000000000
608000000000000000000000000000000000000000
1F0000000000000000000000000000000000000000
ENDCHAR
STARTCHAR 00E9
ENCODING 233
SWIDTH 366 0
DWIDTH 11 0
BBX 177 14 1 0
BITMAP
0000000000000000000000000000000000000000000180
0000000000000000000000000000000000000000000100
0000000000000000000000000000000000000000000000
0000000000000000000000000000000000000000000000
1E00000000000000000000000000000000000000000000
6100000000000000000000000000000000000000000000
C080000000000000000000000000000000000000000000
8080000000000000000000000000000000000000000000
FF80000000000000000000000000000000000000000000
8000000000000000000000000000000000000000000000
8000000000000000000000000000000000000000000000
C000000000000000000000000000000000000000000000
6080000000000000000000000000000000000000000000
1F00000000000000000000000000000000000000000000
ENDCHAR
STARTCHAR 00EA
ENCODING 234
SWIDTH 366 0
DWIDTH 11 0
BBX 29 35 1 0
BITMAP
00000020
00000020
00000060
00000060
00000060
00000060
00000060
00000060
00000060
00000060
00000070
00000070
00000070
00000070
000000F0
000000F0
000000F0
000000F0
000000F0
000000F0
000000F0
000000F8
00000098
00000000
00000000
1E000000
61000000
C0800000
80800000
FF800000
80000000
80000000
C0000000
60800000
1F000000
ENDCHAR
STARTCHAR 00EB
ENCODING 235
SWIDTH 366 0
DWIDTH 11 0
BBX 9 13 1 0
BITMAP
3200
0000
0000
1E00
6100
C080
8080
FF80
8000
8000
C000
6080
1F00
ENDCHAR
STARTCHAR 00EC
ENCODING 236
SWIDTH 133 0
DWIDTH 4 0
BBX 159 14 2 0
BITMAP
0000000000000000000000000000000000000004
0000000000000000000000000000000000000004
0000000000000000000000000000000000000002
0000000000000000000000000000000000000000
8000000000000000000000000000000000000000
8000000000000000000000000000000000000000
8000000000000000000000000000000000000000
8000000000000000000000000000000000000000
8000000000000000000000000000000000000000
8000000000000000000000000000000000000000
8000000000000000000000000000000000000000
8000000000000000000000000000000000000000
8000000000000000000000000000000000000000
8000000000000000000000000000000000000000
ENDCHAR
STARTCHAR 00ED
ENCODING 237
SWIDTH 133 0
DWIDTH 4 0
BBX 172 14 2 0
BITMAP
00000000000000000000000000000000000000000010
00000000000000000000000000000000000000000010
00000000000000000000000000000000000000000000
00000000000000000000000000000000000000000000
80000000000000000000000000000000000000000000
80000000000000000000000000000000000000000000
80000000000000000000000000000000000000000000
80000000000000000000000000000000000000000000
80000000000000000000000000000000000000000000
80000000000000000000000000000000000000000000
80000000000000000000000000000000000000000000
80000000000000000000000000000000000000000000
80000000000000000000000000000000000000000000
80000000000000000000000000000000000000000000
ENDCHAR
STARTCHAR 00EE
ENCODING 238
SWIDTH 133 0
DWIDTH 4 0
BBX 25 35 2 0
BITMAP
00000200
00000200
00000600
00000600
00000600
00000600
00000600
00000600
00000600
00000600
00000600
00000700
00000700
00000F00
00000F00
00000F00
00000F00
00000F00
00000F00
00000F00
00000F00
00000F00
00000980
00000000
00000000
80000000
80000000
80000000
80000000
80000000
80000000
80000000
80000000
80000000
80000000
ENDCHAR
STARTCHAR 00EF
ENCODING 239
SWIDTH 133 0
DWIDTH 4 0
BBX 5 13 0 0
BITMAP
C8
00
00
20
20
20
20
20
20
20
20
20
20
ENDCHAR
STARTCHAR 00F0
ENCODING 240
SWIDTH 366 0
DWIDTH 11 0
BBX 9 14 1 0
BITMAP
6200
1F00
1C00
3600
0200
3D00
6300
4180
8180
8180
8100
C100
6300
3C00
ENDCHAR
STARTCHAR 00F1
ENCODING 241
SWIDTH 400 0
DWIDTH 12 0
BBX 237 91 1 0
BITMAP
000000000000000000000000000000000000000000000000000000000068
000000000000000000000000000000000000000000000000000000000078
000000000000000000000000000000000000000000000000000000000078
000000000000000000000000000000000000000000000000000000000078
000000000000000000000000000000000000000000000000000000000078
000000000000000000000000000000000000000000000000000000000078
000000000000000000000000000000000000000000000000000000000078
000000000000000000000000000000000000000000000000000000000078
000000000000000000000000000000000000000000000000000000000078
000000000000000000000000000000000000000000000000000000000078
000000000000000000000000000000000000000000000000000000000078
000000000000000000000000000000000000000000000000000000000078
000000000000000000000000000000000000000000000000000000000078
000000000000000000000000000000000000000000000000000000000078
000000000000000000000000000000000000000000000000000000000078
000000000000000000000000000000000000000000000000000000000078
000000000000000000000000000000000000000000000000000000000078
000000000000000000000000000000000000000000000000000000000078
000000000000000000000000000000000000000000000000000000000078
000000000000000000000000000000000000000000000000000000000078
000000000000000000000000000000000000000000000000000000000078
000000000000000000000000000000000000000000000000000000000078
000000000000000000000000000000000000000000000000000000000078
0000000000000000000000000000000000000000000000000000000000F8
0000000000000000000000000000000000000000000000000000000000F8
0000000000000000000000000000000000000000000000000000000000F8
0000000000000000000000000000000000000000000000000000000000F8
0000000000000000000000000000000000000000000000000000000000F8
0000000000000000000000000000000000000000000000000000000000F8
0000000000000000000000000000000000000000000000000000000000F8
0000000000000000000000000000000000000000000000000000000000F8
0000000000000000000000000000000000000000000000000000000000F8
0000000000000000000000000000000000000000000000000000000000F8
0000000000000000000000000000000000000000000000000000000000F8
0000000000000000000000000000000000000000000000000000000000F8
0000000000000000000000000000000000000000000000000000000000F8
0000000000000000000000000000000000000000000000000000000000F8
0000000000000000000000000000000000000000000000000000000000F8
0000000000000000000000000000000000000000000000000000000000F8
0000000000000000000000000000000000000000000000000000000000F8
0000000000000000000000000000000000000000000000000000000000F8
0000000000000000000000000000000000000000000000000000000000F8
0000000000000000000000000000000000000000000000000000000000F8
0000000000000000000000000000000000000000000000000000000000F8
0000000000000000000000000000000000000000000000000000000000F8
0000000000000000000000000000000000000000000000000000000000F8
0000000000000000000000000000000000000000000000000000000000F8
0000000000000000000000000000000000000000000000000000000000F8
0000000000000000000000000000000000000000000000000000000000F8
0000000000000000000000000000000000000000000000000000000000F8
0000000000000000000000000000000000000000000000000000000000F8
0000000000000000000000000000000000000000000000000000000000F8
0000000000000000000000000000000000000000000000000000000000F8
0000000000000000000000000000000000000000000000000000000000F8
0000000000000000000000000000000000000000000000000000000000F8
0000000000000000000000000000000000000000000000000000000000F8
0000000000000000000000000000000000000000000000000000000000F8
0000000000000000000000000000000000000000000000000000000000F8
0000000000000000000000000000000000000000000000000000000000F8
0000000000000000000000000000000000000000000000000000000000F8
0000000000000000000000000000000000000000000000000000000000F8
0000000000000000000000000000000000000000000000000000000000F8
0000000000000000000000000000000000000000000000000000000000F8
0000000000000000000000000000000000000000000000000000000000F8
0000000000000000000000000000000000000000000000000000000000F8
0000000000000000000000000000000000000000000000000000000000F8
0000000000000000000000000000000000000000000000000000000000F8
0000000000000000000000000000000000000000000000000000000000F8
0000000000000000000000000000000000000000000000000000000000F8
0000000000000000000000000000000000000000000000000000000000F8
0000000000000000000000000000000000000000000000000000000000F8
0000000000000000000000000000000000000000000000000000000000F8
0000000000000000000000000000000000000000000000000000000000F8
0000000000000000000000000000000000000000000000000000000000F8
0000000000000000000000000000000000000000000000000000000000F8
0000000000000000000000000000000000000000000000000000000000F0
0000000000000000000000000000000000000000000000000000000000F0
0000000000000000000000000000000000000000000000000000000000F0
000000000000000000000000000000000000000000000000000000000090
000000000000000000000000000000000000000000000000000000000000
000000000000000000000000000000000000000000000000000000000000
DE0000000000000000000000000000000000000000000000000000000000
610000000000000000000000000000000000000000000000000000000000
408000000000000000000000000000000000000000000000000000000000
408000000000000000000000000000000000000000000000000000000000
408000000000000000000000000000000000000000000000000000000000
408000000000000000000000000000000000000000000000000000000000
408000000000000000000000000000000000000000000000000000000000
408000000000000000000000000000000000000000000000000000000000
408000000000000000000000000000000000000000000000000000000000
408000000000000000000000000000000000000000000000000000000000
ENDCHAR
STARTCHAR 00F2
ENCODING 242
SWIDTH 400 0
DWIDTH 12 0
BBX 163 14 1 0
BITMAP
000000000000000000000000000000000000000020
000000000000000000000000000000000000000020
000000000000000000000000000000000000000000
000000000000000000000000000000000000000000
1E0000000000000000000000000000000000000000
618000000000000000000000000000000000000000
C08000000000000000000000000000000000000000
804000000000000000000000000000000000000000
804000000000000000000000000000000000000000
804000000000000000000000000000000000000000
804000000000000000000000000000000000000000
C08000000000000000000000000000000000000000
618000000000000000000000000000000000000000
1E0000000000000000000000000000000000000000
ENDCHAR
STARTCHAR 00F3
ENCODING 243
SWIDTH 400 0
DWIDTH 12 0
BBX 177 14 1 0
BITMAP
0000000000000000000000000000000000000000000080
0000000000000000000000000000000000000000000100
0000000000000000000000000000000000000000000000
0000000000000000000000000000000000000000000000
1E00000000000000000000000000000000000000000000
6180000000000000000000000000000000000000000000
C080000000000000000000000000000000000000000000
8040000000000000000000000000000000000000000000
8040000000000000000000000000000000000000000000
8040000000000000000000000000000000000000000000
8040000000000000000000000000000000000000000000
C080000000000000000000000000000000000000000000
6180000000000000000000000000000000000000000000
1E00000000000000000000000000000000000000000000
ENDCHAR
STARTCHAR 00F4
ENCODING 244
SWIDTH 400 0
DWIDTH 12 0
BBX 29 35 1 0
BITMAP
00000020
00000020
00000020
00000020
00000020
00000020
00000070
00000070
00000070
00000070
00000070
00000070
00000070
00000070
00000070
00000070
00000070
00000078
000000F8
000000F8
000000F8
000000D8
000000D8
00000000
00000000
1E000000
61800000
C0800000
80400000
80400000
80400000
80400000
C0800000
61800000
1E000000
ENDCHAR
STARTCHAR 00F5
ENCODING 245
SWIDTH 400 0
DWIDTH 12 0
BBX 238 91 1 0
BITMAP
000000000000000000000000000000000000000000000000000000000024
00000000000000000000000000000000000000000000000000000000007C
00000000000000000000000000000000000000000000000000000000007C
00000000000000000000000000000000000000000000000000000000007C
00000000000000000000000000000000000000000000000000000000007C
00000000000000000000000000000000000000000000000000000000007C
00000000000000000000000000000000000000000000000000000000007C
00000000000000000000000000000000000000000000000000000000007C
00000000000000000000000000000000000000000000000000000000007C
00000000000000000000000000000000000000000000000000000000007C
00000000000000000000000000000000000000000000000000000000007C
00000000000000000000000000000000000000000000000000000000007C
00000000000000000000000000000000000000000000000000000000007C
00000000000000000000000000000000000000000000000000000000007C
00000000000000000000000000000000000000000000000000000000007C
00000000000000000000000000000000000000000000000000000000007C
00000000000000000000000000000000000000000000000000000000007C
00000000000000000000000000000000000000000000000000000000007C
00000000000000000000000000000000000000000000000000000000007C
00000000000000000000000000000000000000000000000000000000007C
00000000000000000000000000000000000000000000000000000000007C
00000000000000000000000000000000000000000000000000000000007C
00000000000000000000000000000000000000000000000000000000007C
00000000000000000000000000000000000000000000000000000000007C
00000000000000000000000000000000000000000000000000000000007C
00000000000000000000000000000000000000000000000000000000007C
00000000000000000000000000000000000000000000000000000000007C
000000000000000000000000000000000000000000000000000000000078
000000000000000000000000000000000000000000000000000000000078
000000000000000000000000000000000000000000000000000000000078
000000000000000000000000000000000000000000000000000000000078
000000000000000000000000000000000000000000000000000000000078
0000000000000000000000000000000000000000000000000000000000F8
0000000000000000000000000000000000000000000000000000000000F8
0000000000000000000000000000000000000000000000000000000000F8
0000000000000000000000000000000000000000000000000000000000F8
0000000000000000000000000000000000000000000000000000000000F8
0000000000000000000000000000000000000000000000000000000000F8
0000000000000000000000000000000000000000000000000000000000F8
0000000000000000000000000000000000000000000000000000000000F8
0000000000000000000000000000000000000000000000000000000000F8
0000000000000000000000000000000000000000000000000000000000F8
0000000000000000000000000000000000000000000000000000000000F8
0000000000000000000000000000000000000000000000000000000000F8
0000000000000000000000000000000000000000000000000000000000F8
0000000000000000000000000000000000000000000000000000000000F8
0000000000000000000000000000000000000000000000000000000000F8
0000000000000000000000000000000000000000000000000000000000F8
0000000000000000000000000000000000000000000000000000000000F8
0000000000000000000000000000000000000000000000000000000000F8
0000000000000000000000000000000000000000000000000000000000F8
0000000000000000000000000000000000000000000000000000000000F8
0000000000000000000000000000000000000000000000000000000000F8
0000000000000000000000000000000000000000000000000000000000F8
0000000000000000000000000000000000000000000000000000000000F8
0000000000000000000000000000000000000000000000000000000000F8
0000000000000000000000000000000000000000000000000000000000F8
0000000000000000000000000000000000000000000000000000000000F8
0000000000000000000000000000000000000000000000000000000000F8
0000000000000000000000000000000000000000000000000000000000F8
0000000000000000000000000000000000000000000000000000000000F8
0000000000000000000000000000000000000000000000000000000000F8
0000000000000000000000000000000000000000000000000000000000F8
0000000000000000000000000000000000000000000000000000000000F8
0000000000000000000000000000000000000000000000000000000000F8
0000000000000000000000000000000000000000000000000000000000F8
0000000000000000000000000000000000000000000000000000000000F8
0000000000000000000000000000000000000000000000000000000000F8
0000000000000000000000000000000000000000000000000000000000F8
0000000000000000000000000000000000000000000000000000000000F8
0000000000000000000000000000000000000000000000000000000000F8
0000000000000000000000000000000000000000000000000000000000F8
0000000000000000000000000000000000000000000000000000000000F8
0000000000000000000000000000000000000000000000000000000000F8
0000000000000000000000000000000000000000000000000000000000F8
0000000000000000000000000000000000000000000000000000000000F8
0000000000000000000000000000000000000000000000000000000000F8
0000000000000000000000000000000000000000000000000000000000F0
000000000000000000000000000000000000000000000000000000000090
000000000000000000000000000000000000000000000000000000000000
000000000000000000000000000000000000000000000000000000000000
1E0000000000000000000000000000000000000000000000000000000000
618000000000000000000000000000000000000000000000000000000000
C08000000000000000000000000000000000000000000000000000000000
804000000000000000000000000000000000000000000000000000000000
804000000000000000000000000000000000000000000000000000000000
804000000000000000000000000000000000000000000000000000000000
804000000000000000000000000000000000000000000000000000000000
C08000000000000000000000000000000000000000000000000000000000
618000000000000000000000000000000000000000000000000000000000
1E0000000000000000000000000000000000000000000000000000000000
ENDCHAR
STARTCHAR 00F6
ENCODING 246
SWIDTH 400 0
DWIDTH 12 0
BBX 10 13 1 0
BITMAP
3300
0000
0000
1E00
6180
C080
8040
8040
8040
8040
C080
6180
1E00
ENDCHAR
STARTCHAR 00F7
ENCODING 247
SWIDTH 400 0
DWIDTH 12 0
BBX 10 9 1 1
BITMAP
0C00
0C00
0000
0000
FFC0
0000
0000
0C00
0C00
ENDCHAR
STARTCHAR 00F8
ENCODING 248
SWIDTH 400 0
DWIDTH 12 0
BBX 10 12 1 -1
BITMAP
0080
1F00
6280
42C0
8440
8440
8840
9040
D080
6180
5E00
4000
ENDCHAR
STARTCHAR 00F9
ENCODING 249
SWIDTH 400 0
DWIDTH 12 0
BBX 162 14 2 0
BITMAP
000000000000000000000000000000000000000040
000000000000000000000000000000000000000040
000000000000000000000000000000000000000000
000000000000000000000000000000000000000000
810000000000000000000000000000000000000000
810000000000000000000000000000000000000000
810000000000000000000000000000000000000000
810000000000000000000000000000000000000000
810000000000000000000000000000000000000000
810000000000000000000000000000000000000000
810000000000000000000000000000000000000000
830000000000000000000000000000000000000000
C70000000000000000000000000000000000000000
798000000000000000000000000000000000000000
ENDCHAR
STARTCHAR 00FA
ENCODING 250
SWIDTH 400 0
DWIDTH 12 0
BBX 176 14 2 0
BITMAP
00000000000000000000000000000000000000000001
00000000000000000000000000000000000000000002
00000000000000000000000000000000000000000000
00000000000000000000000000000000000000000000
81000000000000000000000000000000000000000000
81000000000000000000000000000000000000000000
81000000000000000000000000000000000000000000
81000000000000000000000000000000000000000000
81000000000000000000000000000000000000000000
81000000000000000000000000000000000000000000
81000000000000000000000000000000000000000000
83000000000000000000000000000000000000000000
C7000000000000000000000000000000000000000000
79800000000000000000000000000000000000000000
ENDCHAR
STARTCHAR 00FB
ENCODING 251
SWIDTH 400 0
DWIDTH 12 0
BBX 28 35 2 0
BITMAP
00000040
00000040
00000040
00000040
00000040
000000C0
000000C0
000000C0
000000E0
000000E0
000000E0
000000E0
000000E0
000000E0
000000E0
000000E0
000001E0
000001E0
000001E0
000001F0
000001F0
000001F0
00000130
00000000
00000000
81000000
81000000
81000000
81000000
81000000
81000000
81000000
83000000
C7000000
79800000
ENDCHAR
STARTCHAR 00FC
ENCODING 252
SWIDTH 400 0
DWIDTH 12 0
BBX 9 13 2 0
BITMAP
6600
0000
0000
8100
8100
8100
8100
8100
8100
8100
8300
C700
7980
ENDCHAR
STARTCHAR 00FD
ENCODING 253
SWIDTH 333 0
DWIDTH 10 0
BBX 177 19 0 -5
BITMAP
0000000000000000000000000000000000000000000080
0000000000000000000000000000000000000000000100
0000000000000000000000000000000000000000000000
0000000000000000000000000000000000000000000000
C040000000000000000000000000000000000000000000
4080000000000000000000000000000000000000000000
4080000000000000000000000000000000000000000000
2100000000000000000000000000000000000000000000
2100000000000000000000000000000000000000000000
1300000000000000000000000000000000000000000000
1200000000000000000000000000000000000000000000
1A00000000000000000000000000000000000000000000
0C00000000000000000000000000000000000000000000
0C00000000000000000000000000000000000000000000
0800000000000000000000000000000000000000000000
0800000000000000000000000000000000000000000000
1000000000000000000000000000000000000000000000
2000000000000000000000000000000000000000000000
4000000000000000000000000000000000000000000000
ENDCHAR
STARTCHAR 00FE
ENCODING 254
SWIDTH 433 0
DWIDTH 13 0
BBX 10 18 2 -4
BITMAP
8000
8000
8000
8000
9E00
E180
C080
8040
8040
8040
8040
C080
E180
BE00
8000
8000
8000
8000
ENDCHAR
STARTCHAR 00FF
ENCODING 255
SWIDTH 333 0
DWIDTH 10 0
BBX 10 18 0 -5
BITMAP
3300
0000
0000
C040
4080
4080
2100
2100
1300
1200
1A00
0C00
0C00
0800
0800
1000
2000
4000
ENDCHAR
STARTCHAR 0102
ENCODING 258
SWIDTH 400 0
DWIDTH 12 0
BBX 12 18 0 0
BITMAP
1980
0F00
0000
0000
0600
0600
0900
0900
0900
1080
1080
2080
3FC0
2040
4020
4020
4020
8010
ENDCHAR
STARTCHAR 0103
ENCODING 259
SWIDTH 333 0
DWIDTH 10 0
BBX 8 14 1 0
BITMAP
66
3C
00
00
FC
82
03
01
3F
61
81
83
87
79
ENDCHAR
STARTCHAR 0106
ENCODING 262
SWIDTH 400 0
DWIDTH 12 0
BBX 177 18 1 0
BITMAP
0000000000000000000000000000000000000000000080
0000000000000000000000000000000000000000000080
0000000000000000000000000000000000000000000000
0000000000000000000000000000000000000000000000
0FC0000000000000000000000000000000000000000000
3040000000000000000000000000000000000000000000
6000000000000000000000000000000000000000000000
C000000000000000000000000000000000000000000000
8000000000000000000000000000000000000000000000
8000000000000000000000000000000000000000000000
8000000000000000000000000000000000000000000000
8000000000000000000000000000000000000000000000
8000000000000000000000000000000000000000000000
8000000000000000000000000000000000000000000000
C000000000000000000000000000000000000000000000
6000000000000000000000000000000000000000000000
3040000000000000000000000000000000000000000000
0FC0000000000000000000000000000000000000000000
ENDCHAR
STARTCHAR 0107
ENCODING 263
SWIDTH 333 0
DWIDTH 10 0
BBX 176 14 1 0
BITMAP
00000000000000000000000000000000000000000001
00000000000000000000000000000000000000000002
00000000000000000000000000000000000000000000
00000000000000000000000000000000000000000000
1F000000000000000000000000000000000000000000
61000000000000000000000000000000000000000000
C0000000000000000000000000000000000000000000
80000000000000000000000000000000000000000000
80000000000000000000000000000000000000000000
80000000000000000000000000000000000000000000
80000000000000000000000000000000000000000000
C0000000000000000000000000000000000000000000
61000000000000000000000000000000000000000000
1F000000000000000000000000000000000000000000
ENDCHAR
STARTCHAR 010C
ENCODING 268
SWIDTH 400 0
DWIDTH 12 0
BBX 17 26 1 0
BITMAP
000980
000600
000000
000000
000000
000000
000000
000000
000000
000000
000000
000000
0FC000
304000
600000
C00000
800000
800000
800000
800000
800000
800000
C00000
600000
304000
0FC000
ENDCHAR
STARTCHAR 010D
ENCODING 269
SWIDTH 333 0
DWIDTH 10 0
BBX 15 22 1 0
BITMAP
0032
000C
0000
0000
0000
0000
0000
0000
0000
0000
0000
0000
1F00
6100
C000
8000
8000
8000
8000
C000
6100
1F00
ENDCHAR
STARTCHAR 0110
ENCODING 272
SWIDTH 433 0
DWIDTH 13 0
BBX 12 14 0 0
BITMAP
3F80
2040
2020
2030
2010
2010
FE10
2010
2010
2010
2030
2020
2040
3F80
ENDCHAR
STARTCHAR 0111
ENCODING 273
SWIDTH 400 0
DWIDTH 12 0
BBX 11 15 1 0
BITMAP
0080
0FE0
0080
0080
0080
3E80
4180
C080
8080
8080
8080
8080
C080
4180
3EC0
ENDCHAR
STARTCHAR 011E
ENCODING 286
SWIDTH 433 0
DWIDTH 13 0
BBX 10 18 1 0
BITMAP
1100
0E00
0000
0000
0F80
3040
6000
C000
8000
8000
8000
83C0
8040
8040
C040
4040
3040
1FC0
ENDCHAR
STARTCHAR 011F
ENCODING 287
SWIDTH 300 0
DWIDTH 9 0
BBX 7 19 1 -5
BITMAP
44
38
00
00
3E
46
82
82
82
46
7C
40
60
1C
06
02
02
46
7C
ENDCHAR
STARTCHAR 0128
ENCODING 296
SWIDTH 133 0
DWIDTH 4 0
BBX 233 95 2 0
BITMAP
000000000000000000000000000000000000000000000000000000000480
000000000000000000000000000000000000000000000000000000000780
000000000000000000000000000000000000000000000000000000000780
000000000000000000000000000000000000000000000000000000000F80
000000000000000000000000000000000000000000000000000000000F80
000000000000000000000000000000000000000000000000000000000F80
000000000000000000000000000000000000000000000000000000000F80
000000000000000000000000000000000000000000000000000000000F80
000000000000000000000000000000000000000000000000000000000F80
000000000000000000000000000000000000000000000000000000000F80
000000000000000000000000000000000000000000000000000000000F80
000000000000000000000000000000000000000000000000000000000F80
000000000000000000000000000000000000000000000000000000000F80
000000000000000000000000000000000000000000000000000000000F80
000000000000000000000000000000000000000000000000000000000F80
000000000000000000000000000000000000000000000000000000000F80
000000000000000000000000000000000000000000000000000000000F80
000000000000000000000000000000000000000000000000000000000F80
000000000000000000000000000000000000000000000000000000000F80
000000000000000000000000000000000000000000000000000000000F80
000000000000000000000000000000000000000000000000000000000F80
000000000000000000000000000000000000000000000000000000000F80
000000000000000000000000000000000000000000000000000000000F80
000000000000000000000000000000000000000000000000000000000F80
000000000000000000000000000000000000000000000000000000000F80
000000000000000000000000000000000000000000000000000000000F80
000000000000000000000000000000000000000000000000000000000F80
000000000000000000000000000000000000000000000000000000000F80
000000000000000000000000000000000000000000000000000000000F80
000000000000000000000000000000000000000000000000000000000F80
000000000000000000000000000000000000000000000000000000000F80
000000000000000000000000000000000000000000000000000000000F80
000000000000000000000000000000000000000000000000000000000F80
000000000000000000000000000000000000000000000000000000000F80
000000000000000000000000000000000000000000000000000000000F80
000000000000000000000000000000000000000000000000000000000F80
000000000000000000000000000000000000000000000000000000000F80
000000000000000000000000000000000000000000000000000000000F80
000000000000000000000000000000000000000000000000000000000F80
000000000000000000000000000000000000000000000000000000000F80
000000000000000000000000000000000000000000000000000000000F80
000000000000000000000000000000000000000000000000000000000F80
000000000000000000000000000000000000000000000000000000000F80
000000000000000000000000000000000000000000000000000000000F80
000000000000000000000000000000000000000000000000000000000F80
000000000000000000000000000000000000000000000000000000000F80
000000000000000000000000000000000000000000000000000000000F80
000000000000000000000000000000000000000000000000000000000F80
000000000000000000000000000000000000000000000000000000000F80
000000000000000000000000000000000000000000000000000000000F80
000000000000000000000000000000000000000000000000000000000F80
000000000000000000000000000000000000000000000000000000000F80
000000000000000000000000000000000000000000000000000000000F80
000000000000000000000000000000000000000000000000000000000F80
000000000000000000000000000000000000000000000000000000000F80
000000000000000000000000000000000000000000000000000000000F00
000000000000000000000000000000000000000000000000000000000F00
000000000000000000000000000000000000000000000000000000000F00
000000000000000000000000000000000000000000000000000000000F00
000000000000000000000000000000000000000000000000000000000F00
000000000000000000000000000000000000000000000000000000000F00
000000000000000000000000000000000000000000000000000000000F00
000000000000000000000000000000000000000000000000000000000F00
000000000000000000000000000000000000000000000000000000000F00
000000000000000000000000000000000000000000000000000000000F00
000000000000000000000000000000000000000000000000000000000F00
000000000000000000000000000000000000000000000000000000000F00
000000000000000000000000000000000000000000000000000000000F00
000000000000000000000000000000000000000000000000000000000F00
000000000000000000000000000000000000000000000000000000000F00
000000000000000000000000000000000000000000000000000000000F00
000000000000000000000000000000000000000000000000000000000F00
000000000000000000000000000000000000000000000000000000000F00
000000000000000000000000000000000000000000000000000000000F00
000000000000000000000000000000000000000000000000000000000F00
000000000000000000000000000000000000000000000000000000000F00
000000000000000000000000000000000000000000000000000000000F00
000000000000000000000000000000000000000000000000000000000F00
000000000000000000000000000000000000000000000000000000001300
000000000000000000000000000000000000000000000000000000000000
000000000000000000000000000000000000000000000000000000000000
800000000000000000000000000000000000000000000000000000000000
800000000000000000000000000000000000000000000000000000000000
800000000000000000000000000000000000000000000000000000000000
800000000000000000000000000000000000000000000000000000000000
800000000000000000000000000000000000000000000000000000000000
800000000000000000000000000000000000000000000000000000000000
800000000000000000000000000000000000000000000000000000000000
800000000000000000000000000000000000000000000000000000000000
800000000000000000000000000000000000000000000000000000000000
800000000000000000000000000000000000000000000000000000000000
800000000000000000000000000000000000000000000000000000000000
800000000000000000000000000000000000000000000000000000000000
800000000000000000000000000000000000000000000000000000000000
800000000000000000000000000000000000000000000000000000000000
ENDCHAR
STARTCHAR 0129
ENCODING 297
SWIDTH 133 0
DWIDTH 4 0
BBX 233 91 2 0
BITMAP
000000000000000000000000000000000000000000000000000000000480
000000000000000000000000000000000000000000000000000000000780
000000000000000000000000000000000000000000000000000000000F80
000000000000000000000000000000000000000000000000000000000F80
000000000000000000000000000000000000000000000000000000000F80
000000000000000000000000000000000000000000000000000000000F80
000000000000000000000000000000000000000000000000000000000F80
000000000000000000000000000000000000000000000000000000000F80
000000000000000000000000000000000000000000000000000000000F80
000000000000000000000000000000000000000000000000000000000F80
000000000000000000000000000000000000000000000000000000000F80
000000000000000000000000000000000000000000000000000000000F80
000000000000000000000000000000000000000000000000000000000F80
000000000000000000000000000000000000000000000000000000000F80
000000000000000000000000000000000000000000000000000000000F80
000000000000000000000000000000000000000000000000000000000F80
000000000000000000000000000000000000000000000000000000000F80
000000000000000000000000000000000000000000000000000000000F80
000000000000000000000000000000000000000000000000000000000F80
000000000000000000000000000000000000000000000000000000000F80
000000000000000000000000000000000000000000000000000000000F80
000000000000000000000000000000000000000000000000000000000F80
000000000000000000000000000000000000000000000000000000000F80
000000000000000000000000000000000000000000000000000000000F80
000000000000000000000000000000000000000000000000000000000F80
000000000000000000000000000000000000000000000000000000000F80
000000000000000000000000000000000000000000000000000000000F80
000000000000000000000000000000000000000000000000000000000F80
000000000000000000000000000000000000000000000000000000000F80
000000000000000000000000000000000000000000000000000000000F80
000000000000000000000000000000000000000000000000000000000F80
000000000000000000000000000000000000000000000000000000000F80
000000000000000000000000000000000000000000000000000000000F80
000000000000000000000000000000000000000000000000000000000F80
000000000000000000000000000000000000000000000000000000000F80
000000000000000000000000000000000000000000000000000000000F80
000000000000000000000000000000000000000000000000000000000F80
000000000000000000000000000000000000000000000000000000000F80
000000000000000000000000000000000000000000000000000000000F80
000000000000000000000000000000000000000000000000000000000F80
000000000000000000000000000000000000000000000000000000000F80
000000000000000000000000000000000000000000000000000000000F80
000000000000000000000000000000000000000000000000000000000F80
000000000000000000000000000000000000000000000000000000000F80
000000000000000000000000000000000000000000000000000000000F80
000000000000000000000000000000000000000000000000000000000F80
000000000000000000000000000000000000000000000000000000000F80
000000000000000000000000000000000000000000000000000000000F80
000000000000000000000000000000000000000000000000000000000F80
000000000000000000000000000000000000000000000000000000000F80
000000000000000000000000000000000000000000000000000000000F00
000000000000000000000000000000000000000000000000000000000F00
000000000000000000000000000000000000000000000000000000000F00
000000000000000000000000000000000000000000000000000000000F00
000000000000000000000000000000000000000000000000000000000F00
000000000000000000000000000000000000000000000000000000000F00
000000000000000000000000000000000000000000000000000000001F00
000000000000000000000000000000000000000000000000000000001F00
000000000000000000000000000000000000000000000000000000001F00
000000000000000000000000000000000000000000000000000000001F00
000000000000000000000000000000000000000000000000000000001F00
000000000000000000000000000000000000000000000000000000001F00
000000000000000000000000000000000000000000000000000000001F00
000000000000000000000000000000000000000000000000000000001F00
000000000000000000000000000000000000000000000000000000001F00
000000000000000000000000000000000000000000000000000000001F00
000000000000000000000000000000000000000000000000000000001F00
000000000000000000000000000000000000000000000000000000001F00
000000000000000000000000000000000000000000000000000000001F00
000000000000000000000000000000000000000000000000000000001F00
000000000000000000000000000000000000000000000000000000001F00
000000000000000000000000000000000000000000000000000000001F00
000000000000000000000000000000000000000000000000000000001F00
000000000000000000000000000000000000000000000000000000001F00
000000000000000000000000000000000000000000000000000000001F00
000000000000000000000000000000000000000000000000000000001F00
000000000000000000000000000000000000000000000000000000001F00
000000000000000000000000000000000000000000000000000000001F00
000000000000000000000000000000000000000000000000000000001200
000000000000000000000000000000000000000000000000000000000000
000000000000000000000000000000000000000000000000000000000000
800000000000000000000000000000000000000000000000000000000000
800000000000000000000000000000000000000000000000000000000000
800000000000000000000000000000000000000000000000000000000000
800000000000000000000000000000000000000000000000000000000000
800000000000000000000000000000000000000000000000000000000000
800000000000000000000000000000000000000000000000000000000000
800000000000000000000000000000000000000000000000000000000000
800000000000000000000000000000000000000000000000000000000000
800000000000000000000000000000000000000000000000000000000000
800000000000000000000000000000000000000000000000000000000000
ENDCHAR
STARTCHAR 0130
ENCODING 304
SWIDTH 133 0
DWIDTH 4 0
BBX 2 17 2 0
BITMAP
80
C0
00
80
80
80
80
80
80
80
80
80
80
80
80
80
80
ENDCHAR
STARTCHAR 0131
ENCODING 305
SWIDTH 133 0
DWIDTH 4 0
BBX 1 10 2 0
BITMAP
80
80
80
80
80
80
80
80
80
80
ENDCHAR
STARTCHAR 0141
ENCODING 321
SWIDTH 366 0
DWIDTH 11 0
BBX 9 14 1 0
BITMAP
4000
4000
4000
4000
4000
4300
5E00
E000
C000
4000
4000
4000
4000
7F80
ENDCHAR
STARTCHAR 0142
ENCODING 322
SWIDTH 200 0
DWIDTH 6 0
BBX 5 15 1 0
BITMAP
40
40
40
40
40
40
40
50
E0
40
40
40
40
20
18
ENDCHAR
STARTCHAR 0152
ENCODING 338
SWIDTH 700 0
DWIDTH 21 0
BBX 19 14 1 0
BITMAP
0F9FE0
307800
603800
C01800
801800
801800
801FC0
801800
801800
801800
C01800
603800
307800
0F9FE0
ENDCHAR
STARTCHAR 0153
ENCODING 339
SWIDTH 666 0
DWIDTH 20 0
BBX 18 10 1 0
BITMAP
1E0F00
61B080
C0A040
804040
807FC0
804000
804000
C0E000
61B040
1E0F80
ENDCHAR
STARTCHAR 015E
ENCODING 350
SWIDTH 366 0
DWIDTH 11 0
BBX 9 18 1 -4
BITMAP
3F00
6100
C000
8000
4000
6000
1C00
0300
0100
0180
0180
0100
8300
7C00
0800
0C00
1400
1C00
ENDCHAR
STARTCHAR 015F
ENCODING 351
SWIDTH 300 0
DWIDTH 9 0
BBX 7 14 1 -4
BITMAP
3C
44
C0
60
38
0C
04
06
84
F8
10
18
68
30
ENDCHAR
STARTCHAR 0160
ENCODING 352
SWIDTH 366 0
DWIDTH 11 0
BBX 15 26 1 0
BITMAP
0026
0018
0000
0000
0000
0000
0000
0000
0000
0000
0000
0000
3E00
6100
C000
8000
4000
6000
1C00
0300
0100
0180
0180
0100
8300
7C00
ENDCHAR
STARTCHAR 0161
ENCODING 353
SWIDTH 266 0
DWIDTH 8 0
BBX 14 22 1 0
BITMAP
004C
0030
0000
0000
0000
0000
0000
0000
0000
0000
0000
0000
7C00
4400
8000
4000
3800
0C00
0400
0400
8400
F800
ENDCHAR
STARTCHAR 0168
ENCODING 360
SWIDTH 466 0
DWIDTH 14 0
BBX 238 95 2 0
BITMAP
000000000000000000000000000000000000000000000000000000000024
00000000000000000000000000000000000000000000000000000000003C
00000000000000000000000000000000000000000000000000000000007C
00000000000000000000000000000000000000000000000000000000007C
00000000000000000000000000000000000000000000000000000000007C
00000000000000000000000000000000000000000000000000000000007C
00000000000000000000000000000000000000000000000000000000007C
00000000000000000000000000000000000000000000000000000000007C
00000000000000000000000000000000000000000000000000000000007C
00000000000000000000000000000000000000000000000000000000007C
00000000000000000000000000000000000000000000000000000000007C
00000000000000000000000000000000000000000000000000000000007C
00000000000000000000000000000000000000000000000000000000007C
00000000000000000000000000000000000000000000000000000000007C
00000000000000000000000000000000000000000000000000000000007C
00000000000000000000000000000000000000000000000000000000007C
00000000000000000000000000000000000000000000000000000000007C
00000000000000000000000000000000000000000000000000000000007C
00000000000000000000000000000000000000000000000000000000007C
00000000000000000000000000000000000000000000000000000000007C
00000000000000000000000000000000000000000000000000000000007C
00000000000000000000000000000000000000000000000000000000007C
00000000000000000000000000000000000000000000000000000000007C
00000000000000000000000000000000000000000000000000000000007C
00000000000000000000000000000000000000000000000000000000007C
00000000000000000000000000000000000000000000000000000000007C
00000000000000000000000000000000000000000000000000000000007C
00000000000000000000000000000000000000000000000000000000007C
00000000000000000000000000000000000000000000000000000000007C
00000000000000000000000000000000000000000000000000000000007C
00000000000000000000000000000000000000000000000000000000007C
00000000000000000000000000000000000000000000000000000000007C
00000000000000000000000000000000000000000000000000000000007C
00000000000000000000000000000000000000000000000000000000007C
00000000000000000000000000000000000000000000000000000000007C
00000000000000000000000000000000000000000000000000000000007C
00000000000000000000000000000000000000000000000000000000007C
00000000000000000000000000000000000000000000000000000000007C
00000000000000000000000000000000000000000000000000000000007C
00000000000000000000000000000000000000000000000000000000007C
00000000000000000000000000000000000000000000000000000000007C
00000000000000000000000000000000000000000000000000000000007C
00000000000000000000000000000000000000000000000000000000007C
00000000000000000000000000000000000000000000000000000000007C
00000000000000000000000000000000000000000000000000000000007C
00000000000000000000000000000000000000000000000000000000007C
00000000000000000000000000000000000000000000000000000000007C
00000000000000000000000000000000000000000000000000000000007C
00000000000000000000000000000000000000000000000000000000007C
000000000000000000000000000000000000000000000000000000000078
000000000000000000000000000000000000000000000000000000000078
000000000000000000000000000000000000000000000000000000000078
0000000000000000000000000000000000000000000000000000000000F8
0000000000000000000000000000000000000000000000000000000000F8
0000000000000000000000000000000000000000000000000000000000F8
0000000000000000000000000000000000000000000000000000000000F8
0000000000000000000000000000000000000000000000000000000000F8
0000000000000000000000000000000000000000000000000000000000F8
0000000000000000000000000000000000000000000000000000000000F8
0000000000000000000000000000000000000000000000000000000000F8
0000000000000000000000000000000000000000000000000000000000F8
0000000000000000000000000000000000000000000000000000000000F8
0000000000000000000000000000000000000000000000000000000000F8
0000000000000000000000000000000000000000000000000000000000F8
0000000000000000000000000000000000000000000000000000000000F8
0000000000000000000000000000000000000000000000000000000000F8
0000000000000000000000000000000000000000000000000000000000F8
0000000000000000000000000000000000000000000000000000000000F8
0000000000000000000000000000000000000000000000000000000000F8
0000000000000000000000000000000000000000000000000000000000F8
0000000000000000000000000000000000000000000000000000000000F8
0000000000000000000000000000000000000000000000000000000000F8
0000000000000000000000000000000000000000000000000000000000F8
0000000000000000000000000000000000000000000000000000000000F8
0000000000000000000000000000000000000000000000000000000000F8
0000000000000000000000000000000000000000000000000000000000F8
0000000000000000000000000000000000000000000000000000000000F8
0000000000000000000000000000000000000000000000000000000000F8
000000000000000000000000000000000000000000000000000000000090
000000000000000000000000000000000000000000000000000000000000
000000000000000000000000000000000000000000000000000000000000
806000000000000000000000000000000000000000000000000000000000
806000000000000000000000000000000000000000000000000000000000
806000000000000000000000000000000000000000000000000000000000
806000000000000000000000000000000000000000000000000000000000
806000000000000000000000000000000000000000000000000000000000
806000000000000000000000000000000000000000000000000000000000
806000000000000000000000000000000000000000000000000000000000
806000000000000000000000000000000000000000000000000000000000
806000000000000000000000000000000000000000000000000000000000
804000000000000000000000000000000000000000000000000000000000
804000000000000000000000000000000000000000000000000000000000
C0C000000000000000000000000000000000000000000000000000000000
618000000000000000000000000000000000000000000000000000000000
1F0000000000000000000000000000000000000000000000000000000000
ENDCHAR
STARTCHAR 0169
ENCODING 361
SWIDTH 400 0
DWIDTH 12 0
BBX 237 91 2 0
BITMAP
000000000000000000000000000000000000000000000000000000000048
0000000000000000000000000000000000000000000000000000000000F8
0000000000000000000000000000000000000000000000000000000000F8
0000000000000000000000000000000000000000000000000000000000F8
0000000000000000000000000000000000000000000000000000000000F8
0000000000000000000000000000000000000000000000000000000000F8
0000000000000000000000000000000000000000000000000000000000F8
0000000000000000000000000000000000000000000000000000000000F8
0000000000000000000000000000000000000000000000000000000000F8
0000000000000000000000000000000000000000000000000000000000F8
0000000000000000000000000000000000000000000000000000000000F8
0000000000000000000000000000000000000000000000000000000000F8
0000000000000000000000000000000000000000000000000000000000F8
0000000000000000000000000000000000000000000000000000000000F8
0000000000000000000000000000000000000000000000000000000000F8
0000000000000000000000000000000000000000000000000000000000F8
0000000000000000000000000000000000000000000000000000000000F8
0000000000000000000000000000000000000000000000000000000000F8
0000000000000000000000000000000000000000000000000000000000F8
0000000000000000000000000000000000000000000000000000000000F8
0000000000000000000000000000000000000000000000000000000000F8
0000000000000000000000000000000000000000000000000000000000F8
0000000000000000000000000000000000000000000000000000000000F8
0000000000000000000000000000000000000000000000000000000000F8
0000000000000000000000000000000000000000000000000000000000F8
0000000000000000000000000000000000000000000000000000000000F8
0000000000000000000000000000000000000000000000000000000000F8
0000000000000000000000000000000000000000000000000000000000F8
0000000000000000000000000000000000000000000000000000000000F8
0000000000000000000000000000000000000000000000000000000000F8
0000000000000000000000000000000000000000000000000000000000F8
0000000000000000000000000000000000000000000000000000000000F8
0000000000000000000000000000000000000000000000000000000000F8
0000000000000000000000000000000000000000000000000000000000F8
0000000000000000000000000000000000000000000000000000000000F8
0000000000000000000000000000000000000000000000000000000000F8
0000000000000000000000000000000000000000000000000000000000F8
0000000000000000000000000000000000000000000000000000000000F8
0000000000000000000000000000000000000000000000000000000000F8
0000000000000000000000000000000000000000000000000000000000F8
0000000000000000000000000000000000000000000000000000000000F8
0000000000000000000000000000000000000000000000000000000001F8
0000000000000000000000000000000000000000000000000000000001F0
0000000000000000000000000000000000000000000000000000000001F0
0000000000000000000000000000000000000000000000000000000001F0
0000000000000000000000000000000000000000000000000000000001F0
0000000000000000000000000000000000000000000000000000000001F0
0000000000000000000000000000000000000000000000000000000001F0
0000000000000000000000000000000000000000000000000000000001F0
0000000000000000000000000000000000000000000000000000000001F0
0000000000000000000000000000000000000000000000000000000001F0
0000000000000000000000000000000000000000000000000000000001F0
0000000000000000000000000000000000000000000000000000000001F0
0000000000000000000000000000000000000000000000000000000001F0
0000000000000000000000000000000000000000000000000000000001F0
0000000000000000000000000000000000000000000000000000000001F0
0000000000000000000000000000000000000000000000000000000001F0
0000000000000000000000000000000000000000000000000000000001F0
0000000000000000000000000000000000000000000000000000000001F0
0000000000000000000000000000000000000000000000000000000001F0
0000000000000000000000000000000000000000000000000000000001F0
0000000000000000000000000000000000000000000000000000000001F0
0000000000000000000000000000000000000000000000000000000001F0
0000000000000000000000000000000000000000000000000000000001F0
0000000000000000000000000000000000000000000000000000000001F0
0000000000000000000000000000000000000000000000000000000001F0
0000000000000000000000000000000000000000000000000000000001F0
0000000000000000000000000000000000000000000000000000000001F0
0000000000000000000000000000000000000000000000000000000001F0
0000000000000000000000000000000000000000000000000000000001F0
0000000000000000000000000000000000000000000000000000000001F0
0000000000000000000000000000000000000000000000000000000001F0
0000000000000000000000000000000000000000000000000000000001F0
0000000000000000000000000000000000000000000000000000000001F0
0000000000000000000000000000000000000000000000000000000001F0
0000000000000000000000000000000000000000000000000000000001F0
0000000000000000000000000000000000000000000000000000000001F0
0000000000000000000000000000000000000000000000000000000001F0
000000000000000000000000000000000000000000000000000000000120
000000000000000000000000000000000000000000000000000000000000
000000000000000000000000000000000000000000000000000000000000
810000000000000000000000000000000000000000000000000000000000
810000000000000000000000000000000000000000000000000000000000
810000000000000000000000000000000000000000000000000000000000
810000000000000000000000000000000000000000000000000000000000
810000000000000000000000000000000000000000000000000000000000
810000000000000000000000000000000000000000000000000000000000
810000000000000000000000000000000000000000000000000000000000
830000000000000000000000000000000000000000000000000000000000
C70000000000000000000000000000000000000000000000000000000000
798000000000000000000000000000000000000000000000000000000000
ENDCHAR
STARTCHAR 0178
ENCODING 376
SWIDTH 366 0
DWIDTH 11 0
BBX 11 17 0 0
BITMAP
1980
0000
0000
C020
4040
20C0
3080
1100
0B00
0A00
0400
0400
0400
0400
0400
0400
0400
ENDCHAR
STARTCHAR 017D
ENCODING 381
SWIDTH 433 0
DWIDTH 13 0
BBX 16 26 1 0
BITMAP
0013
000C
0000
0000
0000
0000
0000
0000
0000
0000
0000
0000
FFE0
0040
0080
0100
0100
0200
0400
0800
1800
3000
2000
4000
C000
FFE0
ENDCHAR
STARTCHAR 017E
ENCODING 382
SWIDTH 333 0
DWIDTH 10 0
BBX 15 22 0 0
BITMAP
0032
000C
0000
0000
0000
0000
0000
0000
0000
0000
0000
0000
7F80
0100
0300
0600
0400
0800
1000
2000
4000
FF80
ENDCHAR
STARTCHAR 0192
ENCODING 402
SWIDTH 400 0
DWIDTH 12 0
BBX 13 16 -1 -2
BITMAP
0038
0040
0080
0180
0100
0100
07E0
0300
0200
0200
0200
0200
0400
0400
0800
F000
ENDCHAR
STARTCHAR 01A0
ENCODING 416
SWIDTH 500 0
DWIDTH 15 0
BBX 13 16 1 0
BITMAP
0008
0008
0F90
3060
6030
C010
8018
8008
8008
8008
8008
8010
C010
6020
3040
0F80
ENDCHAR
STARTCHAR 01A1
ENCODING 417
SWIDTH 400 0
DWIDTH 12 0
BBX 11 12 1 0
BITMAP
0020
0040
1E40
6180
C0C0
8040
8040
8040
8040
C080
6180
1E00
ENDCHAR
STARTCHAR 01AF
ENCODING 431
SWIDTH 466 0
DWIDTH 14 0
BBX 13 16 2 0
BITMAP
0008
0050
8050
8060
8040
8040
8040
8040
8040
8040
8040
8040
8040
C0C0
6180
3F00
ENDCHAR
STARTCHAR 01B0
ENCODING 432
SWIDTH 366 0
DWIDTH 11 0
BBX 10 12 2 0
BITMAP
0040
0040
8140
8180
8100
8100
8100
8100
8100
8100
C300
7D80
ENDCHAR
STARTCHAR 02C6
ENCODING 710
SWIDTH 200 0
DWIDTH 6 0
BBX 5 23 1 12
BITMAP
20
20
20
60
60
60
60
60
60
60
70
70
70
70
F0
F0
F0
F0
F0
F0
F0
F8
98
ENDCHAR
STARTCHAR 02C7
ENCODING 711
SWIDTH 200 0
DWIDTH 6 0
BBX 5 2 1 20
BITMAP
98
60
ENDCHAR
STARTCHAR 02D8
ENCODING 728
SWIDTH 300 0
DWIDTH 9 0
BBX 5 2 2 12
BITMAP
88
70
ENDCHAR
STARTCHAR 02D9
ENCODING 729
SWIDTH 300 0
DWIDTH 9 0
BBX 2 2 4 15
BITMAP
80
C0
ENDCHAR
STARTCHAR 02DA
ENCODING 730
SWIDTH 300 0
DWIDTH 9 0
BBX 5 9 2 11
BITMAP
60
50
90
88
88
88
90
50
20
ENDCHAR
STARTCHAR 02DB
ENCODING 731
SWIDTH 300 0
DWIDTH 9 0
BBX 5 5 2 -5
BITMAP
40
40
C0
40
78
ENDCHAR
STARTCHAR 02DC
ENCODING 732
SWIDTH 200 0
DWIDTH 6 0
BBX 5 2 1 12
BITMAP
C8
B0
ENDCHAR
STARTCHAR 02DD
ENCODING 733
SWIDTH 266 0
DWIDTH 8 0
BBX 6 5 1 10
BITMAP
2C
68
48
50
90
ENDCHAR
STARTCHAR 0300
ENCODING 768
SWIDTH 0 0
DWIDTH 0 0
BBX 1 2 -4 12
BITMAP
80
80
ENDCHAR
STARTCHAR 0301
ENCODING 769
SWIDTH 0 0
DWIDTH 0 0
BBX 1 2 -5 12
BITMAP
80
80
ENDCHAR
STARTCHAR 0303
ENCODING 771
SWIDTH 0 0
DWIDTH 0 0
BBX 5 79 -6 12
BITMAP
68
78
78
78
78
78
78
78
78
78
78
78
78
78
78
78
78
78
78
78
78
78
F8
F8
F8
F8
F8
F8
F8
F8
F8
F8
F8
F8
F8
F8
F8
F8
F8
F8
F8
F8
F8
F8
F8
F8
F8
F8
F8
F8
F8
F8
F8
F8
F8
F8
F8
F8
F8
F8
F8
F8
F8
F8
F8
F8
F8
F8
F8
F8
F8
F8
F8
F8
F8
F0
F0
F0
90
ENDCHAR
STARTCHAR 0309
ENCODING 777
SWIDTH 0 0
DWIDTH 0 0
BBX 1 2 -7 45
BITMAP
80
80
ENDCHAR
STARTCHAR 0323
ENCODING 803
SWIDTH 0 0
DWIDTH 0 0
BBX 2 1 -3 -3
BITMAP
C0
ENDCHAR
STARTCHAR 0E00
ENCODING 3584
SWIDTH 0 0
DWIDTH 0 0
BBX 0 0 0 0
BITMAP
ENDCHAR
STARTCHAR 0E01
ENCODING 3585
SWIDTH 400 0
DWIDTH 12 0
BBX 9 12 1 0
BITMAP
1E00
6300
C180
E080
3080
4080
4080
4080
4080
4080
4080
4080
ENDCHAR
STARTCHAR 0E02
ENCODING 3586
SWIDTH 366 0
DWIDTH 11 0
BBX 10 12 0 0
BITMAP
3C40
4640
7240
9440
5440
7C40
0840
0840
0840
0840
0C80
0780
ENDCHAR
STARTCHAR 0E03
ENCODING 3587
SWIDTH 366 0
DWIDTH 11 0
BBX 10 12 0 0
BITMAP
3C40
7A40
5240
F240
D240
5440
7C40
0840
0840
0840
0CC0
0780
ENDCHAR
STARTCHAR 0E04
ENCODING 3588
SWIDTH 400 0
DWIDTH 12 0
BBX 9 12 1 0
BITMAP
3E00
6100
C080
9C80
9480
B680
EC80
6080
4080
4080
4080
4080
ENDCHAR
STARTCHAR 0E05
ENCODING 3589
SWIDTH 400 0
DWIDTH 12 0
BBX 9 12 1 0
BITMAP
3600
5D00
C880
9C80
9480
B680
BC80
6080
4080
4080
4080
4080
ENDCHAR
STARTCHAR 0E06
ENCODING 3590
SWIDTH 400 0
DWIDTH 12 0
BBX 11 12 0 0
BITMAP
3C60
7E60
5260
F260
D260
5460
7460
0C60
1860
2760
24E0
1C60
ENDCHAR
STARTCHAR 0E07
ENCODING 3591
SWIDTH 300 0
DWIDTH 9 0
BBX 7 12 0 0
BITMAP
0C
12
12
0E
02
82
42
22
12
0A
06
02
ENDCHAR
STARTCHAR 0E08
ENCODING 3592
SWIDTH 366 0
DWIDTH 11 0
BBX 8 12 1 0
BITMAP
3E
C3
81
01
31
49
49
39
09
09
09
07
ENDCHAR
STARTCHAR 0E09
ENCODING 3593
SWIDTH 366 0
DWIDTH 11 0
BBX 9 12 1 0
BITMAP
3E00
C300
8180
0080
E080
A080
A080
E100
2100
6680
7C80
6380
ENDCHAR
STARTCHAR 0E0A
ENCODING 3594
SWIDTH 366 0
DWIDTH 11 0
BBX 10 12 0 0
BITMAP
3C40
4640
B280
5780
7440
0C40
0840
0840
0840
0840
0CC0
0780
ENDCHAR
STARTCHAR 0E0B
ENCODING 3595
SWIDTH 400 0
DWIDTH 12 0
BBX 10 12 0 0
BITMAP
2C40
5240
4280
F280
D640
5440
7C40
0840
0840
0840
0CC0
0780
ENDCHAR
STARTCHAR 0E0C
ENCODING 3596
SWIDTH 533 0
DWIDTH 16 0
BBX 13 12 1 0
BITMAP
3E08
6308
8108
E108
3108
4108
4108
4108
7388
52E8
D698
7388
ENDCHAR
STARTCHAR 0E0D
ENCODING 3597
SWIDTH 533 0
DWIDTH 16 0
BBX 13 17 1 -5
BITMAP
3C08
4208
8108
6108
5108
4108
4108
4108
7108
4908
4908
70F0
0000
0188
0248
0248
01F0
ENDCHAR
STARTCHAR 0E0E
ENCODING 3598
SWIDTH 433 0
DWIDTH 13 0
BBX 10 19 1 -7
BITMAP
0F00
3080
2040
7040
1840
2040
2040
2040
E040
B040
9040
E040
0040
0440
0440
3C40
2B40
68C0
3840
ENDCHAR
STARTCHAR 0E0F
ENCODING 3599
SWIDTH 433 0
DWIDTH 13 0
BBX 10 19 1 -7
BITMAP
0F00
3080
2040
7040
1840
2040
2040
2040
E040
B040
9040
E040
0040
0840
0840
7040
9940
9F40
60C0
ENDCHAR
STARTCHAR 0E10
ENCODING 3600
SWIDTH 333 0
DWIDTH 10 0
BBX 10 19 0 -7
BITMAP
3CC0
6380
7000
1C00
3300
4900
4900
3900
0900
0900
0900
0700
0000
0B00
1480
F480
9380
AE80
E100
ENDCHAR
STARTCHAR 0E11
ENCODING 3601
SWIDTH 466 0
DWIDTH 14 0
BBX 12 12 0 0
BITMAP
3C70
5A50
5290
F290
D710
5510
7510
0A10
0A10
0A10
0C10
0C10
ENDCHAR
STARTCHAR 0E12
ENCODING 3602
SWIDTH 533 0
DWIDTH 16 0
BBX 13 12 1 0
BITMAP
2208
5508
8988
9C88
A488
9488
5C88
4888
5188
6268
6258
4188
ENDCHAR
STARTCHAR 0E13
ENCODING 3603
SWIDTH 533 0
DWIDTH 16 0
BBX 14 12 1 0
BITMAP
3C04
4204
8104
7104
4104
4104
410C
4108
711C
4964
49A4
719C
ENDCHAR
STARTCHAR 0E14
ENCODING 3604
SWIDTH 400 0
DWIDTH 12 0
BBX 9 12 1 0
BITMAP
3E00
6100
C080
9C80
9480
9480
8C80
4880
5080
6080
6080
4080
ENDCHAR
STARTCHAR 0E15
ENCODING 3605
SWIDTH 400 0
DWIDTH 12 0
BBX 9 12 1 0
BITMAP
2200
5500
8880
9C80
9480
9480
9C80
4880
5080
6080
6080
4080
ENDCHAR
STARTCHAR 0E16
ENCODING 3606
SWIDTH 366 0
DWIDTH 11 0
BBX 9 12 1 0
BITMAP
3E00
4300
8100
6080
4080
4080
4080
4080
7080
5080
4880
7080
ENDCHAR
STARTCHAR 0E17
ENCODING 3607
SWIDTH 433 0
DWIDTH 13 0
BBX 10 12 1 0
BITMAP
E1C0
A240
A240
E240
2440
2440
2C40
2840
2840
3040
3040
3040
ENDCHAR
STARTCHAR 0E18
ENCODING 3608
SWIDTH 333 0
DWIDTH 10 0
BBX 8 12 1 0
BITMAP
79
87
E0
1C
02
42
42
42
42
42
42
3C
ENDCHAR
STARTCHAR 0E19
ENCODING 3609
SWIDTH 433 0
DWIDTH 13 0
BBX 11 12 1 0
BITMAP
E040
A040
A040
E040
2040
2040
2040
2040
20C0
2340
2D60
31C0
ENDCHAR
STARTCHAR 0E1A
ENCODING 3610
SWIDTH 433 0
DWIDTH 13 0
BBX 10 12 1 0
BITMAP
E040
A040
A040
E040
2040
2040
2040
2040
2040
2040
10C0
0F80
ENDCHAR
STARTCHAR 0E1B
ENCODING 3611
SWIDTH 433 0
DWIDTH 13 0
BBX 10 17 1 0
BITMAP
0040
0040
0040
0040
0040
E040
A040
A040
E040
2040
2040
2040
2040
2040
2040
10C0
0F80
ENDCHAR
STARTCHAR 0E1C
ENCODING 3612
SWIDTH 366 0
DWIDTH 11 0
BBX 9 12 1 0
BITMAP
6080
9080
9080
E080
8080
8080
8880
9480
B480
A280
C180
C180
ENDCHAR
STARTCHAR 0E1D
ENCODING 3613
SWIDTH 366 0
DWIDTH 11 0
BBX 9 17 1 0
BITMAP
0080
0080
0080
0080
0080
6080
9080
9080
E080
8080
8080
8880
9480
A480
A280
C180
C180
ENDCHAR
STARTCHAR 0E1E
ENCODING 3614
SWIDTH 433 0
DWIDTH 13 0
BBX 11 12 1 0
BITMAP
E220
A220
A520
E520
2520
24A0
28A0
28A0
28A0
3060
3060
3060
ENDCHAR
STARTCHAR 0E1F
ENCODING 3615
SWIDTH 433 0
DWIDTH 13 0
BBX 11 17 1 0
BITMAP
0020
0020
0020
0020
0020
E220
A220
A520
E520
2520
28A0
28A0
28A0
28A0
3060
3060
3060
ENDCHAR
STARTCHAR 0E20
ENCODING 3616
SWIDTH 433 0
DWIDTH 13 0
BBX 10 12 1 0
BITMAP
0F00
3080
2040
7040
1840
2040
2040
2040
E040
B040
9040
E040
ENDCHAR
STARTCHAR 0E21
ENCODING 3617
SWIDTH 400 0
DWIDTH 12 0
BBX 9 12 1 0
BITMAP
E080
A080
A080
E080
2080
2080
2080
2080
F080
9C80
9380
E180
ENDCHAR
STARTCHAR 0E22
ENCODING 3618
SWIDTH 366 0
DWIDTH 11 0
BBX 9 12 1 0
BITMAP
7180
D180
D980
B180
4180
3980
4180
C180
C180
C180
4100
3E00
ENDCHAR
STARTCHAR 0E23
ENCODING 3619
SWIDTH 333 0
DWIDTH 10 0
BBX 8 12 1 0
BITMAP
73
CE
80
F8
04
02
02
02
1E
16
16
1C
ENDCHAR
STARTCHAR 0E24
ENCODING 3620
SWIDTH 366 0
DWIDTH 11 0
BBX 9 18 1 -6
BITMAP
3E00
4300
8100
E080
2080
4080
4080
4080
7080
5080
5880
7080
0080
0080
0080
0080
0080
0080
ENDCHAR
STARTCHAR 0E25
ENCODING 3621
SWIDTH 366 0
DWIDTH 11 0
BBX 9 12 1 0
BITMAP
3E00
C100
8180
0080
3E80
4180
C080
C080
F080
D080
D080
7080
ENDCHAR
STARTCHAR 0E26
ENCODING 3622
SWIDTH 433 0
DWIDTH 13 0
BBX 10 18 1 -6
BITMAP
0F00
3080
2040
7840
1040
2040
2040
2040
F040
B040
9040
E040
0040
0040
0040
0040
0040
0040
ENDCHAR
STARTCHAR 0E27
ENCODING 3623
SWIDTH 333 0
DWIDTH 10 0
BBX 8 12 0 0
BITMAP
3E
43
C1
01
01
01
01
01
07
0D
0D
07
ENDCHAR
STARTCHAR 0E28
ENCODING 3624
SWIDTH 400 0
DWIDTH 12 0
BBX 10 13 1 0
BITMAP
00C0
3F00
6300
C780
9C80
9480
B680
EC80
6080
4080
4080
4080
4080
ENDCHAR
STARTCHAR 0E29
ENCODING 3625
SWIDTH 433 0
DWIDTH 13 0
BBX 12 12 1 0
BITMAP
E040
A040
A040
E640
2940
2950
27E0
2040
2040
2040
1040
0F80
ENDCHAR
STARTCHAR 0E2A
ENCODING 3626
SWIDTH 366 0
DWIDTH 11 0
BBX 9 13 1 0
BITMAP
0080
3E80
C300
8380
0480
3E80
6180
C080
C080
F080
D080
D080
7080
ENDCHAR
STARTCHAR 0E2B
ENCODING 3627
SWIDTH 433 0
DWIDTH 13 0
BBX 11 12 1 0
BITMAP
E1C0
A120
A120
E1C0
2340
2240
2440
2440
2840
2840
3040
3040
ENDCHAR
STARTCHAR 0E2C
ENCODING 3628
SWIDTH 466 0
DWIDTH 14 0
BBX 12 13 1 0
BITMAP
0030
E0E0
A120
A120
E0E0
2020
2220
2520
2520
28A0
28A0
3060
3060
ENDCHAR
STARTCHAR 0E2D
ENCODING 3629
SWIDTH 400 0
DWIDTH 12 0
BBX 9 12 1 0
BITMAP
3E00
4300
8080
0080
3080
4880
4880
7080
4080
4080
6180
3F00
ENDCHAR
STARTCHAR 0E2E
ENCODING 3630
SWIDTH 366 0
DWIDTH 11 0
BBX 9 12 1 0
BITMAP
3E80
C380
8100
7F00
0100
7100
D100
D100
F100
C100
4100
3E00
ENDCHAR
STARTCHAR 0E2F
ENCODING 3631
SWIDTH 400 0
DWIDTH 12 0
BBX 8 12 2 0
BITMAP
E7
A5
A9
71
01
01
01
01
01
01
01
01
ENDCHAR
STARTCHAR 0E30
ENCODING 3632
SWIDTH 366 0
DWIDTH 11 0
BBX 8 10 1 1
BITMAP
E1
91
92
7C
00
00
E1
91
92
7C
ENDCHAR
STARTCHAR 0E31
ENCODING 3633
SWIDTH 0 0
DWIDTH 0 0
BBX 8 4 -7 14
BITMAP
61
91
92
7C
ENDCHAR
STARTCHAR 0E32
ENCODING 3634
SWIDTH 300 0
DWIDTH 9 0
BBX 7 12 1 0
BITMAP
78
C4
82
02
02
02
02
02
02
02
02
02
ENDCHAR
STARTCHAR 0E33
ENCODING 3635
SWIDTH 300 0
DWIDTH 9 0
BBX 13 18 -5 0
BITMAP
7000
8800
8800
7000
0000
0000
01E0
0310
0208
0008
0008
0008
0008
0008
0008
0008
0008
0008
ENDCHAR
STARTCHAR 0E34
ENCODING 3636
SWIDTH 0 0
DWIDTH 0 0
BBX 9 4 -10 14
BITMAP
7C00
C200
FD00
0380
ENDCHAR
STARTCHAR 0E35
ENCODING 3637
SWIDTH 0 0
DWIDTH 0 0
BBX 9 5 -10 14
BITMAP
0100
7D00
C300
FD00
0380
ENDCHAR
STARTCHAR 0E36
ENCODING 3638
SWIDTH 0 0
DWIDTH 0 0
BBX 9 5 -10 14
BITMAP
0180
7A80
C780
FD00
0380
ENDCHAR
STARTCHAR 0E37
ENCODING 3639
SWIDTH 0 0
DWIDTH 0 0
BBX 9 5 -10 14
BITMAP
0500
7D00
C300
FD00
0380
ENDCHAR
STARTCHAR 0E38
ENCODING 3640
SWIDTH 0 0
DWIDTH 0 0
BBX 3 6 -5 -7
BITMAP
60
A0
60
20
20
20
ENDCHAR
STARTCHAR 0E39
ENCODING 3641
SWIDTH 0 0
DWIDTH 0 0
BBX 6 6 -8 -8
BITMAP
E4
A4
E4
24
24
18
ENDCHAR
STARTCHAR 0E3A
ENCODING 3642
SWIDTH 0 0
DWIDTH 0 0
BBX 2 1 -3 -3
BITMAP
C0
ENDCHAR
STARTCHAR 0E3F
ENCODING 3647
SWIDTH 400 0
DWIDTH 12 0
BBX 8 18 2 -2
BITMAP
10
10
F8
86
82
83
82
86
FC
82
81
81
81
87
FE
10
10
10
ENDCHAR
STARTCHAR 0E40
ENCODING 3648
SWIDTH 200 0
DWIDTH 6 0
BBX 4 12 2 0
BITMAP
80
80
80
80
80
80
80
80
E0
B0
B0
E0
ENDCHAR
STARTCHAR 0E41
ENCODING 3649
SWIDTH 366 0
DWIDTH 11 0
BBX 9 12 2 0
BITMAP
8400
8400
8400
8400
8400
8400
8400
8400
E700
B480
9480
E700
ENDCHAR
STARTCHAR 0E42
ENCODING 3650
SWIDTH 233 0
DWIDTH 7 0
BBX 8 20 -1 0
BITMAP
72
8E
C0
30
10
08
08
08
08
08
08
08
08
08
08
08
0E
09
0B
0E
ENDCHAR
STARTCHAR 0E43
ENCODING 3651
SWIDTH 233 0
DWIDTH 7 0
BBX 8 20 -1 0
BITMAP
78
CC
A4
AC
48
08
08
08
08
08
08
08
08
08
08
08
0E
09
09
0E
ENDCHAR
STARTCHAR 0E44
ENCODING 3652
SWIDTH 233 0
DWIDTH 7 0
BBX 8 20 -1 0
BITMAP
88
98
A8
C8
48
08
08
08
08
08
08
08
08
08
08
08
0E
09
09
0E
ENDCHAR
STARTCHAR 0E45
ENCODING 3653
SWIDTH 200 0
DWIDTH 6 0
BBX 7 18 -3 -6
BITMAP
3C
42
C2
02
02
02
02
02
02
02
02
02
02
02
02
02
02
02
ENDCHAR
STARTCHAR 0E46
ENCODING 3654
SWIDTH 400 0
DWIDTH 12 0
BBX 8 17 2 -5
BITMAP
64
9A
E1
91
91
61
01
01
01
01
01
01
01
01
01
01
01
ENDCHAR
STARTCHAR 0E47
ENCODING 3655
SWIDTH 0 0
DWIDTH 0 0
BBX 7 7 -9 14
BITMAP
02
02
7C
C0
86
BA
4E
ENDCHAR
STARTCHAR 0E48
ENCODING 3656
SWIDTH 0 0
DWIDTH 0 0
BBX 1 4 -3 20
BITMAP
80
80
80
80
ENDCHAR
STARTCHAR 0E49
ENCODING 3657
SWIDTH 0 0
DWIDTH 0 0
BBX 7 6 -6 20
BITMAP
60
A2
A2
66
2C
70
ENDCHAR
STARTCHAR 0E4A
ENCODING 3658
SWIDTH 0 0
DWIDTH 0 0
BBX 8 5 -7 20
BITMAP
68
55
E5
A6
6C
ENDCHAR
STARTCHAR 0E4B
ENCODING 3659
SWIDTH 0 0
DWIDTH 0 0
BBX 4 5 -4 19
BITMAP
40
40
F0
40
40
ENDCHAR
STARTCHAR 0E4C
ENCODING 3660
SWIDTH 0 0
DWIDTH 0 0
BBX 5 5 -5 19
BITMAP
18
60
C0
A0
40
ENDCHAR
STARTCHAR 0E4D
ENCODING 3661
SWIDTH 0 0
DWIDTH 0 0
BBX 5 4 -5 14
BITMAP
70
88
88
70
ENDCHAR
STARTCHAR 0E4E
ENCODING 3662
SWIDTH 0 0
DWIDTH 0 0
BBX 5 6 -6 14
BITMAP
38
40
30
C0
80
60
ENDCHAR
STARTCHAR 0E4F
ENCODING 3663
SWIDTH 466 0
DWIDTH 14 0
BBX 10 10 2 0
BITMAP
1E00
6100
DC80
B2C0
A140
A140
A2C0
DC80
6100
1E00
ENDCHAR
STARTCHAR 0E50
ENCODING 3664
SWIDTH 433 0
DWIDTH 13 0
BBX 11 9 1 0
BITMAP
1F00
60C0
4060
8020
8020
8020
4060
60C0
1F00
ENDCHAR
STARTCHAR 0E51
ENCODING 3665
SWIDTH 433 0
DWIDTH 13 0
BBX 11 10 1 -1
BITMAP
1F00
60C0
4060
8E20
8920
8920
8F20
4220
3C20
0040
ENDCHAR
STARTCHAR 0E52
ENCODING 3666
SWIDTH 433 0
DWIDTH 13 0
BBX 12 14 0 0
BITMAP
C000
4000
4000
4000
4000
4760
4990
4E90
4A10
4A10
4E10
2010
3020
0FC0
ENDCHAR
STARTCHAR 0E53
ENCODING 3667
SWIDTH 433 0
DWIDTH 13 0
BBX 11 9 1 0
BITMAP
39C0
4720
8220
8220
8220
F220
D220
9A20
7220
ENDCHAR
STARTCHAR 0E54
ENCODING 3668
SWIDTH 433 0
DWIDTH 13 0
BBX 13 12 1 0
BITMAP
0008
0010
0020
1FC0
6000
C000
8E00
8900
8900
8E00
4380
3E70
ENDCHAR
STARTCHAR 0E55
ENCODING 3669
SWIDTH 433 0
DWIDTH 13 0
BBX 13 12 1 0
BITMAP
0708
0910
0D20
1FC0
6000
C000
8E00
8900
8900
8E00
4380
3E70
ENDCHAR
STARTCHAR 0E56
ENCODING 3670
SWIDTH 433 0
DWIDTH 13 0
BBX 12 12 1 0
BITMAP
8000
8000
4000
4F80
7060
4020
0030
3030
4820
4820
3840
1F80
ENDCHAR
STARTCHAR 0E57
ENCODING 3671
SWIDTH 433 0
DWIDTH 13 0
BBX 12 12 1 0
BITMAP
0010
0010
0010
7310
CC90
8C90
88D0
88D0
F0A0
90A0
90A0
71C0
ENDCHAR
STARTCHAR 0E58
ENCODING 3672
SWIDTH 433 0
DWIDTH 13 0
BBX 12 12 1 0
BITMAP
0020
0020
0020
3FC0
6000
C000
80E0
80A0
89B0
9CE0
6620
41C0
ENDCHAR
STARTCHAR 0E59
ENCODING 3673
SWIDTH 433 0
DWIDTH 13 0
BBX 12 12 1 0
BITMAP
0020
0010
0010
3990
4660
8200
8100
8100
9880
A440
6460
3C30
ENDCHAR
STARTCHAR 0E5A
ENCODING 3674
SWIDTH 533 0
DWIDTH 16 0
BBX 12 12 2 0
BITMAP
E770
A550
A990
7110
0110
0110
0110
0110
0110
0110
0110
0110
ENDCHAR
STARTCHAR 0E5B
ENCODING 3675
SWIDTH 700 0
DWIDTH 21 0
BBX 18 9 2 1
BITMAP
3C0000
6C0000
434000
9EBA00
94FD00
9CEAC0
414000
630000
3E0000
ENDCHAR
STARTCHAR 1EA0
ENCODING 7840
SWIDTH 400 0
DWIDTH 12 0
BBX 200 17 0 -3
BITMAP
06000000000000000000000000000000000000000000000000
06000000000000000000000000000000000000000000000000
09000000000000000000000000000000000000000000000000
09000000000000000000000000000000000000000000000000
09000000000000000000000000000000000000000000000000
10800000000000000000000000000000000000000000000000
10800000000000000000000000000000000000000000000000
20800000000000000000000000000000000000000000000000
3FC00000000000000000000000000000000000000000000000
20400000000000000000000000000000000000000000000000
40200000000000000000000000000000000000000000000000
40200000000000000000000000000000000000000000000000
40200000000000000000000000000000000000000000000000
80100000000000000000000000000000000000000000000000
00000000000000000000000000000000000000000000000000
00000000000000000000000000000000000000000000000000
00000000000000000000000000000000000000000000000001
ENDCHAR
STARTCHAR 1EA1
ENCODING 7841
SWIDTH 333 0
DWIDTH 10 0
BBX 199 13 1 -3
BITMAP
FC000000000000000000000000000000000000000000000000
82000000000000000000000000000000000000000000000000
03000000000000000000000000000000000000000000000000
01000000000000000000000000000000000000000000000000
3F000000000000000000000000000000000000000000000000
61000000000000000000000000000000000000000000000000
81000000000000000000000000000000000000000000000000
83000000000000000000000000000000000000000000000000
87000000000000000000000000000000000000000000000000
79000000000000000000000000000000000000000000000000
00000000000000000000000000000000000000000000000000
00000000000000000000000000000000000000000000000000
00000000000000000000000000000000000000000000000006
ENDCHAR
STARTCHAR 1EA2
ENCODING 7842
SWIDTH 400 0
DWIDTH 12 0
BBX 161 51 0 0
BITMAP
000000000000000000000000000000000000000080
000000000000000000000000000000000000000080
000000000000000000000000000000000000000000
000000000000000000000000000000000000000000
000000000000000000000000000000000000000000
000000000000000000000000000000000000000000
000000000000000000000000000000000000000000
000000000000000000000000000000000000000000
000000000000000000000000000000000000000000
000000000000000000000000000000000000000000
000000000000000000000000000000000000000000
000000000000000000000000000000000000000000
000000000000000000000000000000000000000000
000000000000000000000000000000000000000000
000000000000000000000000000000000000000000
000000000000000000000000000000000000000000
000000000000000000000000000000000000000000
000000000000000000000000000000000000000000
000000000000000000000000000000000000000000
000000000000000000000000000000000000000000
000000000000000000000000000000000000000000
000000000000000000000000000000000000000000
000000000000000000000000000000000000000000
000000000000000000000000000000000000000000
000000000000000000000000000000000000000000
000000000000000000000000000000000000000000
000000000000000000000000000000000000000000
000000000000000000000000000000000000000000
000000000000000000000000000000000000000000
000000000000000000000000000000000000000000
000000000000000000000000000000000000000000
000000000000000000000000000000000000000000
000000000000000000000000000000000000000000
000000000000000000000000000000000000000000
000000000000000000000000000000000000000000
000000000000000000000000000000000000000000
000000000000000000000000000000000000000000
060000000000000000000000000000000000000000
060000000000000000000000000000000000000000
090000000000000000000000000000000000000000
090000000000000000000000000000000000000000
090000000000000000000000000000000000000000
108000000000000000000000000000000000000000
108000000000000000000000000000000000000000
208000000000000000000000000000000000000000
3FC000000000000000000000000000000000000000
204000000000000000000000000000000000000000
402000000000000000000000000000000000000000
402000000000000000000000000000000000000000
402000000000000000000000000000000000000000
801000000000000000000000000000000000000000
ENDCHAR
STARTCHAR 1EA3
ENCODING 7843
SWIDTH 333 0
DWIDTH 10 0
BBX 144 43 1 0
BITMAP
000000000000000000000000000000000001
000000000000000000000000000000000002
000000000000000000000000000000000000
000000000000000000000000000000000000
000000000000000000000000000000000000
000000000000000000000000000000000000
000000000000000000000000000000000000
000000000000000000000000000000000000
000000000000000000000000000000000000
000000000000000000000000000000000000
000000000000000000000000000000000000
000000000000000000000000000000000000
000000000000000000000000000000000000
000000000000000000000000000000000000
000000000000000000000000000000000000
000000000000000000000000000000000000
000000000000000000000000000000000000
000000000000000000000000000000000000
000000000000000000000000000000000000
000000000000000000000000000000000000
000000000000000000000000000000000000
000000000000000000000000000000000000
000000000000000000000000000000000000
000000000000000000000000000000000000
000000000000000000000000000000000000
000000000000000000000000000000000000
000000000000000000000000000000000000
000000000000000000000000000000000000
000000000000000000000000000000000000
000000000000000000000000000000000000
000000000000000000000000000000000000
000000000000000000000000000000000000
000000000000000000000000000000000000
FC0000000000000000000000000000000000
820000000000000000000000000000000000
030000000000000000000000000000000000
010000000000000000000000000000000000
3F0000000000000000000000000000000000
610000000000000000000000000000000000
810000000000000000000000000000000000
830000000000000000000000000000000000
870000000000000000000000000000000000
790000000000000000000000000000000000
ENDCHAR
STARTCHAR 1EA4
ENCODING 7844
SWIDTH 400 0
DWIDTH 12 0
BBX 164 39 0 0
BITMAP
000000100000000000000000000000000000000000
000000100000000000000000000000000000000000
000000100000000000000000000000000000000000
000000100000000000000000000000000000000000
000000100000000000000000000000000000000000
000000100000000000000000000000000000000000
000000180000000000000000000000000000000000
000000380000000000000000000000000000000000
000000380000000000000000000000000000000000
000000380000000000000000000000000000000000
000000380000000000000000000000000000000000
000000380000000000000000000000000000000000
000000380000000000000000000000000000000000
000000380000000000000000000000000000000000
000000380000000000000000000000000000000000
000000380000000000000000000000000000000000
000000380000000000000000000000000000000000
0000003C0000000000000000000000000000000000
0000007C0000000000000000000000000000000000
0000007C0000000000000000000000000000000010
0000007C0000000000000000000000000000000010
0000006C0000000000000000000000000000000000
0000006C0000000000000000000000000000000000
000000000000000000000000000000000000000000
000000000000000000000000000000000000000000
060000000000000000000000000000000000000000
060000000000000000000000000000000000000000
090000000000000000000000000000000000000000
090000000000000000000000000000000000000000
090000000000000000000000000000000000000000
108000000000000000000000000000000000000000
108000000000000000000000000000000000000000
208000000000000000000000000000000000000000
3FC000000000000000000000000000000000000000
204000000000000000000000000000000000000000
402000000000000000000000000000000000000000
402000000000000000000000000000000000000000
402000000000000000000000000000000000000000
801000000000000000000000000000000000000000
ENDCHAR
STARTCHAR 1EA5
ENCODING 7845
SWIDTH 333 0
DWIDTH 10 0
BBX 162 35 1 0
BITMAP
000000400000000000000000000000000000000000
000000400000000000000000000000000000000000
000000400000000000000000000000000000000000
000000400000000000000000000000000000000000
000000600000000000000000000000000000000000
000000600000000000000000000000000000000000
000000600000000000000000000000000000000000
000000600000000000000000000000000000000000
000000600000000000000000000000000000000000
000000E00000000000000000000000000000000000
000000E00000000000000000000000000000000000
000000E00000000000000000000000000000000000
000000E00000000000000000000000000000000000
000000E00000000000000000000000000000000000
000000E00000000000000000000000000000000000
000000F00000000000000000000000000000000000
000000F00000000000000000000000000000000000
000000F00000000000000000000000000000000000
000000F00000000000000000000000000000000000
000000F00000000000000000000000000000000040
000001F00000000000000000000000000000000040
000001F00000000000000000000000000000000000
000001900000000000000000000000000000000000
000000000000000000000000000000000000000000
000000000000000000000000000000000000000000
FC0000000000000000000000000000000000000000
820000000000000000000000000000000000000000
030000000000000000000000000000000000000000
010000000000000000000000000000000000000000
3F0000000000000000000000000000000000000000
610000000000000000000000000000000000000000
810000000000000000000000000000000000000000
830000000000000000000000000000000000000000
870000000000000000000000000000000000000000
790000000000000000000000000000000000000000
ENDCHAR
STARTCHAR 1EA6
ENCODING 7846
SWIDTH 400 0
DWIDTH 12 0
BBX 151 39 0 0
BITMAP
00000010000000000000000000000000000000
00000010000000000000000000000000000000
00000010000000000000000000000000000000
00000010000000000000000000000000000000
00000010000000000000000000000000000000
00000010000000000000000000000000000000
00000018000000000000000000000000000000
00000038000000000000000000000000000000
00000038000000000000000000000000000000
00000038000000000000000000000000000000
00000038000000000000000000000000000000
00000038000000000000000000000000000000
00000038000000000000000000000000000000
00000038000000000000000000000000000000
00000038000000000000000000000000000000
00000038000000000000000000000000000000
00000038000000000000000000000000000000
0000003C000000000000000000000000000000
0000007C000000000000000000000000000000
0000007C000000000000000000000000000002
0000007C000000000000000000000000000002
0000006C000000000000000000000000000000
0000006C000000000000000000000000000000
00000000000000000000000000000000000000
00000000000000000000000000000000000000
06000000000000000000000000000000000000
06000000000000000000000000000000000000
09000000000000000000000000000000000000
09000000000000000000000000000000000000
09000000000000000000000000000000000000
10800000000000000000000000000000000000
10800000000000000000000000000000000000
20800000000000000000000000000000000000
3FC00000000000000000000000000000000000
20400000000000000000000000000000000000
40200000000000000000000000000000000000
40200000000000000000000000000000000000
40200000000000000000000000000000000000
80100000000000000000000000000000000000
ENDCHAR
STARTCHAR 1EA7
ENCODING 7847
SWIDTH 333 0
DWIDTH 10 0
BBX 149 35 1 0
BITMAP
00000040000000000000000000000000000000
00000040000000000000000000000000000000
00000040000000000000000000000000000000
00000040000000000000000000000000000000
00000060000000000000000000000000000000
00000060000000000000000000000000000000
00000060000000000000000000000000000000
00000060000000000000000000000000000000
00000060000000000000000000000000000000
000000E0000000000000000000000000000000
000000E0000000000000000000000000000000
000000E0000000000000000000000000000000
000000E0000000000000000000000000000000
000000E0000000000000000000000000000000
000000E0000000000000000000000000000000
000000F0000000000000000000000000000000
000000F0000000000000000000000000000000
000000F0000000000000000000000000000000
000000F0000000000000000000000000000000
000000F0000000000000000000000000000008
000001F0000000000000000000000000000008
000001F0000000000000000000000000000000
00000190000000000000000000000000000000
00000000000000000000000000000000000000
00000000000000000000000000000000000000
FC000000000000000000000000000000000000
82000000000000000000000000000000000000
03000000000000000000000000000000000000
01000000000000000000000000000000000000
3F000000000000000000000000000000000000
61000000000000000000000000000000000000
81000000000000000000000000000000000000
83000000000000000000000000000000000000
87000000000000000000000000000000000000
79000000000000000000000000000000000000
ENDCHAR
STARTCHAR 1EA8
ENCODING 7848
SWIDTH 400 0
DWIDTH 12 0
BBX 149 49 0 0
BITMAP
00000000000000000000000000000000000008
00000000000000000000000000000000000010
00000000000000000000000000000000000000
00000000000000000000000000000000000000
00000000000000000000000000000000000000
00000000000000000000000000000000000000
00000000000000000000000000000000000000
00000000000000000000000000000000000000
00000000000000000000000000000000000000
00000000000000000000000000000000000000
00000010000000000000000000000000000000
00000010000000000000000000000000000000
00000010000000000000000000000000000000
00000010000000000000000000000000000000
00000010000000000000000000000000000000
00000010000000000000000000000000000000
00000018000000000000000000000000000000
00000038000000000000000000000000000000
00000038000000000000000000000000000000
00000038000000000000000000000000000000
00000038000000000000000000000000000000
00000038000000000000000000000000000000
00000038000000000000000000000000000000
00000038000000000000000000000000000000
00000038000000000000000000000000000000
00000038000000000000000000000000000000
00000038000000000000000000000000000000
0000003C000000000000000000000000000000
0000007C000000000000000000000000000000
0000007C000000000000000000000000000000
0000007C000000000000000000000000000000
0000006C000000000000000000000000000000
0000006C000000000000000000000000000000
00000000000000000000000000000000000000
00000000000000000000000000000000000000
06000000000000000000000000000000000000
06000000000000000000000000000000000000
09000000000000000000000000000000000000
09000000000000000000000000000000000000
09000000000000000000000000000000000000
10800000000000000000000000000000000000
10800000000000000000000000000000000000
20800000000000000000000000000000000000
3FC00000000000000000000000000000000000
20400000000000000000000000000000000000
40200000000000000000000000000000000000
40200000000000000000000000000000000000
40200000000000000000000000000000000000
80100000000000000000000000000000000000
ENDCHAR
STARTCHAR 1EA9
ENCODING 7849
SWIDTH 333 0
DWIDTH 10 0
BBX 146 45 1 0
BITMAP
00000000000000000000000000000000000040
00000000000000000000000000000000000040
00000000000000000000000000000000000000
00000000000000000000000000000000000000
00000000000000000000000000000000000000
00000000000000000000000000000000000000
00000000000000000000000000000000000000
00000000000000000000000000000000000000
00000000000000000000000000000000000000
00000000000000000000000000000000000000
00000040000000000000000000000000000000
00000040000000000000000000000000000000
00000040000000000000000000000000000000
00000040000000000000000000000000000000
00000060000000000000000000000000000000
00000060000000000000000000000000000000
00000060000000000000000000000000000000
00000060000000000000000000000000000000
00000060000000000000000000000000000000
000000E0000000000000000000000000000000
000000E0000000000000000000000000000000
000000E0000000000000000000000000000000
000000E0000000000000000000000000000000
000000E0000000000000000000000000000000
000000E0000000000000000000000000000000
000000F0000000000000000000000000000000
000000F0000000000000000000000000000000
000000F0000000000000000000000000000000
000000F0000000000000000000000000000000
000000F0000000000000000000000000000000
000001F0000000000000000000000000000000
000001F0000000000000000000000000000000
00000190000000000000000000000000000000
00000000000000000000000000000000000000
00000000000000000000000000000000000000
FC000000000000000000000000000000000000
82000000000000000000000000000000000000
03000000000000000000000000000000000000
01000000000000000000000000000000000000
3F000000000000000000000000000000000000
61000000000000000000000000000000000000
81000000000000000000000000000000000000
83000000000000000000000000000000000000
87000000000000000000000000000000000000
79000000000000000000000000000000000000
ENDCHAR
STARTCHAR 1EAA
ENCODING 7850
SWIDTH 400 0
DWIDTH 12 0
BBX 239 98 0 0
BITMAP
000000000000000000000000000000000000000000000000000000000012
00000000000000000000000000000000000000000000000000000000003E
00000000000000000000000000000000000000000000000000000000003E
00000000000000000000000000000000000000000000000000000000003E
00000000000000000000000000000000000000000000000000000000003E
00000000000000000000000000000000000000000000000000000000003E
00000000000000000000000000000000000000000000000000000000003E
00000000000000000000000000000000000000000000000000000000003E
00000000000000000000000000000000000000000000000000000000003E
00000000000000000000000000000000000000000000000000000000003E
00000000000000000000000000000000000000000000000000000000003E
00000000000000000000000000000000000000000000000000000000003E
00000000000000000000000000000000000000000000000000000000003E
00000000000000000000000000000000000000000000000000000000003E
00000000000000000000000000000000000000000000000000000000003E
00000000000000000000000000000000000000000000000000000000003E
00000000000000000000000000000000000000000000000000000000003E
00000000000000000000000000000000000000000000000000000000003E
00000000000000000000000000000000000000000000000000000000003E
00000000000000000000000000000000000000000000000000000000003E
00000000000000000000000000000000000000000000000000000000003E
00000000000000000000000000000000000000000000000000000000003E
00000000000000000000000000000000000000000000000000000000003E
00000000000000000000000000000000000000000000000000000000003E
00000000000000000000000000000000000000000000000000000000003E
00000000000000000000000000000000000000000000000000000000003E
00000000000000000000000000000000000000000000000000000000003E
00000000000000000000000000000000000000000000000000000000003E
00000000000000000000000000000000000000000000000000000000003E
00000000000000000000000000000000000000000000000000000000003E
00000000000000000000000000000000000000000000000000000000003E
00000000000000000000000000000000000000000000000000000000003E
00000000000000000000000000000000000000000000000000000000003E
00000000000000000000000000000000000000000000000000000000003E
00000000000000000000000000000000000000000000000000000000003E
00000000000000000000000000000000000000000000000000000000003E
00000000000000000000000000000000000000000000000000000000003E
00000000000000000000000000000000000000000000000000000000003E
00000000000000000000000000000000000000000000000000000000003E
00000000000000000000000000000000000000000000000000000000003E
00000000000000000000000000000000000000000000000000000000003E
00000000000000000000000000000000000000000000000000000000007E
00000000000000000000000000000000000000000000000000000000007C
00000000000000000000000000000000000000000000000000000000007C
00000000000000000000000000000000000000000000000000000000007C
00000000000000000000000000000000000000000000000000000000007C
00000000000000000000000000000000000000000000000000000000007C
00000000000000000000000000000000000000000000000000000000007C
00000000000000000000000000000000000000000000000000000000007C
00000000000000000000000000000000000000000000000000000000007C
00000000000000000000000000000000000000000000000000000000007C
00000000000000000000000000000000000000000000000000000000007C
00000000000000000000000000000000000000000000000000000000007C
00000000000000000000000000000000000000000000000000000000007C
00000000000000000000000000000000000000000000000000000000007C
00000000000000000000000000000000000000000000000000000000007C
00000000000000000000000000000000000000000000000000000000007C
00000000000000000000000000000000000000000000000000000000007C
00000000000000000000000000000000000000000000000000000000007C
00000010000000000000000000000000000000000000000000000000007C
00000010000000000000000000000000000000000000000000000000007C
00000010000000000000000000000000000000000000000000000000007C
00000010000000000000000000000000000000000000000000000000007C
00000010000000000000000000000000000000000000000000000000007C
00000010000000000000000000000000000000000000000000000000007C
00000018000000000000000000000000000000000000000000000000007C
00000038000000000000000000000000000000000000000000000000007C
00000038000000000000000000000000000000000000000000000000007C
00000038000000000000000000000000000000000000000000000000007C
00000038000000000000000000000000000000000000000000000000007C
00000038000000000000000000000000000000000000000000000000007C
00000038000000000000000000000000000000000000000000000000007C
00000038000000000000000000000000000000000000000000000000007C
00000038000000000000000000000000000000000000000000000000007C
00000038000000000000000000000000000000000000000000000000007C
00000038000000000000000000000000000000000000000000000000007C
0000003C000000000000000000000000000000000000000000000000007C
0000007C000000000000000000000000000000000000000000000000007C
0000007C0000000000000000000000000000000000000000000000000048
0000007C0000000000000000000000000000000000000000000000000000
0000006C0000000000000000000000000000000000000000000000000000
0000006C0000000000000000000000000000000000000000000000000000
000000000000000000000000000000000000000000000000000000000000
000000000000000000000000000000000000000000000000000000000000
060000000000000000000000000000000000000000000000000000000000
060000000000000000000000000000000000000000000000000000000000
090000000000000000000000000000000000000000000000000000000000
090000000000000000000000000000000000000000000000000000000000
090000000000000000000000000000000000000000000000000000000000
108000000000000000000000000000000000000000000000000000000000
108000000000000000000000000000000000000000000000000000000000
208000000000000000000000000000000000000000000000000000000000
3FC000000000000000000000000000000000000000000000000000000000
204000000000000000000000000000000000000000000000000000000000
402000000000000000000000000000000000000000000000000000000000
402000000000000000000000000000000000000000000000000000000000
402000000000000000000000000000000000000000000000000000000000
801000000000000000000000000000000000000000000000000000000000
ENDCHAR
STARTCHAR 1EAB
ENCODING 7851
SWIDTH 333 0
DWIDTH 10 0
BBX 237 94 1 0
BITMAP
000000000000000000000000000000000000000000000000000000000048
000000000000000000000000000000000000000000000000000000000078
000000000000000000000000000000000000000000000000000000000078
0000000000000000000000000000000000000000000000000000000000F8
0000000000000000000000000000000000000000000000000000000000F8
0000000000000000000000000000000000000000000000000000000000F8
0000000000000000000000000000000000000000000000000000000000F8
0000000000000000000000000000000000000000000000000000000000F8
0000000000000000000000000000000000000000000000000000000000F8
0000000000000000000000000000000000000000000000000000000000F8
0000000000000000000000000000000000000000000000000000000000F8
0000000000000000000000000000000000000000000000000000000000F8
0000000000000000000000000000000000000000000000000000000000F8
0000000000000000000000000000000000000000000000000000000000F8
0000000000000000000000000000000000000000000000000000000000F8
0000000000000000000000000000000000000000000000000000000000F8
0000000000000000000000000000000000000000000000000000000000F8
0000000000000000000000000000000000000000000000000000000000F8
0000000000000000000000000000000000000000000000000000000000F8
0000000000000000000000000000000000000000000000000000000000F8
0000000000000000000000000000000000000000000000000000000000F8
0000000000000000000000000000000000000000000000000000000000F8
0000000000000000000000000000000000000000000000000000000000F8
0000000000000000000000000000000000000000000000000000000000F8
0000000000000000000000000000000000000000000000000000000000F8
0000000000000000000000000000000000000000000000000000000000F8
0000000000000000000000000000000000000000000000000000000000F8
0000000000000000000000000000000000000000000000000000000000F8
0000000000000000000000000000000000000000000000000000000000F8
0000000000000000000000000000000000000000000000000000000000F8
0000000000000000000000000000000000000000000000000000000000F8
0000000000000000000000000000000000000000000000000000000000F8
0000000000000000000000000000000000000000000000000000000000F8
0000000000000000000000000000000000000000000000000000000000F8
0000000000000000000000000000000000000000000000000000000000F8
0000000000000000000000000000000000000000000000000000000000F8
0000000000000000000000000000000000000000000000000000000000F8
0000000000000000000000000000000000000000000000000000000000F8
0000000000000000000000000000000000000000000000000000000000F8
0000000000000000000000000000000000000000000000000000000000F8
0000000000000000000000000000000000000000000000000000000000F8
0000000000000000000000000000000000000000000000000000000000F8
0000000000000000000000000000000000000000000000000000000000F8
0000000000000000000000000000000000000000000000000000000000F8
0000000000000000000000000000000000000000000000000000000000F8
0000000000000000000000000000000000000000000000000000000000F8
0000000000000000000000000000000000000000000000000000000000F8
0000000000000000000000000000000000000000000000000000000000F8
0000000000000000000000000000000000000000000000000000000000F8
0000000000000000000000000000000000000000000000000000000000F8
0000000000000000000000000000000000000000000000000000000000F8
0000000000000000000000000000000000000000000000000000000000F8
0000000000000000000000000000000000000000000000000000000000F8
0000000000000000000000000000000000000000000000000000000000F8
0000000000000000000000000000000000000000000000000000000000F8
0000000000000000000000000000000000000000000000000000000000F0
0000000000000000000000000000000000000000000000000000000000F0
0000000000000000000000000000000000000000000000000000000000F0
0000000000000000000000000000000000000000000000000000000000F0
0000004000000000000000000000000000000000000000000000000000F0
0000004000000000000000000000000000000000000000000000000000F0
0000004000000000000000000000000000000000000000000000000000F0
0000004000000000000000000000000000000000000000000000000000F0
0000006000000000000000000000000000000000000000000000000000F0
0000006000000000000000000000000000000000000000000000000000F0
0000006000000000000000000000000000000000000000000000000000F0
0000006000000000000000000000000000000000000000000000000000F0
0000006000000000000000000000000000000000000000000000000000F0
000000E000000000000000000000000000000000000000000000000000F0
000000E000000000000000000000000000000000000000000000000000F0
000000E000000000000000000000000000000000000000000000000000F0
000000E000000000000000000000000000000000000000000000000000F0
000000E000000000000000000000000000000000000000000000000000F0
000000E000000000000000000000000000000000000000000000000000F0
000000F000000000000000000000000000000000000000000000000000F0
000000F000000000000000000000000000000000000000000000000000F0
000000F000000000000000000000000000000000000000000000000000F0
000000F000000000000000000000000000000000000000000000000000F0
000000F00000000000000000000000000000000000000000000000000130
000001F00000000000000000000000000000000000000000000000000000
000001F00000000000000000000000000000000000000000000000000000
000001900000000000000000000000000000000000000000000000000000
000000000000000000000000000000000000000000000000000000000000
000000000000000000000000000000000000000000000000000000000000
FC0000000000000000000000000000000000000000000000000000000000
820000000000000000000000000000000000000000000000000000000000
030000000000000000000000000000000000000000000000000000000000
010000000000000000000000000000000000000000000000000000000000
3F0000000000000000000000000000000000000000000000000000000000
610000000000000000000000000000000000000000000000000000000000
810000000000000000000000000000000000000000000000000000000000
830000000000000000000000000000000000000000000000000000000000
870000000000000000000000000000000000000000000000000000000000
790000000000000000000000000000000000000000000000000000000000
ENDCHAR
STARTCHAR 1EAC
ENCODING 7852
SWIDTH 400 0
DWIDTH 12 0
BBX 200 42 0 -3
BITMAP
00000010000000000000000000000000000000000000000000
00000010000000000000000000000000000000000000000000
00000010000000000000000000000000000000000000000000
00000010000000000000000000000000000000000000000000
00000010000000000000000000000000000000000000000000
00000010000000000000000000000000000000000000000000
00000018000000000000000000000000000000000000000000
00000038000000000000000000000000000000000000000000
00000038000000000000000000000000000000000000000000
00000038000000000000000000000000000000000000000000
00000038000000000000000000000000000000000000000000
00000038000000000000000000000000000000000000000000
00000038000000000000000000000000000000000000000000
00000038000000000000000000000000000000000000000000
00000038000000000000000000000000000000000000000000
00000038000000000000000000000000000000000000000000
00000038000000000000000000000000000000000000000000
0000003C000000000000000000000000000000000000000000
0000007C000000000000000000000000000000000000000000
0000007C000000000000000000000000000000000000000000
0000007C000000000000000000000000000000000000000000
0000006C000000000000000000000000000000000000000000
0000006C000000000000000000000000000000000000000000
00000000000000000000000000000000000000000000000000
00000000000000000000000000000000000000000000000000
06000000000000000000000000000000000000000000000000
06000000000000000000000000000000000000000000000000
09000000000000000000000000000000000000000000000000
09000000000000000000000000000000000000000000000000
09000000000000000000000000000000000000000000000000
10800000000000000000000000000000000000000000000000
10800000000000000000000000000000000000000000000000
20800000000000000000000000000000000000000000000000
3FC00000000000000000000000000000000000000000000000
20400000000000000000000000000000000000000000000000
40200000000000000000000000000000000000000000000000
40200000000000000000000000000000000000000000000000
40200000000000000000000000000000000000000000000000
80100000000000000000000000000000000000000000000000
00000000000000000000000000000000000000000000000000
00000000000000000000000000000000000000000000000000
00000000000000000000000000000000000000000000000001
ENDCHAR
STARTCHAR 1EAD
ENCODING 7853
SWIDTH 333 0
DWIDTH 10 0
BBX 199 38 1 -3
BITMAP
00000040000000000000000000000000000000000000000000
00000040000000000000000000000000000000000000000000
00000040000000000000000000000000000000000000000000
00000040000000000000000000000000000000000000000000
00000060000000000000000000000000000000000000000000
00000060000000000000000000000000000000000000000000
00000060000000000000000000000000000000000000000000
00000060000000000000000000000000000000000000000000
00000060000000000000000000000000000000000000000000
000000E0000000000000000000000000000000000000000000
000000E0000000000000000000000000000000000000000000
000000E0000000000000000000000000000000000000000000
000000E0000000000000000000000000000000000000000000
000000E0000000000000000000000000000000000000000000
000000E0000000000000000000000000000000000000000000
000000F0000000000000000000000000000000000000000000
000000F0000000000000000000000000000000000000000000
000000F0000000000000000000000000000000000000000000
000000F0000000000000000000000000000000000000000000
000000F0000000000000000000000000000000000000000000
000001F0000000000000000000000000000000000000000000
000001F0000000000000000000000000000000000000000000
00000190000000000000000000000000000000000000000000
00000000000000000000000000000000000000000000000000
00000000000000000000000000000000000000000000000000
FC000000000000000000000000000000000000000000000000
82000000000000000000000000000000000000000000000000
03000000000000000000000000000000000000000000000000
01000000000000000000000000000000000000000000000000
3F000000000000000000000000000000000000000000000000
61000000000000000000000000000000000000000000000000
81000000000000000000000000000000000000000000000000
83000000000000000000000000000000000000000000000000
87000000000000000000000000000000000000000000000000
79000000000000000000000000000000000000000000000000
00000000000000000000000000000000000000000000000000
00000000000000000000000000000000000000000000000000
00000000000000000000000000000000000000000000000006
ENDCHAR
STARTCHAR 1EAE
ENCODING 7854
SWIDTH 400 0
DWIDTH 12 0
BBX 161 20 0 0
BITMAP
000000000000000000000000000000000000000080
000000000000000000000000000000000000000080
198000000000000000000000000000000000000000
0F0000000000000000000000000000000000000000
000000000000000000000000000000000000000000
000000000000000000000000000000000000000000
060000000000000000000000000000000000000000
060000000000000000000000000000000000000000
090000000000000000000000000000000000000000
090000000000000000000000000000000000000000
090000000000000000000000000000000000000000
108000000000000000000000000000000000000000
108000000000000000000000000000000000000000
208000000000000000000000000000000000000000
3FC000000000000000000000000000000000000000
204000000000000000000000000000000000000000
402000000000000000000000000000000000000000
402000000000000000000000000000000000000000
402000000000000000000000000000000000000000
801000000000000000000000000000000000000000
ENDCHAR
STARTCHAR 1EAF
ENCODING 7855
SWIDTH 333 0
DWIDTH 10 0
BBX 160 16 1 0
BITMAP
0000000000000000000000000000000000000002
0000000000000000000000000000000000000003
6600000000000000000000000000000000000000
3C00000000000000000000000000000000000000
0000000000000000000000000000000000000000
0000000000000000000000000000000000000000
FC00000000000000000000000000000000000000
8200000000000000000000000000000000000000
0300000000000000000000000000000000000000
0100000000000000000000000000000000000000
3F00000000000000000000000000000000000000
6100000000000000000000000000000000000000
8100000000000000000000000000000000000000
8300000000000000000000000000000000000000
8700000000000000000000000000000000000000
7900000000000000000000000000000000000000
ENDCHAR
STARTCHAR 1EB0
ENCODING 7856
SWIDTH 400 0
DWIDTH 12 0
BBX 148 20 0 0
BITMAP
00000000000000000000000000000000000020
00000000000000000000000000000000000010
19800000000000000000000000000000000000
0F000000000000000000000000000000000000
00000000000000000000000000000000000000
00000000000000000000000000000000000000
06000000000000000000000000000000000000
06000000000000000000000000000000000000
09000000000000000000000000000000000000
09000000000000000000000000000000000000
09000000000000000000000000000000000000
10800000000000000000000000000000000000
10800000000000000000000000000000000000
20800000000000000000000000000000000000
3FC00000000000000000000000000000000000
20400000000000000000000000000000000000
40200000000000000000000000000000000000
40200000000000000000000000000000000000
40200000000000000000000000000000000000
80100000000000000000000000000000000000
ENDCHAR
STARTCHAR 1EB1
ENCODING 7857
SWIDTH 333 0
DWIDTH 10 0
BBX 146 16 1 0
BITMAP
00000000000000000000000000000000000040
00000000000000000000000000000000000040
66000000000000000000000000000000000000
3C000000000000000000000000000000000000
00000000000000000000000000000000000000
00000000000000000000000000000000000000
FC000000000000000000000000000000000000
82000000000000000000000000000000000000
03000000000000000000000000000000000000
01000000000000000000000000000000000000
3F000000000000000000000000000000000000
61000000000000000000000000000000000000
81000000000000000000000000000000000000
83000000000000000000000000000000000000
87000000000000000000000000000000000000
79000000000000000000000000000000000000
ENDCHAR
STARTCHAR 1EB2
ENCODING 7858
SWIDTH 400 0
DWIDTH 12 0
BBX 145 50 0 0
BITMAP
00000000000000000000000000000000000080
00000000000000000000000000000000000080
00000000000000000000000000000000000000
00000000000000000000000000000000000000
00000000000000000000000000000000000000
00000000000000000000000000000000000000
00000000000000000000000000000000000000
00000000000000000000000000000000000000
00000000000000000000000000000000000000
00000000000000000000000000000000000000
00000000000000000000000000000000000000
00000000000000000000000000000000000000
00000000000000000000000000000000000000
00000000000000000000000000000000000000
00000000000000000000000000000000000000
00000000000000000000000000000000000000
00000000000000000000000000000000000000
00000000000000000000000000000000000000
00000000000000000000000000000000000000
00000000000000000000000000000000000000
00000000000000000000000000000000000000
00000000000000000000000000000000000000
00000000000000000000000000000000000000
00000000000000000000000000000000000000
00000000000000000000000000000000000000
00000000000000000000000000000000000000
00000000000000000000000000000000000000
00000000000000000000000000000000000000
00000000000000000000000000000000000000
00000000000000000000000000000000000000
00000000000000000000000000000000000000
00000000000000000000000000000000000000
19800000000000000000000000000000000000
0F000000000000000000000000000000000000
00000000000000000000000000000000000000
00000000000000000000000000000000000000
06000000000000000000000000000000000000
06000000000000000000000000000000000000
09000000000000000000000000000000000000
09000000000000000000000000000000000000
09000000000000000000000000000000000000
10800000000000000000000000000000000000
10800000000000000000000000000000000000
20800000000000000000000000000000000000
3FC00000000000000000000000000000000000
20400000000000000000000000000000000000
40200000000000000000000000000000000000
40200000000000000000000000000000000000
40200000000000000000000000000000000000
80100000000000000000000000000000000000
ENDCHAR
STARTCHAR 1EB3
ENCODING 7859
SWIDTH 333 0
DWIDTH 10 0
BBX 144 46 1 0
BITMAP
000000000000000000000000000000000001
000000000000000000000000000000000002
000000000000000000000000000000000000
000000000000000000000000000000000000
000000000000000000000000000000000000
000000000000000000000000000000000000
000000000000000000000000000000000000
000000000000000000000000000000000000
000000000000000000000000000000000000
000000000000000000000000000000000000
000000000000000000000000000000000000
000000000000000000000000000000000000
000000000000000000000000000000000000
000000000000000000000000000000000000
000000000000000000000000000000000000
000000000000000000000000000000000000
000000000000000000000000000000000000
000000000000000000000000000000000000
000000000000000000000000000000000000
000000000000000000000000000000000000
000000000000000000000000000000000000
000000000000000000000000000000000000
000000000000000000000000000000000000
000000000000000000000000000000000000
000000000000000000000000000000000000
000000000000000000000000000000000000
000000000000000000000000000000000000
000000000000000000000000000000000000
000000000000000000000000000000000000
000000000000000000000000000000000000
000000000000000000000000000000000000
000000000000000000000000000000000000
660000000000000000000000000000000000
3C0000000000000000000000000000000000
000000000000000000000000000000000000
000000000000000000000000000000000000
FC0000000000000000000000000000000000
820000000000000000000000000000000000
030000000000000000000000000000000000
010000000000000000000000000000000000
3F0000000000000000000000000000000000
610000000000000000000000000000000000
810000000000000000000000000000000000
830000000000000000000000000000000000
870000000000000000000000000000000000
790000000000000000000000000000000000
ENDCHAR
STARTCHAR 1EB4
ENCODING 7860
SWIDTH 400 0
DWIDTH 12 0
BBX 239 98 0 0
BITMAP
000000000000000000000000000000000000000000000000000000000012
00000000000000000000000000000000000000000000000000000000003E
00000000000000000000000000000000000000000000000000000000003E
00000000000000000000000000000000000000000000000000000000003E
00000000000000000000000000000000000000000000000000000000003E
00000000000000000000000000000000000000000000000000000000003E
00000000000000000000000000000000000000000000000000000000003E
00000000000000000000000000000000000000000000000000000000003E
00000000000000000000000000000000000000000000000000000000003E
00000000000000000000000000000000000000000000000000000000003E
00000000000000000000000000000000000000000000000000000000003E
00000000000000000000000000000000000000000000000000000000003E
00000000000000000000000000000000000000000000000000000000003E
00000000000000000000000000000000000000000000000000000000003E
00000000000000000000000000000000000000000000000000000000003E
00000000000000000000000000000000000000000000000000000000003E
00000000000000000000000000000000000000000000000000000000003E
00000000000000000000000000000000000000000000000000000000003E
00000000000000000000000000000000000000000000000000000000003E
00000000000000000000000000000000000000000000000000000000003E
00000000000000000000000000000000000000000000000000000000003E
00000000000000000000000000000000000000000000000000000000003E
00000000000000000000000000000000000000000000000000000000003E
00000000000000000000000000000000000000000000000000000000003E
00000000000000000000000000000000000000000000000000000000003E
00000000000000000000000000000000000000000000000000000000003E
00000000000000000000000000000000000000000000000000000000003E
00000000000000000000000000000000000000000000000000000000003E
00000000000000000000000000000000000000000000000000000000003E
00000000000000000000000000000000000000000000000000000000003E
00000000000000000000000000000000000000000000000000000000003E
00000000000000000000000000000000000000000000000000000000003E
00000000000000000000000000000000000000000000000000000000003E
00000000000000000000000000000000000000000000000000000000003E
00000000000000000000000000000000000000000000000000000000007E
00000000000000000000000000000000000000000000000000000000007C
00000000000000000000000000000000000000000000000000000000007C
00000000000000000000000000000000000000000000000000000000007C
00000000000000000000000000000000000000000000000000000000007C
00000000000000000000000000000000000000000000000000000000007C
00000000000000000000000000000000000000000000000000000000007C
00000000000000000000000000000000000000000000000000000000007C
00000000000000000000000000000000000000000000000000000000007C
00000000000000000000000000000000000000000000000000000000007C
00000000000000000000000000000000000000000000000000000000007C
00000000000000000000000000000000000000000000000000000000007C
00000000000000000000000000000000000000000000000000000000007C
00000000000000000000000000000000000000000000000000000000007C
00000000000000000000000000000000000000000000000000000000007C
00000000000000000000000000000000000000000000000000000000007C
00000000000000000000000000000000000000000000000000000000007C
00000000000000000000000000000000000000000000000000000000007C
00000000000000000000000000000000000000000000000000000000007C
00000000000000000000000000000000000000000000000000000000007C
00000000000000000000000000000000000000000000000000000000007C
00000000000000000000000000000000000000000000000000000000007C
00000000000000000000000000000000000000000000000000000000007C
00000000000000000000000000000000000000000000000000000000007C
00000000000000000000000000000000000000000000000000000000007C
00000000000000000000000000000000000000000000000000000000007C
00000000000000000000000000000000000000000000000000000000007C
00000000000000000000000000000000000000000000000000000000007C
00000000000000000000000000000000000000000000000000000000007C
00000000000000000000000000000000000000000000000000000000007C
00000000000000000000000000000000000000000000000000000000007C
00000000000000000000000000000000000000000000000000000000007C
00000000000000000000000000000000000000000000000000000000007C
00000000000000000000000000000000000000000000000000000000007C
00000000000000000000000000000000000000000000000000000000007C
00000000000000000000000000000000000000000000000000000000007C
00000000000000000000000000000000000000000000000000000000007C
00000000000000000000000000000000000000000000000000000000007C
00000000000000000000000000000000000000000000000000000000007C
00000000000000000000000000000000000000000000000000000000007C
00000000000000000000000000000000000000000000000000000000007C
00000000000000000000000000000000000000000000000000000000007C
00000000000000000000000000000000000000000000000000000000007C
000000000000000000000000000000000000000000000000000000000078
000000000000000000000000000000000000000000000000000000000048
000000000000000000000000000000000000000000000000000000000000
198000000000000000000000000000000000000000000000000000000000
0F0000000000000000000000000000000000000000000000000000000000
000000000000000000000000000000000000000000000000000000000000
000000000000000000000000000000000000000000000000000000000000
060000000000000000000000000000000000000000000000000000000000
060000000000000000000000000000000000000000000000000000000000
090000000000000000000000000000000000000000000000000000000000
090000000000000000000000000000000000000000000000000000000000
090000000000000000000000000000000000000000000000000000000000
108000000000000000000000000000000000000000000000000000000000
108000000000000000000000000000000000000000000000000000000000
208000000000000000000000000000000000000000000000000000000000
3FC000000000000000000000000000000000000000000000000000000000
204000000000000000000000000000000000000000000000000000000000
402000000000000000000000000000000000000000000000000000000000
402000000000000000000000000000000000000000000000000000000000
402000000000000000000000000000000000000000000000000000000000
801000000000000000000000000000000000000000000000000000000000
ENDCHAR
STARTCHAR 1EB5
ENCODING 7861
SWIDTH 333 0
DWIDTH 10 0
BBX 237 94 1 0
BITMAP
000000000000000000000000000000000000000000000000000000000048
000000000000000000000000000000000000000000000000000000000078
0000000000000000000000000000000000000000000000000000000000F8
0000000000000000000000000000000000000000000000000000000000F8
0000000000000000000000000000000000000000000000000000000000F8
0000000000000000000000000000000000000000000000000000000000F8
0000000000000000000000000000000000000000000000000000000000F8
0000000000000000000000000000000000000000000000000000000000F8
0000000000000000000000000000000000000000000000000000000000F8
0000000000000000000000000000000000000000000000000000000000F8
0000000000000000000000000000000000000000000000000000000000F8
0000000000000000000000000000000000000000000000000000000000F8
0000000000000000000000000000000000000000000000000000000000F8
0000000000000000000000000000000000000000000000000000000000F8
0000000000000000000000000000000000000000000000000000000000F8
0000000000000000000000000000000000000000000000000000000000F8
0000000000000000000000000000000000000000000000000000000000F8
0000000000000000000000000000000000000000000000000000000000F8
0000000000000000000000000000000000000000000000000000000000F8
0000000000000000000000000000000000000000000000000000000000F8
0000000000000000000000000000000000000000000000000000000000F8
0000000000000000000000000000000000000000000000000000000000F8
0000000000000000000000000000000000000000000000000000000000F8
0000000000000000000000000000000000000000000000000000000000F8
0000000000000000000000000000000000000000000000000000000000F8
0000000000000000000000000000000000000000000000000000000000F8
0000000000000000000000000000000000000000000000000000000000F8
0000000000000000000000000000000000000000000000000000000000F8
0000000000000000000000000000000000000000000000000000000000F8
0000000000000000000000000000000000000000000000000000000000F8
0000000000000000000000000000000000000000000000000000000000F8
0000000000000000000000000000000000000000000000000000000000F8
0000000000000000000000000000000000000000000000000000000000F8
0000000000000000000000000000000000000000000000000000000000F8
0000000000000000000000000000000000000000000000000000000000F8
0000000000000000000000000000000000000000000000000000000000F8
0000000000000000000000000000000000000000000000000000000000F8
0000000000000000000000000000000000000000000000000000000000F8
0000000000000000000000000000000000000000000000000000000000F8
0000000000000000000000000000000000000000000000000000000000F8
0000000000000000000000000000000000000000000000000000000000F8
0000000000000000000000000000000000000000000000000000000000F8
0000000000000000000000000000000000000000000000000000000000F8
0000000000000000000000000000000000000000000000000000000000F8
0000000000000000000000000000000000000000000000000000000000F8
0000000000000000000000000000000000000000000000000000000000F8
0000000000000000000000000000000000000000000000000000000000F8
0000000000000000000000000000000000000000000000000000000000F8
0000000000000000000000000000000000000000000000000000000000F8
0000000000000000000000000000000000000000000000000000000000F8
0000000000000000000000000000000000000000000000000000000000F0
0000000000000000000000000000000000000000000000000000000000F0
0000000000000000000000000000000000000000000000000000000000F0
0000000000000000000000000000000000000000000000000000000000F0
0000000000000000000000000000000000000000000000000000000000F0
0000000000000000000000000000000000000000000000000000000000F0
0000000000000000000000000000000000000000000000000000000001F0
0000000000000000000000000000000000000000000000000000000001F0
0000000000000000000000000000000000000000000000000000000001F0
0000000000000000000000000000000000000000000000000000000001F0
0000000000000000000000000000000000000000000000000000000001F0
0000000000000000000000000000000000000000000000000000000001F0
0000000000000000000000000000000000000000000000000000000001F0
0000000000000000000000000000000000000000000000000000000001F0
0000000000000000000000000000000000000000000000000000000001F0
0000000000000000000000000000000000000000000000000000000001F0
0000000000000000000000000000000000000000000000000000000001F0
0000000000000000000000000000000000000000000000000000000001F0
0000000000000000000000000000000000000000000000000000000001F0
0000000000000000000000000000000000000000000000000000000001F0
0000000000000000000000000000000000000000000000000000000001F0
0000000000000000000000000000000000000000000000000000000001F0
0000000000000000000000000000000000000000000000000000000001F0
0000000000000000000000000000000000000000000000000000000001F0
0000000000000000000000000000000000000000000000000000000001F0
0000000000000000000000000000000000000000000000000000000001F0
0000000000000000000000000000000000000000000000000000000001F0
0000000000000000000000000000000000000000000000000000000001F0
000000000000000000000000000000000000000000000000000000000120
000000000000000000000000000000000000000000000000000000000000
660000000000000000000000000000000000000000000000000000000000
3C0000000000000000000000000000000000000000000000000000000000
000000000000000000000000000000000000000000000000000000000000
000000000000000000000000000000000000000000000000000000000000
FC0000000000000000000000000000000000000000000000000000000000
820000000000000000000000000000000000000000000000000000000000
030000000000000000000000000000000000000000000000000000000000
010000000000000000000000000000000000000000000000000000000000
3F0000000000000000000000000000000000000000000000000000000000
610000000000000000000000000000000000000000000000000000000000
810000000000000000000000000000000000000000000000000000000000
830000000000000000000000000000000000000000000000000000000000
870000000000000000000000000000000000000000000000000000000000
790000000000000000000000000000000000000000000000000000000000
ENDCHAR
STARTCHAR 1EB6
ENCODING 7862
SWIDTH 400 0
DWIDTH 12 0
BBX 200 21 0 -3
BITMAP
19800000000000000000000000000000000000000000000000
0F000000000000000000000000000000000000000000000000
00000000000000000000000000000000000000000000000000
00000000000000000000000000000000000000000000000000
06000000000000000000000000000000000000000000000000
06000000000000000000000000000000000000000000000000
09000000000000000000000000000000000000000000000000
09000000000000000000000000000000000000000000000000
09000000000000000000000000000000000000000000000000
10800000000000000000000000000000000000000000000000
10800000000000000000000000000000000000000000000000
20800000000000000000000000000000000000000000000000
3FC00000000000000000000000000000000000000000000000
20400000000000000000000000000000000000000000000000
40200000000000000000000000000000000000000000000000
40200000000000000000000000000000000000000000000000
40200000000000000000000000000000000000000000000000
80100000000000000000000000000000000000000000000000
00000000000000000000000000000000000000000000000000
00000000000000000000000000000000000000000000000000
00000000000000000000000000000000000000000000000001
ENDCHAR
STARTCHAR 1EB7
ENCODING 7863
SWIDTH 333 0
DWIDTH 10 0
BBX 199 17 1 -3
BITMAP
66000000000000000000000000000000000000000000000000
3C000000000000000000000000000000000000000000000000
00000000000000000000000000000000000000000000000000
00000000000000000000000000000000000000000000000000
FC000000000000000000000000000000000000000000000000
82000000000000000000000000000000000000000000000000
03000000000000000000000000000000000000000000000000
01000000000000000000000000000000000000000000000000
3F000000000000000000000000000000000000000000000000
61000000000000000000000000000000000000000000000000
81000000000000000000000000000000000000000000000000
83000000000000000000000000000000000000000000000000
87000000000000000000000000000000000000000000000000
79000000000000000000000000000000000000000000000000
00000000000000000000000000000000000000000000000000
00000000000000000000000000000000000000000000000000
00000000000000000000000000000000000000000000000006
ENDCHAR
STARTCHAR 1EB8
ENCODING 7864
SWIDTH 366 0
DWIDTH 11 0
BBX 198 17 2 -3
BITMAP
FE000000000000000000000000000000000000000000000000
80000000000000000000000000000000000000000000000000
80000000000000000000000000000000000000000000000000
80000000000000000000000000000000000000000000000000
80000000000000000000000000000000000000000000000000
80000000000000000000000000000000000000000000000000
FE000000000000000000000000000000000000000000000000
80000000000000000000000000000000000000000000000000
80000000000000000000000000000000000000000000000000
80000000000000000000000000000000000000000000000000
80000000000000000000000000000000000000000000000000
80000000000000000000000000000000000000000000000000
80000000000000000000000000000000000000000000000000
FE000000000000000000000000000000000000000000000000
00000000000000000000000000000000000000000000000000
00000000000000000000000000000000000000000000000000
0000000000000000000000000000000000000000000000000C
ENDCHAR
STARTCHAR 1EB9
ENCODING 7865
SWIDTH 366 0
DWIDTH 11 0
BBX 199 13 1 -3
BITMAP
1E000000000000000000000000000000000000000000000000
61000000000000000000000000000000000000000000000000
C0800000000000000000000000000000000000000000000000
80800000000000000000000000000000000000000000000000
FF800000000000000000000000000000000000000000000000
80000000000000000000000000000000000000000000000000
80000000000000000000000000000000000000000000000000
C0000000000000000000000000000000000000000000000000
60800000000000000000000000000000000000000000000000
1F000000000000000000000000000000000000000000000000
00000000000000000000000000000000000000000000000000
00000000000000000000000000000000000000000000000000
00000000000000000000000000000000000000000000000006
ENDCHAR
STARTCHAR 1EBA
ENCODING 7866
SWIDTH 366 0
DWIDTH 11 0
BBX 158 51 2 0
BITMAP
0000000000000000000000000000000000000004
0000000000000000000000000000000000000004
0000000000000000000000000000000000000000
0000000000000000000000000000000000000000
0000000000000000000000000000000000000000
0000000000000000000000000000000000000000
0000000000000000000000000000000000000000
0000000000000000000000000000000000000000
0000000000000000000000000000000000000000
0000000000000000000000000000000000000000
0000000000000000000000000000000000000000
0000000000000000000000000000000000000000
0000000000000000000000000000000000000000
0000000000000000000000000000000000000000
0000000000000000000000000000000000000000
0000000000000000000000000000000000000000
0000000000000000000000000000000000000000
0000000000000000000000000000000000000000
0000000000000000000000000000000000000000
0000000000000000000000000000000000000000
0000000000000000000000000000000000000000
0000000000000000000000000000000000000000
0000000000000000000000000000000000000000
0000000000000000000000000000000000000000
0000000000000000000000000000000000000000
0000000000000000000000000000000000000000
0000000000000000000000000000000000000000
0000000000000000000000000000000000000000
0000000000000000000000000000000000000000
0000000000000000000000000000000000000000
0000000000000000000000000000000000000000
0000000000000000000000000000000000000000
0000000000000000000000000000000000000000
0000000000000000000000000000000000000000
0000000000000000000000000000000000000000
0000000000000000000000000000000000000000
0000000000000000000000000000000000000000
FE00000000000000000000000000000000000000
8000000000000000000000000000000000000000
8000000000000000000000000000000000000000
8000000000000000000000000000000000000000
8000000000000000000000000000000000000000
8000000000000000000000000000000000000000
FE00000000000000000000000000000000000000
8000000000000000000000000000000000000000
8000000000000000000000000000000000000000
8000000000000000000000000000000000000000
8000000000000000000000000000000000000000
8000000000000000000000000000000000000000
8000000000000000000000000000000000000000
FE00000000000000000000000000000000000000
ENDCHAR
STARTCHAR 1EBB
ENCODING 7867
SWIDTH 366 0
DWIDTH 11 0
BBX 144 43 1 0
BITMAP
000000000000000000000000000000000001
000000000000000000000000000000000001
000000000000000000000000000000000000
000000000000000000000000000000000000
000000000000000000000000000000000000
000000000000000000000000000000000000
000000000000000000000000000000000000
000000000000000000000000000000000000
000000000000000000000000000000000000
000000000000000000000000000000000000
000000000000000000000000000000000000
000000000000000000000000000000000000
000000000000000000000000000000000000
000000000000000000000000000000000000
000000000000000000000000000000000000
000000000000000000000000000000000000
000000000000000000000000000000000000
000000000000000000000000000000000000
000000000000000000000000000000000000
000000000000000000000000000000000000
000000000000000000000000000000000000
000000000000000000000000000000000000
000000000000000000000000000000000000
000000000000000000000000000000000000
000000000000000000000000000000000000
000000000000000000000000000000000000
000000000000000000000000000000000000
000000000000000000000000000000000000
000000000000000000000000000000000000
000000000000000000000000000000000000
000000000000000000000000000000000000
000000000000000000000000000000000000
000000000000000000000000000000000000
1E0000000000000000000000000000000000
610000000000000000000000000000000000
C08000000000000000000000000000000000
808000000000000000000000000000000000
FF8000000000000000000000000000000000
800000000000000000000000000000000000
800000000000000000000000000000000000
C00000000000000000000000000000000000
608000000000000000000000000000000000
1F0000000000000000000000000000000000
ENDCHAR
STARTCHAR 1EBC
ENCODING 7868
SWIDTH 366 0
DWIDTH 11 0
BBX 236 95 2 0
BITMAP
000000000000000000000000000000000000000000000000000000000090
0000000000000000000000000000000000000000000000000000000000F0
0000000000000000000000000000000000000000000000000000000000F0
0000000000000000000000000000000000000000000000000000000000F0
0000000000000000000000000000000000000000000000000000000001F0
0000000000000000000000000000000000000000000000000000000001F0
0000000000000000000000000000000000000000000000000000000001F0
0000000000000000000000000000000000000000000000000000000001F0
0000000000000000000000000000000000000000000000000000000001F0
0000000000000000000000000000000000000000000000000000000001F0
0000000000000000000000000000000000000000000000000000000001F0
0000000000000000000000000000000000000000000000000000000001F0
0000000000000000000000000000000000000000000000000000000001F0
0000000000000000000000000000000000000000000000000000000001F0
0000000000000000000000000000000000000000000000000000000001F0
0000000000000000000000000000000000000000000000000000000001F0
0000000000000000000000000000000000000000000000000000000001F0
0000000000000000000000000000000000000000000000000000000001F0
0000000000000000000000000000000000000000000000000000000001F0
0000000000000000000000000000000000000000000000000000000001F0
0000000000000000000000000000000000000000000000000000000001F0
0000000000000000000000000000000000000000000000000000000001F0
0000000000000000000000000000000000000000000000000000000001F0
0000000000000000000000000000000000000000000000000000000001F0
0000000000000000000000000000000000000000000000000000000001F0
0000000000000000000000000000000000000000000000000000000001F0
0000000000000000000000000000000000000000000000000000000001F0
0000000000000000000000000000000000000000000000000000000001F0
0000000000000000000000000000000000000000000000000000000001F0
0000000000000000000000000000000000000000000000000000000001F0
0000000000000000000000000000000000000000000000000000000001F0
0000000000000000000000000000000000000000000000000000000001F0
0000000000000000000000000000000000000000000000000000000001F0
0000000000000000000000000000000000000000000000000000000001F0
0000000000000000000000000000000000000000000000000000000001F0
0000000000000000000000000000000000000000000000000000000001F0
0000000000000000000000000000000000000000000000000000000001F0
0000000000000000000000000000000000000000000000000000000001F0
0000000000000000000000000000000000000000000000000000000001F0
0000000000000000000000000000000000000000000000000000000001F0
0000000000000000000000000000000000000000000000000000000001F0
0000000000000000000000000000000000000000000000000000000001F0
0000000000000000000000000000000000000000000000000000000001F0
0000000000000000000000000000000000000000000000000000000001F0
0000000000000000000000000000000000000000000000000000000001F0
0000000000000000000000000000000000000000000000000000000001F0
0000000000000000000000000000000000000000000000000000000001F0
0000000000000000000000000000000000000000000000000000000001F0
0000000000000000000000000000000000000000000000000000000001F0
0000000000000000000000000000000000000000000000000000000001F0
0000000000000000000000000000000000000000000000000000000001F0
0000000000000000000000000000000000000000000000000000000001F0
0000000000000000000000000000000000000000000000000000000001F0
0000000000000000000000000000000000000000000000000000000001F0
0000000000000000000000000000000000000000000000000000000001F0
0000000000000000000000000000000000000000000000000000000001F0
0000000000000000000000000000000000000000000000000000000001F0
0000000000000000000000000000000000000000000000000000000001F0
0000000000000000000000000000000000000000000000000000000001F0
0000000000000000000000000000000000000000000000000000000001F0
0000000000000000000000000000000000000000000000000000000001E0
0000000000000000000000000000000000000000000000000000000001E0
0000000000000000000000000000000000000000000000000000000001E0
0000000000000000000000000000000000000000000000000000000001E0
0000000000000000000000000000000000000000000000000000000001E0
0000000000000000000000000000000000000000000000000000000001E0
0000000000000000000000000000000000000000000000000000000001E0
0000000000000000000000000000000000000000000000000000000001E0
0000000000000000000000000000000000000000000000000000000001E0
0000000000000000000000000000000000000000000000000000000001E0
0000000000000000000000000000000000000000000000000000000001E0
0000000000000000000000000000000000000000000000000000000001E0
0000000000000000000000000000000000000000000000000000000001E0
0000000000000000000000000000000000000000000000000000000001E0
0000000000000000000000000000000000000000000000000000000001E0
0000000000000000000000000000000000000000000000000000000001E0
0000000000000000000000000000000000000000000000000000000001E0
0000000000000000000000000000000000000000000000000000000001E0
000000000000000000000000000000000000000000000000000000000260
000000000000000000000000000000000000000000000000000000000000
000000000000000000000000000000000000000000000000000000000000
FE0000000000000000000000000000000000000000000000000000000000
800000000000000000000000000000000000000000000000000000000000
800000000000000000000000000000000000000000000000000000000000
800000000000000000000000000000000000000000000000000000000000
800000000000000000000000000000000000000000000000000000000000
800000000000000000000000000000000000000000000000000000000000
FE0000000000000000000000000000000000000000000000000000000000
800000000000000000000000000000000000000000000000000000000000
800000000000000000000000000000000000000000000000000000000000
800000000000000000000000000000000000000000000000000000000000
800000000000000000000000000000000000000000000000000000000000
800000000000000000000000000000000000000000000000000000000000
800000000000000000000000000000000000000000000000000000000000
FE0000000000000000000000000000000000000000000000000000000000
ENDCHAR
STARTCHAR 1EBD
ENCODING 7869
SWIDTH 366 0
DWIDTH 11 0
BBX 237 91 1 -1
BITMAP
000000000000000000000000000000000000000000000000000000000068
000000000000000000000000000000000000000000000000000000000078
000000000000000000000000000000000000000000000000000000000078
000000000000000000000000000000000000000000000000000000000078
000000000000000000000000000000000000000000000000000000000078
000000000000000000000000000000000000000000000000000000000078
000000000000000000000000000000000000000000000000000000000078
000000000000000000000000000000000000000000000000000000000078
000000000000000000000000000000000000000000000000000000000078
000000000000000000000000000000000000000000000000000000000078
000000000000000000000000000000000000000000000000000000000078
000000000000000000000000000000000000000000000000000000000078
000000000000000000000000000000000000000000000000000000000078
0000000000000000000000000000000000000000000000000000000000F8
0000000000000000000000000000000000000000000000000000000000F8
0000000000000000000000000000000000000000000000000000000000F8
0000000000000000000000000000000000000000000000000000000000F8
0000000000000000000000000000000000000000000000000000000000F8
0000000000000000000000000000000000000000000000000000000000F8
0000000000000000000000000000000000000000000000000000000000F8
0000000000000000000000000000000000000000000000000000000000F8
0000000000000000000000000000000000000000000000000000000000F8
0000000000000000000000000000000000000000000000000000000000F8
0000000000000000000000000000000000000000000000000000000000F8
0000000000000000000000000000000000000000000000000000000000F8
0000000000000000000000000000000000000000000000000000000000F8
0000000000000000000000000000000000000000000000000000000000F8
0000000000000000000000000000000000000000000000000000000000F8
0000000000000000000000000000000000000000000000000000000000F8
0000000000000000000000000000000000000000000000000000000000F8
0000000000000000000000000000000000000000000000000000000000F8
0000000000000000000000000000000000000000000000000000000000F8
0000000000000000000000000000000000000000000000000000000000F8
0000000000000000000000000000000000000000000000000000000000F8
0000000000000000000000000000000000000000000000000000000000F8
0000000000000000000000000000000000000000000000000000000000F8
0000000000000000000000000000000000000000000000000000000000F8
0000000000000000000000000000000000000000000000000000000000F8
0000000000000000000000000000000000000000000000000000000000F8
0000000000000000000000000000000000000000000000000000000000F8
0000000000000000000000000000000000000000000000000000000000F8
0000000000000000000000000000000000000000000000000000000000F8
0000000000000000000000000000000000000000000000000000000000F8
0000000000000000000000000000000000000000000000000000000000F8
0000000000000000000000000000000000000000000000000000000000F8
0000000000000000000000000000000000000000000000000000000000F8
0000000000000000000000000000000000000000000000000000000000F8
0000000000000000000000000000000000000000000000000000000000F8
0000000000000000000000000000000000000000000000000000000000F8
0000000000000000000000000000000000000000000000000000000000F8
0000000000000000000000000000000000000000000000000000000000F8
0000000000000000000000000000000000000000000000000000000000F8
0000000000000000000000000000000000000000000000000000000000F8
0000000000000000000000000000000000000000000000000000000000F8
0000000000000000000000000000000000000000000000000000000000F8
0000000000000000000000000000000000000000000000000000000000F8
0000000000000000000000000000000000000000000000000000000000F8
0000000000000000000000000000000000000000000000000000000000F8
0000000000000000000000000000000000000000000000000000000000F8
0000000000000000000000000000000000000000000000000000000000F8
0000000000000000000000000000000000000000000000000000000000F8
0000000000000000000000000000000000000000000000000000000000F8
0000000000000000000000000000000000000000000000000000000000F8
0000000000000000000000000000000000000000000000000000000000F8
0000000000000000000000000000000000000000000000000000000000F8
0000000000000000000000000000000000000000000000000000000000F8
0000000000000000000000000000000000000000000000000000000000F8
0000000000000000000000000000000000000000000000000000000000F8
0000000000000000000000000000000000000000000000000000000000F8
0000000000000000000000000000000000000000000000000000000000F8
0000000000000000000000000000000000000000000000000000000000F8
0000000000000000000000000000000000000000000000000000000000F0
0000000000000000000000000000000000000000000000000000000000F0
0000000000000000000000000000000000000000000000000000000000F0
0000000000000000000000000000000000000000000000000000000000F0
0000000000000000000000000000000000000000000000000000000000F0
0000000000000000000000000000000000000000000000000000000000F0
0000000000000000000000000000000000000000000000000000000000F0
0000000000000000000000000000000000000000000000000000000000B0
000000000000000000000000000000000000000000000000000000000000
000000000000000000000000000000000000000000000000000000000000
1E0000000000000000000000000000000000000000000000000000000000
610000000000000000000000000000000000000000000000000000000000
C08000000000000000000000000000000000000000000000000000000000
808000000000000000000000000000000000000000000000000000000000
FF8000000000000000000000000000000000000000000000000000000000
800000000000000000000000000000000000000000000000000000000000
800000000000000000000000000000000000000000000000000000000000
C00000000000000000000000000000000000000000000000000000000000
608000000000000000000000000000000000000000000000000000000000
1F0000000000000000000000000000000000000000000000000000000000
ENDCHAR
STARTCHAR 1EBE
ENCODING 7870
SWIDTH 366 0
DWIDTH 11 0
BBX 161 39 2 0
BITMAP
000000800000000000000000000000000000000000
000000800000000000000000000000000000000000
000000800000000000000000000000000000000000
000000C00000000000000000000000000000000000
000000C00000000000000000000000000000000000
000000C00000000000000000000000000000000000
000000C00000000000000000000000000000000000
000000C00000000000000000000000000000000000
000000C00000000000000000000000000000000000
000001C00000000000000000000000000000000000
000001C00000000000000000000000000000000000
000001C00000000000000000000000000000000000
000001C00000000000000000000000000000000000
000001C00000000000000000000000000000000000
000001E00000000000000000000000000000000000
000001E00000000000000000000000000000000000
000001E00000000000000000000000000000000000
000001E00000000000000000000000000000000000
000001E00000000000000000000000000000000000
000001E00000000000000000000000000000000080
000001E00000000000000000000000000000000080
000003E00000000000000000000000000000000000
000003200000000000000000000000000000000000
000000000000000000000000000000000000000000
000000000000000000000000000000000000000000
FE0000000000000000000000000000000000000000
800000000000000000000000000000000000000000
800000000000000000000000000000000000000000
800000000000000000000000000000000000000000
800000000000000000000000000000000000000000
800000000000000000000000000000000000000000
FE0000000000000000000000000000000000000000
800000000000000000000000000000000000000000
800000000000000000000000000000000000000000
800000000000000000000000000000000000000000
800000000000000000000000000000000000000000
800000000000000000000000000000000000000000
800000000000000000000000000000000000000000
FE0000000000000000000000000000000000000000
ENDCHAR
STARTCHAR 1EBF
ENCODING 7871
SWIDTH 366 0
DWIDTH 11 0
BBX 163 35 1 0
BITMAP
000000200000000000000000000000000000000000
000000200000000000000000000000000000000000
000000600000000000000000000000000000000000
000000600000000000000000000000000000000000
000000600000000000000000000000000000000000
000000600000000000000000000000000000000000
000000600000000000000000000000000000000000
000000600000000000000000000000000000000000
000000600000000000000000000000000000000000
000000600000000000000000000000000000000000
000000700000000000000000000000000000000000
000000700000000000000000000000000000000000
000000700000000000000000000000000000000000
000000700000000000000000000000000000000000
000000F00000000000000000000000000000000000
000000F00000000000000000000000000000000000
000000F00000000000000000000000000000000000
000000F00000000000000000000000000000000000
000000F00000000000000000000000000000000000
000000F00000000000000000000000000000000020
000000F00000000000000000000000000000000020
000000F80000000000000000000000000000000000
000000980000000000000000000000000000000000
000000000000000000000000000000000000000000
000000000000000000000000000000000000000000
1E0000000000000000000000000000000000000000
610000000000000000000000000000000000000000
C08000000000000000000000000000000000000000
808000000000000000000000000000000000000000
FF8000000000000000000000000000000000000000
800000000000000000000000000000000000000000
800000000000000000000000000000000000000000
C00000000000000000000000000000000000000000
608000000000000000000000000000000000000000
1F0000000000000000000000000000000000000000
ENDCHAR
STARTCHAR 1EC0
ENCODING 7872
SWIDTH 366 0
DWIDTH 11 0
BBX 148 39 2 0
BITMAP
00000080000000000000000000000000000000
00000080000000000000000000000000000000
00000080000000000000000000000000000000
000000C0000000000000000000000000000000
000000C0000000000000000000000000000000
000000C0000000000000000000000000000000
000000C0000000000000000000000000000000
000000C0000000000000000000000000000000
000000C0000000000000000000000000000000
000001C0000000000000000000000000000000
000001C0000000000000000000000000000000
000001C0000000000000000000000000000000
000001C0000000000000000000000000000000
000001C0000000000000000000000000000000
000001E0000000000000000000000000000000
000001E0000000000000000000000000000000
000001E0000000000000000000000000000000
000001E0000000000000000000000000000000
000001E0000000000000000000000000000000
000001E0000000000000000000000000000010
000001E0000000000000000000000000000010
000003E0000000000000000000000000000000
00000320000000000000000000000000000000
00000000000000000000000000000000000000
00000000000000000000000000000000000000
FE000000000000000000000000000000000000
80000000000000000000000000000000000000
80000000000000000000000000000000000000
80000000000000000000000000000000000000
80000000000000000000000000000000000000
80000000000000000000000000000000000000
FE000000000000000000000000000000000000
80000000000000000000000000000000000000
80000000000000000000000000000000000000
80000000000000000000000000000000000000
80000000000000000000000000000000000000
80000000000000000000000000000000000000
80000000000000000000000000000000000000
FE000000000000000000000000000000000000
ENDCHAR
STARTCHAR 1EC1
ENCODING 7873
SWIDTH 366 0
DWIDTH 11 0
BBX 166 35 1 0
BITMAP
000000200000000000000000000000000000000000
000000200000000000000000000000000000000000
000000600000000000000000000000000000000000
000000600000000000000000000000000000000000
000000600000000000000000000000000000000000
000000600000000000000000000000000000000000
000000600000000000000000000000000000000000
000000600000000000000000000000000000000000
000000600000000000000000000000000000000000
000000600000000000000000000000000000000000
000000700000000000000000000000000000000000
000000700000000000000000000000000000000000
000000700000000000000000000000000000000000
000000700000000000000000000000000000000000
000000F00000000000000000000000000000000000
000000F00000000000000000000000000000000000
000000F00000000000000000000000000000000000
000000F00000000000000000000000000000000000
000000F00000000000000000000000000000000000
000000F00000000000000000000000000000000000
000000F00000000000000000000000000000000008
000000F80000000000000000000000000000000004
000000980000000000000000000000000000000000
000000000000000000000000000000000000000000
000000000000000000000000000000000000000000
1E0000000000000000000000000000000000000000
610000000000000000000000000000000000000000
C08000000000000000000000000000000000000000
808000000000000000000000000000000000000000
FF8000000000000000000000000000000000000000
800000000000000000000000000000000000000000
800000000000000000000000000000000000000000
C00000000000000000000000000000000000000000
608000000000000000000000000000000000000000
1F0000000000000000000000000000000000000000
ENDCHAR
STARTCHAR 1EC2
ENCODING 7874
SWIDTH 366 0
DWIDTH 11 0
BBX 146 49 2 0
BITMAP
00000000000000000000000000000000000040
00000000000000000000000000000000000040
00000000000000000000000000000000000000
00000000000000000000000000000000000000
00000000000000000000000000000000000000
00000000000000000000000000000000000000
00000000000000000000000000000000000000
00000000000000000000000000000000000000
00000000000000000000000000000000000000
00000000000000000000000000000000000000
00000080000000000000000000000000000000
00000080000000000000000000000000000000
00000080000000000000000000000000000000
000000C0000000000000000000000000000000
000000C0000000000000000000000000000000
000000C0000000000000000000000000000000
000000C0000000000000000000000000000000
000000C0000000000000000000000000000000
000000C0000000000000000000000000000000
000001C0000000000000000000000000000000
000001C0000000000000000000000000000000
000001C0000000000000000000000000000000
000001C0000000000000000000000000000000
000001C0000000000000000000000000000000
000001E0000000000000000000000000000000
000001E0000000000000000000000000000000
000001E0000000000000000000000000000000
000001E0000000000000000000000000000000
000001E0000000000000000000000000000000
000001E0000000000000000000000000000000
000001E0000000000000000000000000000000
000003E0000000000000000000000000000000
00000320000000000000000000000000000000
00000000000000000000000000000000000000
00000000000000000000000000000000000000
FE000000000000000000000000000000000000
80000000000000000000000000000000000000
80000000000000000000000000000000000000
80000000000000000000000000000000000000
80000000000000000000000000000000000000
80000000000000000000000000000000000000
FE000000000000000000000000000000000000
80000000000000000000000000000000000000
80000000000000000000000000000000000000
80000000000000000000000000000000000000
80000000000000000000000000000000000000
80000000000000000000000000000000000000
80000000000000000000000000000000000000
FE000000000000000000000000000000000000
ENDCHAR
ENDFONT
